<svg width="288" height="163" viewBox="0 0 288 163" fill="none" xmlns="http://www.w3.org/2000/svg">
  <g clip-path="url(#clip0)">
    <path
      d="M83.2085 121.489L84.1766 120.521C86.6144 118.083 86.6144 114.141 84.1766 111.721C81.7389 109.283 77.797 109.283 75.3766 111.721L65.107 121.99C63.3781 123.719 62.9113 126.192 63.6201 128.353L38.9834 156.914L67.5274 132.295C69.6885 133.021 72.1781 132.537 73.8897 130.808L75.0827 129.615"
      stroke="#FFBCAA" stroke-miterlimit="10" stroke-linecap="round" stroke-linejoin="round"/>
    <path d="M78.8002 117.098L70.2422 125.638" stroke="#FFBCAA" stroke-miterlimit="10" stroke-linecap="round"
          stroke-linejoin="round"/>
    <path d="M65.8503 121.247C65.8503 121.247 58.6927 119.241 61.0094 111.772" stroke="#FFBCAA" stroke-miterlimit="10"
          stroke-linecap="round" stroke-linejoin="round"/>
    <path d="M200.461 51.4005L184.659 31.501" stroke="#A2D5C6" stroke-miterlimit="10" stroke-linecap="round"
          stroke-linejoin="round" stroke-dasharray="4.9 4.9"/>
    <path d="M196.295 57.1575L179.957 36.5664" stroke="#A2D5C6" stroke-miterlimit="10" stroke-linecap="round"
          stroke-linejoin="round"/>
    <path d="M203.971 45.0031L189.293 26.5039" stroke="#A2D5C6" stroke-miterlimit="10" stroke-linecap="round"
          stroke-linejoin="round"/>
    <path d="M207.654 38.364L194.1 21.2998" stroke="#A2D5C6" stroke-miterlimit="10" stroke-linecap="round"
          stroke-linejoin="round" stroke-dasharray="4.9 4.9"/>
    <path d="M210.991 32.3478L198.525 16.6494" stroke="#A2D5C6" stroke-miterlimit="10" stroke-linecap="round"
          stroke-linejoin="round"/>
    <path d="M215.036 19.1389L205.855 12.5" stroke="#A2D5C6" stroke-miterlimit="10" stroke-linecap="round"
          stroke-linejoin="round"/>
    <path d="M186.647 58.3675L177.467 51.7285" stroke="#A2D5C6" stroke-miterlimit="10" stroke-linecap="round"
          stroke-linejoin="round"/>
    <path
      d="M207.412 20.1935L202.571 16.6838C200.997 15.5428 198.802 15.8885 197.661 17.4791L176.672 40.1103C175.531 41.6836 175.289 43.7064 176.862 44.8302L185.213 50.864L193.563 56.8979C195.136 58.0389 196.969 57.1745 198.11 55.6012L213.048 28.6132C214.189 27.0399 213.843 24.8442 212.253 23.7031C212.253 23.7031 207.412 20.1935 207.412 20.1935Z"
      stroke="#A2D5C6" stroke-miterlimit="10" stroke-linecap="round" stroke-linejoin="round"/>
    <path d="M37.877 0.242188V9.78568" stroke="#FFBCAA" stroke-miterlimit="10" stroke-linecap="square"/>
    <path d="M33.1055 5.01367H42.649" stroke="#FFBCAA" stroke-miterlimit="10" stroke-linecap="square"/>
    <path d="M268.686 126V135.371" stroke="#FFBCAA" stroke-miterlimit="10" stroke-linecap="square"/>
    <path d="M264 130.686H273.371" stroke="#FFBCAA" stroke-miterlimit="10" stroke-linecap="square"/>
    <path d="M26.6855 97V106.371" stroke="#FFBCAA" stroke-miterlimit="10" stroke-linecap="square"/>
    <path d="M22 101.686H31.3706" stroke="#FFBCAA" stroke-miterlimit="10" stroke-linecap="square"/>
    <path
      d="M17.9944 11.8945C16.594 19.225 14.9688 21.075 8.72754 22.7693C14.9688 24.4636 16.594 26.3135 17.9944 33.644C19.3948 26.3135 21.02 24.4636 27.2613 22.7693C21.02 21.075 19.3948 19.225 17.9944 11.8945Z"
      stroke="#FFBCAA" stroke-miterlimit="10" stroke-linecap="square"/>
    <path
      d="M257.5 57C256.518 62.1418 255.378 63.4394 251 64.6278C255.378 65.8162 256.518 67.1138 257.5 72.2556C258.482 67.1138 259.622 65.8162 264 64.6278C259.622 63.4394 258.482 62.1418 257.5 57Z"
      stroke="#FFBCAA" stroke-width="0.701424" stroke-miterlimit="10" stroke-linecap="square"/>
    <path
      d="M210.99 48.8936C244.289 72.5621 261.976 103.285 252.968 128.181C240.364 163.052 180.13 173.236 118.443 150.933C111.441 148.409 104.577 145.504 97.8863 142.254C94.9818 140.836 92.1118 139.349 89.2937 137.793C87.0808 136.583 84.5739 135.252 82.8104 133.281C80.7703 131.016 80.511 127.731 78.3671 125.587C77.1569 124.377 75.5663 123.685 73.872 123.513C73.3706 123.461 72.852 123.461 72.3506 123.53"
      stroke="#FFBCAA" stroke-miterlimit="10"/>
    <path
      d="M53.5747 111.773C32.2747 90.9913 22.3855 67.3227 29.5949 47.4232C42.1986 12.5514 102.416 2.36823 164.103 24.6709C170.863 27.1087 177.363 29.8403 183.553 32.814"
      stroke="#A2D5C6" stroke-miterlimit="10"/>
  </g>
  <path
    d="M138.526 111.916C137.216 111.916 136.173 111.646 135.397 111.104C134.622 110.556 134.164 109.767 134.023 108.737H133.562L133.923 107.083C134.09 107.898 134.552 108.547 135.307 109.028C136.063 109.503 136.979 109.74 138.055 109.74C138.991 109.74 139.703 109.56 140.191 109.199C140.679 108.838 140.923 108.313 140.923 107.624C140.923 107.149 140.803 106.755 140.562 106.441C140.322 106.12 139.934 105.862 139.399 105.669C138.871 105.468 138.162 105.311 137.273 105.197C135.956 105.03 134.859 104.743 133.983 104.335C133.114 103.92 132.462 103.389 132.028 102.74C131.593 102.092 131.376 101.319 131.376 100.423C131.376 99.1532 131.797 98.1603 132.64 97.445C133.482 96.7229 134.649 96.3619 136.14 96.3619C136.989 96.3619 137.714 96.4822 138.316 96.7229C138.918 96.9636 139.392 97.3246 139.74 97.806C140.094 98.2807 140.312 98.8757 140.392 99.5911H140.853L140.482 101.186C140.328 100.383 139.89 99.7415 139.168 99.2602C138.446 98.7721 137.577 98.5281 136.561 98.5281C135.752 98.5281 135.117 98.6852 134.655 98.9994C134.201 99.307 133.973 99.7449 133.973 100.313C133.973 100.701 134.097 101.045 134.344 101.346C134.592 101.64 134.986 101.894 135.528 102.108C136.069 102.322 136.778 102.503 137.654 102.65C139.031 102.844 140.151 103.141 141.014 103.542C141.876 103.937 142.508 104.458 142.909 105.107C143.31 105.749 143.511 106.541 143.511 107.484C143.511 108.881 143.073 109.971 142.197 110.753C141.328 111.529 140.104 111.916 138.526 111.916ZM131.396 111.716V107.083H133.923V111.716H131.396ZM140.482 101.186V96.5725H143.009V101.186H140.482ZM162.828 111.967C161.658 111.967 160.589 111.776 159.619 111.395C158.65 111.014 157.814 110.472 157.112 109.77C156.41 109.068 155.865 108.239 155.477 107.283C155.096 106.32 154.906 105.261 154.906 104.104C154.906 102.961 155.096 101.914 155.477 100.965C155.865 100.016 156.41 99.1966 157.112 98.508C157.814 97.8127 158.65 97.2745 159.619 96.8934C160.589 96.5123 161.658 96.3217 162.828 96.3217C164.005 96.3217 165.075 96.5123 166.037 96.8934C167.007 97.2745 167.843 97.8127 168.545 98.508C169.253 99.1966 169.798 100.016 170.179 100.965C170.567 101.914 170.761 102.961 170.761 104.104C170.761 105.261 170.567 106.32 170.179 107.283C169.798 108.239 169.253 109.068 168.545 109.77C167.843 110.472 167.007 111.014 166.037 111.395C165.075 111.776 164.005 111.967 162.828 111.967ZM162.828 109.51C163.871 109.51 164.787 109.282 165.576 108.828C166.365 108.366 166.984 107.731 167.431 106.922C167.879 106.106 168.103 105.167 168.103 104.104C168.103 103.048 167.879 102.118 167.431 101.316C166.984 100.514 166.365 99.892 165.576 99.4507C164.787 99.0028 163.875 98.7788 162.838 98.7788C161.795 98.7788 160.876 99.0028 160.08 99.4507C159.292 99.892 158.673 100.514 158.225 101.316C157.784 102.118 157.563 103.048 157.563 104.104C157.563 105.167 157.784 106.106 158.225 106.922C158.673 107.731 159.292 108.366 160.08 108.828C160.876 109.282 161.792 109.51 162.828 109.51ZM170.631 94.0452V95.4793C170.631 96.2749 170.44 96.9201 170.059 97.4149C169.678 97.9029 169.106 98.147 168.344 98.147C168.337 98.147 168.327 98.147 168.314 98.147C168.307 98.147 168.297 98.147 168.284 98.147L167.652 99.1398L164.984 96.5725C165.285 96.626 165.536 96.6694 165.737 96.7028C165.937 96.7296 166.108 96.7496 166.248 96.763C166.395 96.7764 166.536 96.7831 166.669 96.7831C167.191 96.7831 167.592 96.6828 167.873 96.4822C168.154 96.2816 168.294 95.9039 168.294 95.349V94.0452H170.631ZM161.404 113.28H164.242V115.948H161.404V113.28ZM181.607 98.7888V96.5725H188.216V98.7888H186.18V109.499H188.216V111.716H181.607V109.499H183.652V98.7888H181.607ZM223.241 111.967C222.111 111.967 221.071 111.773 220.122 111.385C219.179 110.997 218.364 110.452 217.675 109.75C216.993 109.048 216.462 108.219 216.08 107.263C215.699 106.3 215.509 105.247 215.509 104.104C215.509 102.961 215.696 101.918 216.07 100.975C216.445 100.026 216.966 99.2067 217.635 98.518C218.31 97.8227 219.102 97.2878 220.012 96.9134C220.928 96.5323 221.921 96.3418 222.99 96.3418C223.993 96.3418 224.852 96.5123 225.568 96.8533C226.283 97.1942 226.851 97.6957 227.273 98.3576C227.7 99.0128 227.981 99.8117 228.115 100.754H228.787L228.205 102.57C227.931 101.42 227.349 100.504 226.46 99.8218C225.578 99.1331 224.508 98.7888 223.251 98.7888C222.255 98.7888 221.376 99.0128 220.613 99.4607C219.851 99.9087 219.256 100.534 218.828 101.336C218.4 102.132 218.186 103.054 218.186 104.104C218.186 104.9 218.307 105.628 218.548 106.29C218.795 106.952 219.143 107.524 219.591 108.005C220.038 108.487 220.57 108.861 221.185 109.128C221.807 109.389 222.492 109.52 223.241 109.52C224.083 109.52 224.842 109.356 225.517 109.028C226.199 108.694 226.764 108.229 227.212 107.634C227.667 107.032 227.978 106.327 228.145 105.518L230.742 106.009C230.502 107.206 230.037 108.253 229.348 109.148C228.66 110.038 227.794 110.73 226.751 111.224C225.715 111.719 224.545 111.967 223.241 111.967ZM228.205 102.57V96.5725H230.732V102.57H228.205ZM255.131 103.051V105.117H245.473V103.051H255.131ZM242.053 98.7888V96.5725H248.662V98.7888H246.626V109.499H248.662V111.716H242.053V109.499H244.099V98.7888H242.053ZM252.132 98.7888V96.5725H258.741V98.7888H256.705V109.499H258.741V111.716H252.132V109.499H254.178V98.7888H252.132ZM270.416 98.7888V96.5725H277.024V98.7888H274.989V109.499H277.024V111.716H270.416V109.499H272.461V98.7888H270.416ZM271.99 92.5108L271.408 91.2873C271.749 91.1269 272.097 90.9998 272.451 90.9062C272.812 90.8126 273.224 90.7658 273.685 90.7658C274.588 90.7658 275.306 90.943 275.841 91.2974C276.376 91.6517 276.643 92.1331 276.643 92.7415C276.643 93.2362 276.429 93.6541 276.002 93.9951C275.58 94.3361 274.915 94.5065 274.006 94.5065H272.822V93.3633H273.785C273.999 93.3633 274.17 93.3165 274.297 93.2229C274.43 93.1293 274.497 92.9989 274.497 92.8318C274.497 92.6446 274.4 92.5008 274.206 92.4005C274.013 92.3002 273.728 92.2501 273.354 92.2501C273.093 92.2501 272.843 92.2768 272.602 92.3303C272.361 92.3771 272.157 92.4373 271.99 92.5108ZM272.822 95.2386V94.5065L274.357 94.1054V95.2386H272.822Z"
    fill="#466196"/>
  <path
    d="M8.54446 81.8806C7.41456 81.8806 6.37492 81.6867 5.42553 81.2989C4.48283 80.9112 3.66717 80.3663 2.97853 79.6643C2.29658 78.9622 1.76505 78.1332 1.38396 77.1771C1.00287 76.2144 0.812326 75.1614 0.812326 74.0181C0.812326 72.8748 0.999528 71.8318 1.37393 70.8891C1.74834 69.9397 2.26983 69.1207 2.93841 68.4321C3.61368 67.7368 4.40595 67.2019 5.31522 66.8275C6.23117 66.4464 7.22402 66.2559 8.29375 66.2559C9.29662 66.2559 10.1557 66.4264 10.8711 66.7673C11.5865 67.1083 12.1548 67.6097 12.576 68.2716C13.0039 68.9268 13.2847 69.7258 13.4184 70.6685H14.0903L13.5087 72.4837C13.2346 71.3337 12.6529 70.4178 11.7637 69.7358C10.8812 69.0472 9.81142 68.7029 8.55449 68.7029C7.55831 68.7029 6.67912 68.9268 5.91694 69.3748C5.15476 69.8227 4.55972 70.4479 4.13183 71.2502C3.70394 72.0458 3.48999 72.9684 3.48999 74.0181C3.48999 74.8137 3.61034 75.5425 3.85103 76.2043C4.0984 76.8662 4.44606 77.4379 4.89401 77.9193C5.34196 78.4006 5.87348 78.775 6.48858 79.0425C7.11036 79.3032 7.79565 79.4336 8.54446 79.4336C9.38688 79.4336 10.1457 79.2698 10.821 78.9422C11.5029 78.6079 12.0679 78.1432 12.5158 77.5482C12.9705 76.9465 13.2814 76.2411 13.4485 75.4321L16.0459 75.9235C15.8053 77.1203 15.3406 78.1666 14.6519 79.0625C13.9633 79.9517 13.0975 80.6437 12.0545 81.1385C11.0182 81.6332 9.8482 81.8806 8.54446 81.8806ZM13.5087 72.4837V66.4865H16.0359V72.4837H13.5087ZM38.3153 74.8404V76.8963H30.1219V74.8404H38.3153ZM40.8526 79.4135H42.1262V81.6299H35.4672V79.4135H38.1549L33.7723 68.041L35.1362 69.2444H33.1706L34.4844 68.041L30.1018 79.4135H32.8296V81.6299H26.331V79.4135H27.6147L32.7394 66.4865H35.7379L40.8526 79.4135ZM34.9958 61.6226L38.0044 63.9392L37.0316 65.263L34.2236 63.6083L31.4156 65.2731L30.4428 63.9493L33.4514 61.6226H34.9958ZM63.9512 68.7029L58.8667 75.3018H56.6102L51.5256 68.7029H50.4626V66.4865H56.7406V68.7029H54.5543L58.5357 74.0181L56.8308 73.1456H58.7965L57.3323 74.0181L61.3137 68.7029H58.8867V66.4865H65.0143V68.7029H63.9512ZM58.987 73.6871V79.4135H61.0429V81.6299H54.4039V79.4135H56.4598V73.6871H58.987ZM91.7206 68.7029V66.4865H98.3195V68.7029H96.2836V79.4135H98.3195V81.6299H91.7206V79.4135H93.7564V68.7029H91.7206ZM100.395 72.2831L106.663 79.4135H108.689V81.6299H99.894V79.4135H103.494L98.7407 73.9078L100.395 72.2831ZM94.9899 75.5324L102.722 68.7029H99.8137V66.4865H107.817V68.7029H105.931L95.8323 77.3978L94.9899 75.5324ZM119.515 68.7029V66.4865H126.124V68.7029H124.088V79.4135H126.124V81.6299H119.515V79.4135H121.561V68.7029H119.515ZM146.655 81.6299L142.122 67.9607L144.258 66.4865L148.33 79.0224L147.678 78.9923L151.83 66.4865L153.585 67.9607L149.032 81.6299H146.655ZM137.81 81.6299V79.4135H139.845V68.7029H137.81V66.4865H144.168L143.375 68.7029H142.212V79.4135H144.328V81.6299H137.81ZM151.298 81.6299V79.4135H153.484V68.7029H152.191L151.83 66.4865H158.058V68.7029H156.022V79.4135H158.058V81.6299H151.298Z"
    fill="#466196"/>
  <defs>
    <clipPath id="clip0">
      <rect width="275.862" height="163" fill="white" transform="translate(7.79395)"/>
    </clipPath>
  </defs>
</svg>
