<svg width="24" height="24" viewBox="0 0 24 24" fill="none" xmlns="http://www.w3.org/2000/svg">
<path fill-rule="evenodd" clip-rule="evenodd" d="M11.4605 2.0029C11.6624 2.00258 11.8795 2.00268 12.1139 2.00278L12.5001 2.0029C15.5942 2.0029 15.961 2.014 17.1828 2.06953C18.3127 2.1212 18.9259 2.30999 19.3344 2.46861C19.8752 2.67865 20.2608 2.92973 20.6661 3.33533C21.0717 3.74092 21.3228 4.12721 21.5333 4.668C21.6919 5.07601 21.881 5.68923 21.9324 6.81911C21.9879 8.04072 22 8.40769 22 11.5004C22 14.593 21.9879 14.96 21.9324 16.1816C21.8807 17.3115 21.6919 17.9247 21.5333 18.3327C21.3233 18.8735 21.0717 19.2586 20.6661 19.6639C20.2605 20.0695 19.8755 20.3206 19.3344 20.5307C18.9264 20.69 18.3127 20.8783 17.1828 20.93C15.9612 20.9855 15.5942 20.9976 12.5001 20.9976C9.40576 20.9976 9.03903 20.9855 7.81742 20.93C6.68754 20.8778 6.07432 20.689 5.66559 20.5304C5.12479 20.3204 4.73851 20.0693 4.33291 19.6637C3.92732 19.2581 3.67623 18.8728 3.46571 18.3318C3.30709 17.9237 3.11806 17.3105 3.06663 16.1806C3.01111 14.959 3 14.5921 3 11.4975C3 8.40286 3.01111 8.03783 3.06663 6.81621C3.1183 5.68634 3.30709 5.07311 3.46571 4.66462C3.67575 4.12383 3.92732 3.73754 4.33291 3.33195C4.73851 2.92635 5.12479 2.67527 5.66559 2.46475C6.07408 2.3054 6.68754 2.11709 7.81742 2.06519C8.88645 2.0169 9.30074 2.00241 11.4605 2V2.0029ZM18.686 3.9272C17.9182 3.9272 17.2954 4.54936 17.2954 5.31734C17.2954 6.08507 17.9182 6.70795 18.686 6.70795C19.4537 6.70795 20.0766 6.08507 20.0766 5.31734C20.0766 4.5496 19.4537 3.92672 18.686 3.92672V3.9272ZM6.54858 11.5035C6.54858 8.21702 9.21307 5.55245 12.4995 5.55232C15.786 5.55232 18.4499 8.21694 18.4499 11.5035C18.4499 14.79 15.7863 17.4534 12.4997 17.4534C9.2132 17.4534 6.54858 14.79 6.54858 11.5035Z" fill="black"/>
<path fill-rule="evenodd" clip-rule="evenodd" d="M12.5 7.21094C14.8703 7.21094 16.7921 9.13242 16.7921 11.503C16.7921 13.8732 14.8703 15.795 12.5 15.795C10.1295 15.795 8.20801 13.8732 8.20801 11.503C8.20801 9.13242 10.1295 7.21094 12.5 7.21094V7.21094Z" fill="black"/>
</svg>
