<svg width="67" height="27" viewBox="0 0 67 27" fill="none" xmlns="http://www.w3.org/2000/svg">
<rect width="67" height="27" fill="#DEDDEF"/>
<path d="M49.2681 12.7174C48.9106 12.8366 48.9106 13.4504 49.2682 13.5694C51.6071 14.348 52.5873 15.4366 53.3153 17.9977C53.4244 18.3817 53.9791 18.3817 54.0883 17.9977C54.8163 15.4366 55.7964 14.348 58.1353 13.5694C58.4929 13.4504 58.4929 12.8368 58.1353 12.7178C55.796 11.939 54.8159 10.8502 54.0878 8.28798C53.9788 7.90409 53.4243 7.90398 53.3151 8.28781C52.5871 10.8454 51.6068 11.9376 49.2681 12.7174Z" fill="#FEFBF4"/>
<path d="M15.89 17.7139L11.55 10.1239H13.27L17.61 17.7139H15.89ZM10.255 11.4489V10.1239H13.265L12.995 11.9989H12.5V16.3889H13.41V17.7139H10.255V16.3889H11.165V11.4489H10.255ZM15.635 11.4489V10.1239H18.79V11.4489H17.88V17.7139H16.45L15.945 15.6339H16.545V11.4489H15.635ZM26.126 13.2889V14.4939H22.906V13.2889H26.126ZM27.001 15.0989H28.561V17.7139H21.171V16.3889H22.086V11.4489H21.171V10.1239H28.471V12.7389H26.911V11.4489H23.646V16.3889H27.001V15.0989ZM39.9324 10.1239H43.0474V11.4489H42.4424L40.4824 17.7139H38.5624L36.5924 11.4489L37.6124 13.1789H36.6724L37.6324 11.4489L35.5824 17.7139H33.6724L31.7074 11.4489H31.1074V10.1239H34.4374V11.4489H33.3524L35.2224 17.7139L34.1074 16.0139H35.2974L34.2274 17.7139L36.3374 11.4489H35.3524V10.1239H39.0474V11.4489H38.0974L40.1874 17.7139L39.0424 16.0139H40.2674L39.1974 17.7139L41.0774 11.4489H39.9324V10.1239Z" fill="#4667A6"/>
</svg>
