<svg width="383" height="203" viewBox="0 0 383 203" fill="none" xmlns="http://www.w3.org/2000/svg">
<path d="M209.309 48.9946C216.944 62.2189 213.922 80.0589 202.622 98.3037C191.335 116.528 171.852 135.036 146.835 149.48C121.819 163.923 96.0488 171.542 74.6221 172.205C53.1719 172.868 36.211 166.565 28.576 153.341C20.9409 140.116 23.9629 122.276 35.2625 104.032C46.5497 85.8069 66.033 67.2989 91.0494 52.8557C116.066 38.4124 141.836 30.7934 163.263 30.1308C184.713 29.4675 201.674 35.7704 209.309 48.9946Z" stroke="#FFDECF"/>
<path d="M88.721 86.33H91.492V108.243H96.422V112H82.261V108.243H87.208V88.455L88.721 86.33ZM82.414 89.169H84.216C84.8733 89.169 85.4457 89.0557 85.933 88.829C86.4317 88.6023 86.834 88.2793 87.14 87.86C87.446 87.4293 87.6443 86.9193 87.735 86.33H89.095L88.007 90.444H87.055C86.749 91.4753 86.307 92.2007 85.729 92.62C85.1623 93.028 84.42 93.232 83.502 93.232H82.414V89.169Z" fill="#4667A6"/>
<path d="M131.385 91.431V90.472H135.872V91.431H134.122V100.041H139.379V101H131.385V100.041H133.079V91.431H131.385ZM140.009 97.486V101H138.959V97.486H140.009ZM146.379 101.133C145.605 101.133 144.926 100.97 144.342 100.643C143.759 100.312 143.304 99.859 142.977 99.285C142.651 98.711 142.487 98.0483 142.487 97.297C142.487 96.541 142.651 95.8713 142.977 95.288C143.304 94.7 143.759 94.2403 144.342 93.909C144.926 93.5777 145.605 93.412 146.379 93.412C147.154 93.412 147.833 93.5777 148.416 93.909C149 94.2403 149.455 94.7 149.781 95.288C150.108 95.8713 150.271 96.541 150.271 97.297C150.271 98.0483 150.108 98.711 149.781 99.285C149.455 99.859 149 100.312 148.416 100.643C147.833 100.97 147.154 101.133 146.379 101.133ZM146.379 100.202C146.939 100.202 147.432 100.081 147.856 99.838C148.286 99.5953 148.619 99.257 148.857 98.823C149.1 98.3843 149.221 97.8757 149.221 97.297C149.221 96.7137 149.1 96.2003 148.857 95.757C148.619 95.3137 148.286 94.9683 147.856 94.721C147.432 94.469 146.939 94.343 146.379 94.343C145.819 94.343 145.325 94.469 144.895 94.721C144.471 94.9683 144.137 95.3137 143.894 95.757C143.656 96.2003 143.537 96.7137 143.537 97.297C143.537 97.8757 143.656 98.3843 143.894 98.823C144.137 99.257 144.471 99.5953 144.895 99.838C145.325 100.081 145.819 100.202 146.379 100.202ZM155.655 100.132H157.111V101H153.114V100.132H154.647V94.413H153.114V93.545H155.655V100.132ZM158.518 94.616C158.434 94.5927 158.343 94.574 158.245 94.56C158.151 94.546 158.049 94.539 157.937 94.539C157.246 94.539 156.693 94.798 156.278 95.316C155.862 95.8293 155.655 96.5433 155.655 97.458L155.417 95.827H155.704C155.769 95.3323 155.904 94.9077 156.11 94.553C156.315 94.1937 156.581 93.9183 156.908 93.727C157.239 93.531 157.626 93.433 158.07 93.433C158.154 93.433 158.228 93.4377 158.294 93.447C158.364 93.4517 158.438 93.461 158.518 93.475V94.616ZM164.606 101.133C163.836 101.133 163.168 100.97 162.604 100.643C162.039 100.316 161.603 99.866 161.295 99.292C160.987 98.7133 160.833 98.0483 160.833 97.297C160.833 96.5363 160.987 95.8643 161.295 95.281C161.607 94.6977 162.041 94.2403 162.597 93.909C163.157 93.5777 163.808 93.412 164.55 93.412C165.296 93.412 165.943 93.5753 166.489 93.902C167.035 94.2287 167.455 94.6813 167.749 95.26C168.043 95.8387 168.19 96.506 168.19 97.262C168.19 97.3507 168.187 97.4207 168.183 97.472C168.183 97.5233 168.178 97.5677 168.169 97.605H167.175C167.179 97.549 167.182 97.4883 167.182 97.423C167.186 97.353 167.189 97.2737 167.189 97.185C167.189 96.6297 167.081 96.1373 166.867 95.708C166.657 95.274 166.356 94.9333 165.964 94.686C165.572 94.4387 165.1 94.315 164.55 94.315C164.013 94.315 163.542 94.4433 163.136 94.7C162.73 94.952 162.415 95.302 162.191 95.75C161.967 96.1933 161.855 96.709 161.855 97.297C161.855 97.8663 161.964 98.3703 162.184 98.809C162.408 99.243 162.725 99.5837 163.136 99.831C163.546 100.078 164.034 100.202 164.599 100.202C165.187 100.202 165.695 100.064 166.125 99.789C166.559 99.509 166.881 99.1287 167.091 98.648L168.043 99.005C167.767 99.663 167.326 100.183 166.72 100.566C166.118 100.944 165.413 101.133 164.606 101.133ZM161.47 97.605V96.828H167.868L168.162 97.605H161.47ZM181.298 101V100.132H182.614V96.219C182.614 95.6077 182.479 95.1293 182.208 94.784C181.938 94.4387 181.515 94.266 180.941 94.266C180.479 94.266 180.069 94.3873 179.709 94.63C179.35 94.8727 179.068 95.2203 178.862 95.673C178.657 96.1257 178.554 96.6693 178.554 97.304L178.309 95.806H178.596C178.713 94.994 179.014 94.3873 179.499 93.986C179.989 93.5847 180.584 93.384 181.284 93.384C182.073 93.384 182.659 93.6173 183.041 94.084C183.429 94.5507 183.622 95.2087 183.622 96.058V100.132H185.05V101H181.298ZM170.98 101V100.132H172.471V94.413H170.98V93.545H173.479V100.132H174.802V101H170.98ZM176.23 101V100.132H177.546V96.219C177.546 95.6077 177.411 95.1293 177.14 94.784C176.87 94.4387 176.447 94.266 175.873 94.266C175.411 94.266 175.001 94.3873 174.641 94.63C174.282 94.8727 173.997 95.2203 173.787 95.673C173.582 96.1257 173.479 96.6693 173.479 97.304L173.241 95.806H173.528C173.64 94.994 173.941 94.3873 174.431 93.986C174.921 93.5847 175.516 93.384 176.216 93.384C177.005 93.384 177.591 93.6173 177.973 94.084C178.361 94.5507 178.554 95.2087 178.554 96.058V100.132H179.982V101H176.23ZM195.71 100.132H197.145V101H193.19V100.132H194.702V94.413H193.19V93.545H195.71V100.132ZM194.513 90.402H195.801V91.739H194.513V90.402ZM199.458 103.94V103.072H200.949V94.413H199.458V93.545H201.957V96.212L201.929 97.01V97.451L201.957 98.081V103.072H203.42V103.94H199.458ZM204.771 101.14C204.155 101.14 203.602 101.005 203.112 100.734C202.626 100.463 202.225 100.078 201.908 99.579C201.59 99.075 201.38 98.473 201.278 97.773L201.929 97.29C201.929 97.864 202.038 98.3727 202.258 98.816C202.477 99.2547 202.792 99.6 203.203 99.852C203.613 100.104 204.101 100.23 204.666 100.23C205.221 100.23 205.704 100.104 206.115 99.852C206.525 99.6 206.84 99.2523 207.06 98.809C207.284 98.361 207.396 97.85 207.396 97.276C207.396 96.6927 207.281 96.1793 207.053 95.736C206.824 95.2927 206.504 94.945 206.094 94.693C205.683 94.4363 205.207 94.308 204.666 94.308C204.11 94.308 203.627 94.4363 203.217 94.693C202.806 94.945 202.489 95.295 202.265 95.743C202.041 96.191 201.929 96.7067 201.929 97.29L201.768 95.701H202.006C202.09 95.2903 202.253 94.9123 202.496 94.567C202.738 94.217 203.058 93.937 203.455 93.727C203.856 93.5123 204.332 93.405 204.883 93.405C205.405 93.405 205.884 93.5007 206.318 93.692C206.752 93.8787 207.125 94.147 207.438 94.497C207.755 94.8423 208 95.2507 208.173 95.722C208.35 96.1933 208.439 96.7113 208.439 97.276C208.439 98.0273 208.287 98.6947 207.984 99.278C207.68 99.8613 207.253 100.319 206.703 100.65C206.157 100.977 205.513 101.14 204.771 101.14ZM214.989 101.133C214.49 101.133 214.068 101.058 213.722 100.909C213.382 100.76 213.111 100.561 212.91 100.314C212.71 100.062 212.579 99.782 212.518 99.474H212.266L212.469 98.648C212.558 99.138 212.801 99.537 213.197 99.845C213.599 100.153 214.119 100.307 214.758 100.307C215.304 100.307 215.727 100.197 216.025 99.978C216.329 99.754 216.48 99.4297 216.48 99.005C216.48 98.6177 216.331 98.3167 216.032 98.102C215.734 97.8873 215.211 97.724 214.464 97.612C213.396 97.444 212.635 97.1803 212.182 96.821C211.73 96.457 211.503 95.9787 211.503 95.386C211.503 94.7887 211.711 94.3103 212.126 93.951C212.542 93.5917 213.12 93.412 213.862 93.412C214.352 93.412 214.756 93.4867 215.073 93.636C215.395 93.7853 215.643 93.986 215.815 94.238C215.988 94.4853 216.1 94.7583 216.151 95.057H216.403L216.2 95.848C216.116 95.372 215.888 94.9847 215.514 94.686C215.141 94.3827 214.653 94.231 214.051 94.231C213.566 94.231 213.186 94.3337 212.91 94.539C212.64 94.7443 212.504 95.0173 212.504 95.358C212.504 95.7173 212.675 95.9997 213.015 96.205C213.356 96.4057 213.893 96.5643 214.625 96.681C215.661 96.8443 216.396 97.1127 216.83 97.486C217.264 97.8593 217.481 98.3633 217.481 98.998C217.481 99.6653 217.267 100.188 216.837 100.566C216.413 100.944 215.797 101.133 214.989 101.133ZM211.461 101V98.648H212.469V101H211.461ZM216.2 95.848V93.545H217.208V95.848H216.2ZM226.496 94.413H225.054V93.545H227.504V100.132H228.96V101H226.496V94.413ZM222.331 93.545V98.298C222.331 98.9093 222.466 99.3923 222.737 99.747C223.012 100.097 223.444 100.272 224.032 100.272C224.503 100.272 224.923 100.153 225.292 99.915C225.665 99.6723 225.959 99.3247 226.174 98.872C226.388 98.4193 226.496 97.8757 226.496 97.241L226.741 98.732H226.447C226.321 99.5347 226.008 100.141 225.509 100.552C225.014 100.958 224.405 101.161 223.682 101.161C222.879 101.161 222.284 100.923 221.897 100.447C221.514 99.971 221.323 99.3107 221.323 98.466V94.413H219.972V93.545H222.331ZM241.747 101V100.132H243.063V96.219C243.063 95.6077 242.928 95.1293 242.657 94.784C242.386 94.4387 241.964 94.266 241.39 94.266C240.928 94.266 240.517 94.3873 240.158 94.63C239.799 94.8727 239.516 95.2203 239.311 95.673C239.106 96.1257 239.003 96.6693 239.003 97.304L238.758 95.806H239.045C239.162 94.994 239.463 94.3873 239.948 93.986C240.438 93.5847 241.033 93.384 241.733 93.384C242.522 93.384 243.107 93.6173 243.49 94.084C243.877 94.5507 244.071 95.2087 244.071 96.058V100.132H245.499V101H241.747ZM231.429 101V100.132H232.92V94.413H231.429V93.545H233.928V100.132H235.251V101H231.429ZM236.679 101V100.132H237.995V96.219C237.995 95.6077 237.86 95.1293 237.589 94.784C237.318 94.4387 236.896 94.266 236.322 94.266C235.86 94.266 235.449 94.3873 235.09 94.63C234.731 94.8727 234.446 95.2203 234.236 95.673C234.031 96.1257 233.928 96.6693 233.928 97.304L233.69 95.806H233.977C234.089 94.994 234.39 94.3873 234.88 93.986C235.37 93.5847 235.965 93.384 236.665 93.384C237.454 93.384 238.039 93.6173 238.422 94.084C238.809 94.5507 239.003 95.2087 239.003 96.058V100.132H240.431V101H236.679ZM260.113 101V98.214L260.155 97.668V96.779L260.113 95.799V90.808H258.104V89.94H261.121V100.132H262.549V101H260.113ZM257.306 93.405C257.922 93.405 258.473 93.5403 258.958 93.811C259.448 94.0817 259.852 94.469 260.169 94.973C260.487 95.4723 260.697 96.072 260.799 96.772L260.155 97.255C260.155 96.681 260.043 96.1723 259.819 95.729C259.6 95.2857 259.285 94.9403 258.874 94.693C258.464 94.441 257.976 94.315 257.411 94.315C256.856 94.315 256.373 94.441 255.962 94.693C255.552 94.945 255.234 95.2927 255.01 95.736C254.791 96.1793 254.681 96.6927 254.681 97.276C254.681 97.8547 254.796 98.3657 255.024 98.809C255.253 99.2523 255.573 99.6023 255.983 99.859C256.399 100.111 256.875 100.237 257.411 100.237C257.971 100.237 258.454 100.111 258.86 99.859C259.271 99.6023 259.588 99.25 259.812 98.802C260.041 98.354 260.155 97.8383 260.155 97.255L260.309 98.844H260.071C259.987 99.2547 259.824 99.635 259.581 99.985C259.339 100.33 259.019 100.61 258.622 100.825C258.226 101.035 257.75 101.14 257.194 101.14C256.676 101.14 256.2 101.047 255.766 100.86C255.332 100.669 254.957 100.4 254.639 100.055C254.322 99.705 254.075 99.2943 253.897 98.823C253.725 98.3517 253.638 97.836 253.638 97.276C253.638 96.52 253.79 95.8503 254.093 95.267C254.397 94.6837 254.821 94.2287 255.367 93.902C255.918 93.5707 256.564 93.405 257.306 93.405ZM268.917 101.133C268.143 101.133 267.464 100.97 266.88 100.643C266.297 100.312 265.842 99.859 265.515 99.285C265.189 98.711 265.025 98.0483 265.025 97.297C265.025 96.541 265.189 95.8713 265.515 95.288C265.842 94.7 266.297 94.2403 266.88 93.909C267.464 93.5777 268.143 93.412 268.917 93.412C269.692 93.412 270.371 93.5777 270.954 93.909C271.538 94.2403 271.993 94.7 272.319 95.288C272.646 95.8713 272.809 96.541 272.809 97.297C272.809 98.0483 272.646 98.711 272.319 99.285C271.993 99.859 271.538 100.312 270.954 100.643C270.371 100.97 269.692 101.133 268.917 101.133ZM268.917 100.202C269.477 100.202 269.97 100.081 270.394 99.838C270.824 99.5953 271.157 99.257 271.395 98.823C271.638 98.3843 271.759 97.8757 271.759 97.297C271.759 96.7137 271.638 96.2003 271.395 95.757C271.157 95.3137 270.824 94.9683 270.394 94.721C269.97 94.469 269.477 94.343 268.917 94.343C268.357 94.343 267.863 94.469 267.433 94.721C267.009 94.9683 266.675 95.3137 266.432 95.757C266.194 96.2003 266.075 96.7137 266.075 97.297C266.075 97.8757 266.194 98.3843 266.432 98.823C266.675 99.257 267.009 99.5953 267.433 99.838C267.863 100.081 268.357 100.202 268.917 100.202ZM277.827 100.132H279.36V101H275.286V100.132H276.819V90.808H275.286V89.94H277.827V100.132ZM285.663 101.133C284.888 101.133 284.209 100.97 283.626 100.643C283.042 100.312 282.587 99.859 282.261 99.285C281.934 98.711 281.771 98.0483 281.771 97.297C281.771 96.541 281.934 95.8713 282.261 95.288C282.587 94.7 283.042 94.2403 283.626 93.909C284.209 93.5777 284.888 93.412 285.663 93.412C286.437 93.412 287.116 93.5777 287.7 93.909C288.283 94.2403 288.738 94.7 289.065 95.288C289.391 95.8713 289.555 96.541 289.555 97.297C289.555 98.0483 289.391 98.711 289.065 99.285C288.738 99.859 288.283 100.312 287.7 100.643C287.116 100.97 286.437 101.133 285.663 101.133ZM285.663 100.202C286.223 100.202 286.715 100.081 287.14 99.838C287.569 99.5953 287.903 99.257 288.141 98.823C288.383 98.3843 288.505 97.8757 288.505 97.297C288.505 96.7137 288.383 96.2003 288.141 95.757C287.903 95.3137 287.569 94.9683 287.14 94.721C286.715 94.469 286.223 94.343 285.663 94.343C285.103 94.343 284.608 94.469 284.179 94.721C283.754 94.9683 283.42 95.3137 283.178 95.757C282.94 96.2003 282.821 96.7137 282.821 97.297C282.821 97.8757 282.94 98.3843 283.178 98.823C283.42 99.257 283.754 99.5953 284.179 99.838C284.608 100.081 285.103 100.202 285.663 100.202ZM294.938 100.132H296.394V101H292.397V100.132H293.93V94.413H292.397V93.545H294.938V100.132ZM297.801 94.616C297.717 94.5927 297.626 94.574 297.528 94.56C297.435 94.546 297.332 94.539 297.22 94.539C296.53 94.539 295.977 94.798 295.561 95.316C295.146 95.8293 294.938 96.5433 294.938 97.458L294.7 95.827H294.987C295.053 95.3323 295.188 94.9077 295.393 94.553C295.599 94.1937 295.865 93.9183 296.191 93.727C296.523 93.531 296.91 93.433 297.353 93.433C297.437 93.433 297.512 93.4377 297.577 93.447C297.647 93.4517 297.722 93.461 297.801 93.475V94.616ZM309.257 101.133C308.758 101.133 308.335 101.058 307.99 100.909C307.649 100.76 307.379 100.561 307.178 100.314C306.977 100.062 306.847 99.782 306.786 99.474H306.534L306.737 98.648C306.826 99.138 307.068 99.537 307.465 99.845C307.866 100.153 308.387 100.307 309.026 100.307C309.572 100.307 309.994 100.197 310.293 99.978C310.596 99.754 310.748 99.4297 310.748 99.005C310.748 98.6177 310.599 98.3167 310.3 98.102C310.001 97.8873 309.479 97.724 308.732 97.612C307.663 97.444 306.903 97.1803 306.45 96.821C305.997 96.457 305.771 95.9787 305.771 95.386C305.771 94.7887 305.979 94.3103 306.394 93.951C306.809 93.5917 307.388 93.412 308.13 93.412C308.62 93.412 309.024 93.4867 309.341 93.636C309.663 93.7853 309.91 93.986 310.083 94.238C310.256 94.4853 310.368 94.7583 310.419 95.057H310.671L310.468 95.848C310.384 95.372 310.155 94.9847 309.782 94.686C309.409 94.3827 308.921 94.231 308.319 94.231C307.834 94.231 307.453 94.3337 307.178 94.539C306.907 94.7443 306.772 95.0173 306.772 95.358C306.772 95.7173 306.942 95.9997 307.283 96.205C307.624 96.4057 308.16 96.5643 308.893 96.681C309.929 96.8443 310.664 97.1127 311.098 97.486C311.532 97.8593 311.749 98.3633 311.749 98.998C311.749 99.6653 311.534 100.188 311.105 100.566C310.68 100.944 310.064 101.133 309.257 101.133ZM305.729 101V98.648H306.737V101H305.729ZM310.468 95.848V93.545H311.476V95.848H310.468ZM317.214 100.132H318.649V101H314.694V100.132H316.206V94.413H314.694V93.545H317.214V100.132ZM316.017 90.402H317.305V91.739H316.017V90.402ZM323.112 99.026C323.112 99.418 323.186 99.7143 323.336 99.915C323.485 100.111 323.714 100.209 324.022 100.209C324.325 100.209 324.554 100.109 324.708 99.908C324.862 99.7027 324.939 99.4087 324.939 99.026V98.333H325.849V99.019C325.849 99.467 325.781 99.8497 325.646 100.167C325.515 100.48 325.314 100.72 325.044 100.888C324.773 101.051 324.425 101.133 324.001 101.133C323.567 101.133 323.21 101.049 322.93 100.881C322.65 100.708 322.442 100.466 322.307 100.153C322.171 99.8403 322.104 99.4647 322.104 99.026L322.111 94.413H320.781V93.545H322.111V91.655H323.119V93.545H325.751L325.744 94.413H323.119L323.112 99.026ZM340.198 101C340.007 101 339.86 100.939 339.757 100.818C339.659 100.697 339.61 100.526 339.61 100.307V98.067L339.701 97.836L339.652 96.989L339.61 96.548V95.981C339.61 95.5983 339.531 95.2857 339.372 95.043C339.218 94.8003 338.994 94.6207 338.7 94.504C338.406 94.3873 338.051 94.329 337.636 94.329C337.015 94.329 336.535 94.4527 336.194 94.7C335.858 94.9427 335.634 95.309 335.522 95.799L334.556 95.596C334.649 95.106 334.824 94.7 335.081 94.378C335.338 94.0513 335.678 93.8087 336.103 93.65C336.532 93.4867 337.055 93.405 337.671 93.405C338.315 93.405 338.854 93.496 339.288 93.678C339.727 93.8553 340.058 94.1283 340.282 94.497C340.506 94.8657 340.618 95.3417 340.618 95.925V100.132H341.717V101H340.198ZM336.684 101.098C335.909 101.098 335.321 100.928 334.92 100.587C334.519 100.242 334.318 99.7353 334.318 99.068C334.318 98.452 334.495 97.983 334.85 97.661C335.205 97.3343 335.774 97.0893 336.558 96.926L339.911 96.212V96.933L336.726 97.654C336.269 97.7613 335.926 97.92 335.697 98.13C335.473 98.3353 335.361 98.627 335.361 99.005C335.361 99.4157 335.487 99.7237 335.739 99.929C335.991 100.13 336.36 100.23 336.845 100.23C337.382 100.23 337.862 100.106 338.287 99.859C338.712 99.6117 339.045 99.2477 339.288 98.767C339.531 98.2863 339.652 97.6937 339.652 96.989L339.918 98.641H339.561C339.444 99.4203 339.141 100.025 338.651 100.454C338.166 100.883 337.51 101.098 336.684 101.098ZM354.584 101V100.132H355.9V96.219C355.9 95.6077 355.764 95.1293 355.494 94.784C355.223 94.4387 354.801 94.266 354.227 94.266C353.765 94.266 353.354 94.3873 352.995 94.63C352.635 94.8727 352.353 95.2203 352.148 95.673C351.942 96.1257 351.84 96.6693 351.84 97.304L351.595 95.806H351.882C351.998 94.994 352.299 94.3873 352.785 93.986C353.275 93.5847 353.87 93.384 354.57 93.384C355.358 93.384 355.944 93.6173 356.327 94.084C356.714 94.5507 356.908 95.2087 356.908 96.058V100.132H358.336V101H354.584ZM344.266 101V100.132H345.757V94.413H344.266V93.545H346.765V100.132H348.088V101H344.266ZM349.516 101V100.132H350.832V96.219C350.832 95.6077 350.696 95.1293 350.426 94.784C350.155 94.4387 349.733 94.266 349.159 94.266C348.697 94.266 348.286 94.3873 347.927 94.63C347.567 94.8727 347.283 95.2203 347.073 95.673C346.867 96.1257 346.765 96.6693 346.765 97.304L346.527 95.806H346.814C346.926 94.994 347.227 94.3873 347.717 93.986C348.207 93.5847 348.802 93.384 349.502 93.384C350.29 93.384 350.876 93.6173 351.259 94.084C351.646 94.5507 351.84 95.2087 351.84 96.058V100.132H353.268V101H349.516ZM364.576 101.133C363.806 101.133 363.139 100.97 362.574 100.643C362.009 100.316 361.573 99.866 361.265 99.292C360.957 98.7133 360.803 98.0483 360.803 97.297C360.803 96.5363 360.957 95.8643 361.265 95.281C361.578 94.6977 362.012 94.2403 362.567 93.909C363.127 93.5777 363.778 93.412 364.52 93.412C365.267 93.412 365.913 93.5753 366.459 93.902C367.005 94.2287 367.425 94.6813 367.719 95.26C368.013 95.8387 368.16 96.506 368.16 97.262C368.16 97.3507 368.158 97.4207 368.153 97.472C368.153 97.5233 368.148 97.5677 368.139 97.605H367.145C367.15 97.549 367.152 97.4883 367.152 97.423C367.157 97.353 367.159 97.2737 367.159 97.185C367.159 96.6297 367.052 96.1373 366.837 95.708C366.627 95.274 366.326 94.9333 365.934 94.686C365.542 94.4387 365.071 94.315 364.52 94.315C363.983 94.315 363.512 94.4433 363.106 94.7C362.7 94.952 362.385 95.302 362.161 95.75C361.937 96.1933 361.825 96.709 361.825 97.297C361.825 97.8663 361.935 98.3703 362.154 98.809C362.378 99.243 362.695 99.5837 363.106 99.831C363.517 100.078 364.004 100.202 364.569 100.202C365.157 100.202 365.666 100.064 366.095 99.789C366.529 99.509 366.851 99.1287 367.061 98.648L368.013 99.005C367.738 99.663 367.297 100.183 366.69 100.566C366.088 100.944 365.383 101.133 364.576 101.133ZM361.44 97.605V96.828H367.838L368.132 97.605H361.44ZM372.945 99.026C372.945 99.418 373.02 99.7143 373.169 99.915C373.319 100.111 373.547 100.209 373.855 100.209C374.159 100.209 374.387 100.109 374.541 99.908C374.695 99.7027 374.772 99.4087 374.772 99.026V98.333H375.682V99.019C375.682 99.467 375.615 99.8497 375.479 100.167C375.349 100.48 375.148 100.72 374.877 100.888C374.607 101.051 374.259 101.133 373.834 101.133C373.4 101.133 373.043 101.049 372.763 100.881C372.483 100.708 372.276 100.466 372.14 100.153C372.005 99.8403 371.937 99.4647 371.937 99.026L371.944 94.413H370.614V93.545H371.944V91.655H372.952V93.545H375.584L375.577 94.413H372.952L372.945 99.026ZM378.577 99.579H380.04V101H378.577V99.579ZM379.347 99.852H380.04V101.539C380.04 101.996 379.907 102.351 379.641 102.603C379.375 102.855 379.018 102.981 378.57 102.981V102.337C378.812 102.337 379.001 102.272 379.137 102.141C379.277 102.015 379.347 101.814 379.347 101.539V99.852ZM135.62 124.133C134.845 124.133 134.171 123.97 133.597 123.643C133.028 123.316 132.584 122.866 132.267 122.292C131.954 121.713 131.798 121.048 131.798 120.297C131.798 119.728 131.884 119.207 132.057 118.736C132.23 118.26 132.477 117.849 132.799 117.504C133.121 117.154 133.504 116.886 133.947 116.699C134.39 116.508 134.885 116.412 135.431 116.412C135.958 116.412 136.397 116.498 136.747 116.671C137.102 116.839 137.377 117.072 137.573 117.371C137.769 117.665 137.895 118.003 137.951 118.386H138.196L137.993 119.443C137.932 119.023 137.795 118.654 137.58 118.337C137.365 118.015 137.085 117.765 136.74 117.588C136.395 117.406 135.996 117.315 135.543 117.315C135.002 117.315 134.526 117.443 134.115 117.7C133.709 117.952 133.392 118.302 133.163 118.75C132.939 119.193 132.827 119.709 132.827 120.297C132.827 120.866 132.941 121.37 133.17 121.809C133.403 122.243 133.728 122.584 134.143 122.831C134.563 123.078 135.058 123.202 135.627 123.202C136.215 123.202 136.721 123.074 137.146 122.817C137.571 122.556 137.881 122.206 138.077 121.767L139.008 122.18C138.742 122.782 138.315 123.258 137.727 123.608C137.144 123.958 136.441 124.133 135.62 124.133ZM137.993 119.443V116.545H139.001V119.443H137.993ZM145.805 124.133C145.03 124.133 144.351 123.97 143.768 123.643C143.185 123.312 142.73 122.859 142.403 122.285C142.076 121.711 141.913 121.048 141.913 120.297C141.913 119.541 142.076 118.871 142.403 118.288C142.73 117.7 143.185 117.24 143.768 116.909C144.351 116.578 145.03 116.412 145.805 116.412C146.58 116.412 147.259 116.578 147.842 116.909C148.425 117.24 148.88 117.7 149.207 118.288C149.534 118.871 149.697 119.541 149.697 120.297C149.697 121.048 149.534 121.711 149.207 122.285C148.88 122.859 148.425 123.312 147.842 123.643C147.259 123.97 146.58 124.133 145.805 124.133ZM145.805 123.202C146.365 123.202 146.857 123.081 147.282 122.838C147.711 122.595 148.045 122.257 148.283 121.823C148.526 121.384 148.647 120.876 148.647 120.297C148.647 119.714 148.526 119.2 148.283 118.757C148.045 118.314 147.711 117.968 147.282 117.721C146.857 117.469 146.365 117.343 145.805 117.343C145.245 117.343 144.75 117.469 144.321 117.721C143.896 117.968 143.563 118.314 143.32 118.757C143.082 119.2 142.963 119.714 142.963 120.297C142.963 120.876 143.082 121.384 143.32 121.823C143.563 122.257 143.896 122.595 144.321 122.838C144.75 123.081 145.245 123.202 145.805 123.202ZM155.081 123.132H156.411V124H152.54V123.132H154.073V117.413H152.54V116.545H155.081V123.132ZM159.379 123.132V119.233C159.379 118.622 159.241 118.141 158.966 117.791C158.69 117.441 158.256 117.266 157.664 117.266C157.183 117.266 156.747 117.385 156.355 117.623C155.963 117.861 155.652 118.206 155.424 118.659C155.195 119.112 155.081 119.66 155.081 120.304L154.85 118.813H155.13C155.218 118.304 155.389 117.873 155.641 117.518C155.893 117.159 156.215 116.886 156.607 116.699C157.003 116.508 157.458 116.412 157.972 116.412C158.784 116.412 159.388 116.648 159.785 117.119C160.186 117.586 160.387 118.246 160.387 119.1V123.132H161.822V124H158.07V123.132H159.379ZM167.931 124.133C167.431 124.133 167.009 124.058 166.664 123.909C166.323 123.76 166.052 123.561 165.852 123.314C165.651 123.062 165.52 122.782 165.46 122.474H165.208L165.411 121.648C165.499 122.138 165.742 122.537 166.139 122.845C166.54 123.153 167.06 123.307 167.7 123.307C168.246 123.307 168.668 123.197 168.967 122.978C169.27 122.754 169.422 122.43 169.422 122.005C169.422 121.618 169.272 121.317 168.974 121.102C168.675 120.887 168.152 120.724 167.406 120.612C166.337 120.444 165.576 120.18 165.124 119.821C164.671 119.457 164.445 118.979 164.445 118.386C164.445 117.789 164.652 117.31 165.068 116.951C165.483 116.592 166.062 116.412 166.804 116.412C167.294 116.412 167.697 116.487 168.015 116.636C168.337 116.785 168.584 116.986 168.757 117.238C168.929 117.485 169.041 117.758 169.093 118.057H169.345L169.142 118.848C169.058 118.372 168.829 117.985 168.456 117.686C168.082 117.383 167.595 117.231 166.993 117.231C166.507 117.231 166.127 117.334 165.852 117.539C165.581 117.744 165.446 118.017 165.446 118.358C165.446 118.717 165.616 119 165.957 119.205C166.297 119.406 166.834 119.564 167.567 119.681C168.603 119.844 169.338 120.113 169.772 120.486C170.206 120.859 170.423 121.363 170.423 121.998C170.423 122.665 170.208 123.188 169.779 123.566C169.354 123.944 168.738 124.133 167.931 124.133ZM164.403 124V121.648H165.411V124H164.403ZM169.142 118.848V116.545H170.15V118.848H169.142ZM177.162 124.133C176.392 124.133 175.725 123.97 175.16 123.643C174.595 123.316 174.159 122.866 173.851 122.292C173.543 121.713 173.389 121.048 173.389 120.297C173.389 119.536 173.543 118.864 173.851 118.281C174.164 117.698 174.598 117.24 175.153 116.909C175.713 116.578 176.364 116.412 177.106 116.412C177.853 116.412 178.499 116.575 179.045 116.902C179.591 117.229 180.011 117.681 180.305 118.26C180.599 118.839 180.746 119.506 180.746 120.262C180.746 120.351 180.744 120.421 180.739 120.472C180.739 120.523 180.734 120.568 180.725 120.605H179.731C179.736 120.549 179.738 120.488 179.738 120.423C179.743 120.353 179.745 120.274 179.745 120.185C179.745 119.63 179.638 119.137 179.423 118.708C179.213 118.274 178.912 117.933 178.52 117.686C178.128 117.439 177.657 117.315 177.106 117.315C176.569 117.315 176.098 117.443 175.692 117.7C175.286 117.952 174.971 118.302 174.747 118.75C174.523 119.193 174.411 119.709 174.411 120.297C174.411 120.866 174.521 121.37 174.74 121.809C174.964 122.243 175.281 122.584 175.692 122.831C176.103 123.078 176.59 123.202 177.155 123.202C177.743 123.202 178.252 123.064 178.681 122.789C179.115 122.509 179.437 122.129 179.647 121.648L180.599 122.005C180.324 122.663 179.883 123.183 179.276 123.566C178.674 123.944 177.969 124.133 177.162 124.133ZM174.026 120.605V119.828H180.424L180.718 120.605H174.026ZM187.477 124.133C186.703 124.133 186.028 123.97 185.454 123.643C184.885 123.316 184.442 122.866 184.124 122.292C183.812 121.713 183.655 121.048 183.655 120.297C183.655 119.728 183.742 119.207 183.914 118.736C184.087 118.26 184.334 117.849 184.656 117.504C184.978 117.154 185.361 116.886 185.804 116.699C186.248 116.508 186.742 116.412 187.288 116.412C187.816 116.412 188.254 116.498 188.604 116.671C188.959 116.839 189.234 117.072 189.43 117.371C189.626 117.665 189.752 118.003 189.808 118.386H190.053L189.85 119.443C189.79 119.023 189.652 118.654 189.437 118.337C189.223 118.015 188.943 117.765 188.597 117.588C188.252 117.406 187.853 117.315 187.4 117.315C186.859 117.315 186.383 117.443 185.972 117.7C185.566 117.952 185.249 118.302 185.02 118.75C184.796 119.193 184.684 119.709 184.684 120.297C184.684 120.866 184.799 121.37 185.027 121.809C185.261 122.243 185.585 122.584 186 122.831C186.42 123.078 186.915 123.202 187.484 123.202C188.072 123.202 188.579 123.074 189.003 122.817C189.428 122.556 189.738 122.206 189.934 121.767L190.865 122.18C190.599 122.782 190.172 123.258 189.584 123.608C189.001 123.958 188.299 124.133 187.477 124.133ZM189.85 119.443V116.545H190.858V119.443H189.85ZM195.681 122.026C195.681 122.418 195.756 122.714 195.905 122.915C196.055 123.111 196.283 123.209 196.591 123.209C196.895 123.209 197.123 123.109 197.277 122.908C197.431 122.703 197.508 122.409 197.508 122.026V121.333H198.418V122.019C198.418 122.467 198.351 122.85 198.215 123.167C198.085 123.48 197.884 123.72 197.613 123.888C197.343 124.051 196.995 124.133 196.57 124.133C196.136 124.133 195.779 124.049 195.499 123.881C195.219 123.708 195.012 123.466 194.876 123.153C194.741 122.84 194.673 122.465 194.673 122.026L194.68 117.413H193.35V116.545H194.68V114.655H195.688V116.545H198.32L198.313 117.413H195.688L195.681 122.026ZM204.946 124.133C204.176 124.133 203.509 123.97 202.944 123.643C202.379 123.316 201.943 122.866 201.635 122.292C201.327 121.713 201.173 121.048 201.173 120.297C201.173 119.536 201.327 118.864 201.635 118.281C201.948 117.698 202.382 117.24 202.937 116.909C203.497 116.578 204.148 116.412 204.89 116.412C205.637 116.412 206.283 116.575 206.829 116.902C207.375 117.229 207.795 117.681 208.089 118.26C208.383 118.839 208.53 119.506 208.53 120.262C208.53 120.351 208.528 120.421 208.523 120.472C208.523 120.523 208.518 120.568 208.509 120.605H207.515C207.52 120.549 207.522 120.488 207.522 120.423C207.527 120.353 207.529 120.274 207.529 120.185C207.529 119.63 207.422 119.137 207.207 118.708C206.997 118.274 206.696 117.933 206.304 117.686C205.912 117.439 205.441 117.315 204.89 117.315C204.353 117.315 203.882 117.443 203.476 117.7C203.07 117.952 202.755 118.302 202.531 118.75C202.307 119.193 202.195 119.709 202.195 120.297C202.195 120.866 202.305 121.37 202.524 121.809C202.748 122.243 203.065 122.584 203.476 122.831C203.887 123.078 204.374 123.202 204.939 123.202C205.527 123.202 206.036 123.064 206.465 122.789C206.899 122.509 207.221 122.129 207.431 121.648L208.383 122.005C208.108 122.663 207.667 123.183 207.06 123.566C206.458 123.944 205.753 124.133 204.946 124.133ZM201.81 120.605V119.828H208.208L208.502 120.605H201.81ZM213.315 122.026C213.315 122.418 213.39 122.714 213.539 122.915C213.689 123.111 213.917 123.209 214.225 123.209C214.529 123.209 214.757 123.109 214.911 122.908C215.065 122.703 215.142 122.409 215.142 122.026V121.333H216.052V122.019C216.052 122.467 215.985 122.85 215.849 123.167C215.719 123.48 215.518 123.72 215.247 123.888C214.977 124.051 214.629 124.133 214.204 124.133C213.77 124.133 213.413 124.049 213.133 123.881C212.853 123.708 212.646 123.466 212.51 123.153C212.375 122.84 212.307 122.465 212.307 122.026L212.314 117.413H210.984V116.545H212.314V114.655H213.322V116.545H215.954L215.947 117.413H213.322L213.315 122.026ZM224.855 117.413H223.413V116.545H225.863V123.132H227.319V124H224.855V117.413ZM220.69 116.545V121.298C220.69 121.909 220.825 122.392 221.096 122.747C221.371 123.097 221.803 123.272 222.391 123.272C222.862 123.272 223.282 123.153 223.651 122.915C224.024 122.672 224.318 122.325 224.533 121.872C224.748 121.419 224.855 120.876 224.855 120.241L225.1 121.732H224.806C224.68 122.535 224.367 123.141 223.868 123.552C223.373 123.958 222.764 124.161 222.041 124.161C221.238 124.161 220.643 123.923 220.256 123.447C219.873 122.971 219.682 122.311 219.682 121.466V117.413H218.331V116.545H220.69ZM233.673 124.133C232.903 124.133 232.236 123.97 231.671 123.643C231.107 123.316 230.67 122.866 230.362 122.292C230.054 121.713 229.9 121.048 229.9 120.297C229.9 119.536 230.054 118.864 230.362 118.281C230.675 117.698 231.109 117.24 231.664 116.909C232.224 116.578 232.875 116.412 233.617 116.412C234.364 116.412 235.01 116.575 235.556 116.902C236.102 117.229 236.522 117.681 236.816 118.26C237.11 118.839 237.257 119.506 237.257 120.262C237.257 120.351 237.255 120.421 237.25 120.472C237.25 120.523 237.246 120.568 237.236 120.605H236.242C236.247 120.549 236.249 120.488 236.249 120.423C236.254 120.353 236.256 120.274 236.256 120.185C236.256 119.63 236.149 119.137 235.934 118.708C235.724 118.274 235.423 117.933 235.031 117.686C234.639 117.439 234.168 117.315 233.617 117.315C233.081 117.315 232.609 117.443 232.203 117.7C231.797 117.952 231.482 118.302 231.258 118.75C231.034 119.193 230.922 119.709 230.922 120.297C230.922 120.866 231.032 121.37 231.251 121.809C231.475 122.243 231.793 122.584 232.203 122.831C232.614 123.078 233.102 123.202 233.666 123.202C234.254 123.202 234.763 123.064 235.192 122.789C235.626 122.509 235.948 122.129 236.158 121.648L237.11 122.005C236.835 122.663 236.394 123.183 235.787 123.566C235.185 123.944 234.481 124.133 233.673 124.133ZM230.537 120.605V119.828H236.935L237.229 120.605H230.537ZM242.589 123.132H244.045V124H240.048V123.132H241.581V117.413H240.048V116.545H242.589V123.132ZM245.452 117.616C245.368 117.593 245.277 117.574 245.179 117.56C245.085 117.546 244.983 117.539 244.871 117.539C244.18 117.539 243.627 117.798 243.212 118.316C242.796 118.829 242.589 119.543 242.589 120.458L242.351 118.827H242.638C242.703 118.332 242.838 117.908 243.044 117.553C243.249 117.194 243.515 116.918 243.842 116.727C244.173 116.531 244.56 116.433 245.004 116.433C245.088 116.433 245.162 116.438 245.228 116.447C245.298 116.452 245.372 116.461 245.452 116.475V117.616ZM259.252 124C259.061 124 258.914 123.939 258.811 123.818C258.713 123.697 258.664 123.526 258.664 123.307V121.067L258.755 120.836L258.706 119.989L258.664 119.548V118.981C258.664 118.598 258.585 118.286 258.426 118.043C258.272 117.8 258.048 117.621 257.754 117.504C257.46 117.387 257.106 117.329 256.69 117.329C256.07 117.329 255.589 117.453 255.248 117.7C254.912 117.943 254.688 118.309 254.576 118.799L253.61 118.596C253.704 118.106 253.879 117.7 254.135 117.378C254.392 117.051 254.733 116.809 255.157 116.65C255.587 116.487 256.109 116.405 256.725 116.405C257.369 116.405 257.908 116.496 258.342 116.678C258.781 116.855 259.112 117.128 259.336 117.497C259.56 117.866 259.672 118.342 259.672 118.925V123.132H260.771V124H259.252ZM255.738 124.098C254.964 124.098 254.376 123.928 253.974 123.587C253.573 123.242 253.372 122.735 253.372 122.068C253.372 121.452 253.55 120.983 253.904 120.661C254.259 120.334 254.828 120.089 255.612 119.926L258.965 119.212V119.933L255.78 120.654C255.323 120.761 254.98 120.92 254.751 121.13C254.527 121.335 254.415 121.627 254.415 122.005C254.415 122.416 254.541 122.724 254.793 122.929C255.045 123.13 255.414 123.23 255.899 123.23C256.436 123.23 256.917 123.106 257.341 122.859C257.766 122.612 258.1 122.248 258.342 121.767C258.585 121.286 258.706 120.694 258.706 119.989L258.972 121.641H258.615C258.499 122.42 258.195 123.025 257.705 123.454C257.22 123.883 256.564 124.098 255.738 124.098ZM269.845 124V121.214L269.887 120.668V119.779L269.845 118.799V113.808H267.836V112.94H270.853V123.132H272.281V124H269.845ZM267.038 116.405C267.654 116.405 268.205 116.54 268.69 116.811C269.18 117.082 269.584 117.469 269.901 117.973C270.218 118.472 270.428 119.072 270.531 119.772L269.887 120.255C269.887 119.681 269.775 119.172 269.551 118.729C269.332 118.286 269.017 117.94 268.606 117.693C268.195 117.441 267.708 117.315 267.143 117.315C266.588 117.315 266.105 117.441 265.694 117.693C265.283 117.945 264.966 118.293 264.742 118.736C264.523 119.179 264.413 119.693 264.413 120.276C264.413 120.855 264.527 121.366 264.756 121.809C264.985 122.252 265.304 122.602 265.715 122.859C266.13 123.111 266.606 123.237 267.143 123.237C267.703 123.237 268.186 123.111 268.592 122.859C269.003 122.602 269.32 122.25 269.544 121.802C269.773 121.354 269.887 120.838 269.887 120.255L270.041 121.844H269.803C269.719 122.255 269.556 122.635 269.313 122.985C269.07 123.33 268.751 123.61 268.354 123.825C267.957 124.035 267.481 124.14 266.926 124.14C266.408 124.14 265.932 124.047 265.498 123.86C265.064 123.669 264.688 123.4 264.371 123.055C264.054 122.705 263.806 122.294 263.629 121.823C263.456 121.352 263.37 120.836 263.37 120.276C263.37 119.52 263.522 118.85 263.825 118.267C264.128 117.684 264.553 117.229 265.099 116.902C265.65 116.571 266.296 116.405 267.038 116.405ZM277.435 123.132H278.87V124H274.915V123.132H276.427V117.413H274.915V116.545H277.435V123.132ZM276.238 113.402H277.526V114.739H276.238V113.402ZM281.183 126.94V126.072H282.674V117.413H281.183V116.545H283.682V119.212L283.654 120.01V120.451L283.682 121.081V126.072H285.145V126.94H281.183ZM286.496 124.14C285.88 124.14 285.327 124.005 284.837 123.734C284.351 123.463 283.95 123.078 283.633 122.579C283.315 122.075 283.105 121.473 283.003 120.773L283.654 120.29C283.654 120.864 283.763 121.373 283.983 121.816C284.202 122.255 284.517 122.6 284.928 122.852C285.338 123.104 285.826 123.23 286.391 123.23C286.946 123.23 287.429 123.104 287.84 122.852C288.25 122.6 288.565 122.252 288.785 121.809C289.009 121.361 289.121 120.85 289.121 120.276C289.121 119.693 289.006 119.179 288.778 118.736C288.549 118.293 288.229 117.945 287.819 117.693C287.408 117.436 286.932 117.308 286.391 117.308C285.835 117.308 285.352 117.436 284.942 117.693C284.531 117.945 284.214 118.295 283.99 118.743C283.766 119.191 283.654 119.707 283.654 120.29L283.493 118.701H283.731C283.815 118.29 283.978 117.912 284.221 117.567C284.463 117.217 284.783 116.937 285.18 116.727C285.581 116.512 286.057 116.405 286.608 116.405C287.13 116.405 287.609 116.501 288.043 116.692C288.477 116.879 288.85 117.147 289.163 117.497C289.48 117.842 289.725 118.251 289.898 118.722C290.075 119.193 290.164 119.711 290.164 120.276C290.164 121.027 290.012 121.695 289.709 122.278C289.405 122.861 288.978 123.319 288.428 123.65C287.882 123.977 287.238 124.14 286.496 124.14ZM295.615 123.132H297.05V124H293.095V123.132H294.607V117.413H293.095V116.545H295.615V123.132ZM294.418 113.402H295.706V114.739H294.418V113.402ZM303.228 124.133C302.728 124.133 302.306 124.058 301.961 123.909C301.62 123.76 301.349 123.561 301.149 123.314C300.948 123.062 300.817 122.782 300.757 122.474H300.505L300.708 121.648C300.796 122.138 301.039 122.537 301.436 122.845C301.837 123.153 302.357 123.307 302.997 123.307C303.543 123.307 303.965 123.197 304.264 122.978C304.567 122.754 304.719 122.43 304.719 122.005C304.719 121.618 304.569 121.317 304.271 121.102C303.972 120.887 303.449 120.724 302.703 120.612C301.634 120.444 300.873 120.18 300.421 119.821C299.968 119.457 299.742 118.979 299.742 118.386C299.742 117.789 299.949 117.31 300.365 116.951C300.78 116.592 301.359 116.412 302.101 116.412C302.591 116.412 302.994 116.487 303.312 116.636C303.634 116.785 303.881 116.986 304.054 117.238C304.226 117.485 304.338 117.758 304.39 118.057H304.642L304.439 118.848C304.355 118.372 304.126 117.985 303.753 117.686C303.379 117.383 302.892 117.231 302.29 117.231C301.804 117.231 301.424 117.334 301.149 117.539C300.878 117.744 300.743 118.017 300.743 118.358C300.743 118.717 300.913 119 301.254 119.205C301.594 119.406 302.131 119.564 302.864 119.681C303.9 119.844 304.635 120.113 305.069 120.486C305.503 120.859 305.72 121.363 305.72 121.998C305.72 122.665 305.505 123.188 305.076 123.566C304.651 123.944 304.035 124.133 303.228 124.133ZM299.7 124V121.648H300.708V124H299.7ZM304.439 118.848V116.545H305.447V118.848H304.439ZM312.515 124.133C311.74 124.133 311.066 123.97 310.492 123.643C309.923 123.316 309.479 122.866 309.162 122.292C308.849 121.713 308.693 121.048 308.693 120.297C308.693 119.728 308.779 119.207 308.952 118.736C309.125 118.26 309.372 117.849 309.694 117.504C310.016 117.154 310.399 116.886 310.842 116.699C311.285 116.508 311.78 116.412 312.326 116.412C312.853 116.412 313.292 116.498 313.642 116.671C313.997 116.839 314.272 117.072 314.468 117.371C314.664 117.665 314.79 118.003 314.846 118.386H315.091L314.888 119.443C314.827 119.023 314.69 118.654 314.475 118.337C314.26 118.015 313.98 117.765 313.635 117.588C313.29 117.406 312.891 117.315 312.438 117.315C311.897 117.315 311.421 117.443 311.01 117.7C310.604 117.952 310.287 118.302 310.058 118.75C309.834 119.193 309.722 119.709 309.722 120.297C309.722 120.866 309.836 121.37 310.065 121.809C310.298 122.243 310.623 122.584 311.038 122.831C311.458 123.078 311.953 123.202 312.522 123.202C313.11 123.202 313.616 123.074 314.041 122.817C314.466 122.556 314.776 122.206 314.972 121.767L315.903 122.18C315.637 122.782 315.21 123.258 314.622 123.608C314.039 123.958 313.336 124.133 312.515 124.133ZM314.888 119.443V116.545H315.896V119.443H314.888ZM321.335 123.132H322.77V124H318.815V123.132H320.327V117.413H318.815V116.545H321.335V123.132ZM320.138 113.402H321.426V114.739H320.138V113.402ZM327.778 123.132H329.108V124H325.237V123.132H326.77V117.413H325.237V116.545H327.778V123.132ZM332.076 123.132V119.233C332.076 118.622 331.939 118.141 331.663 117.791C331.388 117.441 330.954 117.266 330.361 117.266C329.881 117.266 329.444 117.385 329.052 117.623C328.66 117.861 328.35 118.206 328.121 118.659C327.893 119.112 327.778 119.66 327.778 120.304L327.547 118.813H327.827C327.916 118.304 328.086 117.873 328.338 117.518C328.59 117.159 328.912 116.886 329.304 116.699C329.701 116.508 330.156 116.412 330.669 116.412C331.481 116.412 332.086 116.648 332.482 117.119C332.884 117.586 333.084 118.246 333.084 119.1V123.132H334.519V124H330.767V123.132H332.076ZM340.551 127.094C339.898 127.094 339.305 127.031 338.773 126.905C338.246 126.784 337.826 126.59 337.513 126.324C337.201 126.058 337.044 125.706 337.044 125.267C337.044 124.828 337.201 124.495 337.513 124.266C337.831 124.042 338.239 123.895 338.738 123.825V123.706L339.984 123.825C339.466 123.825 339.06 123.886 338.766 124.007C338.472 124.133 338.265 124.292 338.143 124.483C338.022 124.679 337.961 124.88 337.961 125.085C337.961 125.402 338.078 125.65 338.311 125.827C338.545 126.004 338.857 126.13 339.249 126.205C339.646 126.28 340.089 126.317 340.579 126.317C341.564 126.317 342.283 126.184 342.735 125.918C343.193 125.657 343.421 125.29 343.421 124.819C343.421 124.156 342.992 123.825 342.133 123.825H339.277C338.717 123.825 338.276 123.725 337.954 123.524C337.637 123.319 337.478 123.025 337.478 122.642C337.478 122.278 337.623 122 337.912 121.809C338.202 121.613 338.615 121.494 339.151 121.452V121.242L340.425 121.606H339.662C339.261 121.606 338.955 121.662 338.745 121.774C338.535 121.881 338.43 122.047 338.43 122.271C338.43 122.481 338.526 122.633 338.717 122.726C338.913 122.815 339.207 122.859 339.599 122.859H342.105C342.586 122.859 342.994 122.938 343.33 123.097C343.671 123.251 343.928 123.473 344.1 123.762C344.278 124.051 344.366 124.397 344.366 124.798C344.366 125.227 344.245 125.615 344.002 125.96C343.76 126.31 343.358 126.585 342.798 126.786C342.243 126.991 341.494 127.094 340.551 127.094ZM340.425 121.606C339.833 121.606 339.305 121.499 338.843 121.284C338.381 121.069 338.017 120.768 337.751 120.381C337.485 119.994 337.352 119.539 337.352 119.016C337.352 118.493 337.483 118.038 337.744 117.651C338.01 117.259 338.372 116.956 338.829 116.741C339.291 116.522 339.823 116.412 340.425 116.412C341.037 116.412 341.576 116.526 342.042 116.755C342.514 116.984 342.873 117.301 343.12 117.707C343.242 117.894 343.33 118.097 343.386 118.316C343.447 118.531 343.477 118.764 343.477 119.016C343.477 119.539 343.347 119.994 343.085 120.381C342.824 120.768 342.462 121.069 342 121.284C341.543 121.499 341.018 121.606 340.425 121.606ZM340.425 120.78C340.822 120.78 341.174 120.708 341.482 120.563C341.795 120.418 342.04 120.213 342.217 119.947C342.399 119.681 342.49 119.371 342.49 119.016C342.49 118.661 342.399 118.351 342.217 118.085C342.04 117.814 341.795 117.607 341.482 117.462C341.174 117.313 340.822 117.238 340.425 117.238C340.019 117.238 339.66 117.313 339.347 117.462C339.035 117.607 338.787 117.814 338.605 118.085C338.428 118.351 338.339 118.661 338.339 119.016C338.339 119.371 338.428 119.681 338.605 119.947C338.787 120.213 339.035 120.418 339.347 120.563C339.665 120.708 340.024 120.78 340.425 120.78ZM343.477 119.016L343.127 118.197L342.819 117.693L343.099 117.581C343.085 117.534 343.074 117.488 343.064 117.441C343.06 117.39 343.057 117.336 343.057 117.28C343.057 117.084 343.104 116.907 343.197 116.748C343.291 116.589 343.426 116.463 343.603 116.37C343.781 116.277 343.998 116.23 344.254 116.23C344.32 116.23 344.378 116.232 344.429 116.237C344.485 116.242 344.539 116.251 344.59 116.265V117.238C344.502 117.224 344.42 117.215 344.345 117.21C344.271 117.201 344.196 117.196 344.121 117.196C343.925 117.196 343.767 117.224 343.645 117.28C343.529 117.336 343.445 117.408 343.393 117.497C343.342 117.581 343.316 117.674 343.316 117.777C343.316 117.875 343.33 117.982 343.358 118.099C343.386 118.211 343.412 118.342 343.435 118.491C343.463 118.64 343.477 118.815 343.477 119.016ZM135.564 147.133C134.794 147.133 134.127 146.97 133.562 146.643C132.997 146.316 132.561 145.866 132.253 145.292C131.945 144.713 131.791 144.048 131.791 143.297C131.791 142.536 131.945 141.864 132.253 141.281C132.566 140.698 133 140.24 133.555 139.909C134.115 139.578 134.766 139.412 135.508 139.412C136.255 139.412 136.901 139.575 137.447 139.902C137.993 140.229 138.413 140.681 138.707 141.26C139.001 141.839 139.148 142.506 139.148 143.262C139.148 143.351 139.146 143.421 139.141 143.472C139.141 143.523 139.136 143.568 139.127 143.605H138.133C138.138 143.549 138.14 143.488 138.14 143.423C138.145 143.353 138.147 143.274 138.147 143.185C138.147 142.63 138.04 142.137 137.825 141.708C137.615 141.274 137.314 140.933 136.922 140.686C136.53 140.439 136.059 140.315 135.508 140.315C134.971 140.315 134.5 140.443 134.094 140.7C133.688 140.952 133.373 141.302 133.149 141.75C132.925 142.193 132.813 142.709 132.813 143.297C132.813 143.866 132.923 144.37 133.142 144.809C133.366 145.243 133.683 145.584 134.094 145.831C134.505 146.078 134.992 146.202 135.557 146.202C136.145 146.202 136.654 146.064 137.083 145.789C137.517 145.509 137.839 145.129 138.049 144.648L139.001 145.005C138.726 145.663 138.285 146.183 137.678 146.566C137.076 146.944 136.371 147.133 135.564 147.133ZM132.428 143.605V142.828H138.826L139.12 143.605H132.428ZM144.113 146.132H145.646V147H141.572V146.132H143.105V136.808H141.572V135.94H144.113V146.132ZM150.735 146.132H152.17V147H148.215V146.132H149.727V140.413H148.215V139.545H150.735V146.132ZM149.538 136.402H150.826V137.739H149.538V136.402ZM156.632 145.026C156.632 145.418 156.706 145.714 156.856 145.915C157.005 146.111 157.234 146.209 157.542 146.209C157.845 146.209 158.074 146.109 158.228 145.908C158.382 145.703 158.459 145.409 158.459 145.026V144.333H159.369V145.019C159.369 145.467 159.301 145.85 159.166 146.167C159.035 146.48 158.834 146.72 158.564 146.888C158.293 147.051 157.945 147.133 157.521 147.133C157.087 147.133 156.73 147.049 156.45 146.881C156.17 146.708 155.962 146.466 155.827 146.153C155.691 145.84 155.624 145.465 155.624 145.026L155.631 140.413H154.301V139.545H155.631V137.655H156.639V139.545H159.271L159.264 140.413H156.639L156.632 145.026ZM162.263 145.579H163.726V147H162.263V145.579ZM163.033 145.852H163.726V147.539C163.726 147.996 163.593 148.351 163.327 148.603C163.061 148.855 162.704 148.981 162.256 148.981V148.337C162.499 148.337 162.688 148.272 162.823 148.141C162.963 148.015 163.033 147.814 163.033 147.539V145.852ZM176.082 147.133C175.583 147.133 175.16 147.058 174.815 146.909C174.474 146.76 174.204 146.561 174.003 146.314C173.802 146.062 173.672 145.782 173.611 145.474H173.359L173.562 144.648C173.651 145.138 173.893 145.537 174.29 145.845C174.691 146.153 175.212 146.307 175.851 146.307C176.397 146.307 176.819 146.197 177.118 145.978C177.421 145.754 177.573 145.43 177.573 145.005C177.573 144.618 177.424 144.317 177.125 144.102C176.826 143.887 176.304 143.724 175.557 143.612C174.488 143.444 173.728 143.18 173.275 142.821C172.822 142.457 172.596 141.979 172.596 141.386C172.596 140.789 172.804 140.31 173.219 139.951C173.634 139.592 174.213 139.412 174.955 139.412C175.445 139.412 175.849 139.487 176.166 139.636C176.488 139.785 176.735 139.986 176.908 140.238C177.081 140.485 177.193 140.758 177.244 141.057H177.496L177.293 141.848C177.209 141.372 176.98 140.985 176.607 140.686C176.234 140.383 175.746 140.231 175.144 140.231C174.659 140.231 174.278 140.334 174.003 140.539C173.732 140.744 173.597 141.017 173.597 141.358C173.597 141.717 173.767 142 174.108 142.205C174.449 142.406 174.985 142.564 175.718 142.681C176.754 142.844 177.489 143.113 177.923 143.486C178.357 143.859 178.574 144.363 178.574 144.998C178.574 145.665 178.359 146.188 177.93 146.566C177.505 146.944 176.889 147.133 176.082 147.133ZM172.554 147V144.648H173.562V147H172.554ZM177.293 141.848V139.545H178.301V141.848H177.293ZM185.313 147.133C184.543 147.133 183.876 146.97 183.311 146.643C182.747 146.316 182.31 145.866 182.002 145.292C181.694 144.713 181.54 144.048 181.54 143.297C181.54 142.536 181.694 141.864 182.002 141.281C182.315 140.698 182.749 140.24 183.304 139.909C183.864 139.578 184.515 139.412 185.257 139.412C186.004 139.412 186.65 139.575 187.196 139.902C187.742 140.229 188.162 140.681 188.456 141.26C188.75 141.839 188.897 142.506 188.897 143.262C188.897 143.351 188.895 143.421 188.89 143.472C188.89 143.523 188.886 143.568 188.876 143.605H187.882C187.887 143.549 187.889 143.488 187.889 143.423C187.894 143.353 187.896 143.274 187.896 143.185C187.896 142.63 187.789 142.137 187.574 141.708C187.364 141.274 187.063 140.933 186.671 140.686C186.279 140.439 185.808 140.315 185.257 140.315C184.721 140.315 184.249 140.443 183.843 140.7C183.437 140.952 183.122 141.302 182.898 141.75C182.674 142.193 182.562 142.709 182.562 143.297C182.562 143.866 182.672 144.37 182.891 144.809C183.115 145.243 183.433 145.584 183.843 145.831C184.254 146.078 184.742 146.202 185.306 146.202C185.894 146.202 186.403 146.064 186.832 145.789C187.266 145.509 187.588 145.129 187.798 144.648L188.75 145.005C188.475 145.663 188.034 146.183 187.427 146.566C186.825 146.944 186.121 147.133 185.313 147.133ZM182.177 143.605V142.828H188.575L188.869 143.605H182.177ZM198.254 147V144.214L198.296 143.668V142.779L198.254 141.799V136.808H196.245V135.94H199.262V146.132H200.69V147H198.254ZM195.447 139.405C196.063 139.405 196.613 139.54 197.099 139.811C197.589 140.082 197.992 140.469 198.31 140.973C198.627 141.472 198.837 142.072 198.94 142.772L198.296 143.255C198.296 142.681 198.184 142.172 197.96 141.729C197.74 141.286 197.425 140.94 197.015 140.693C196.604 140.441 196.116 140.315 195.552 140.315C194.996 140.315 194.513 140.441 194.103 140.693C193.692 140.945 193.375 141.293 193.151 141.736C192.931 142.179 192.822 142.693 192.822 143.276C192.822 143.855 192.936 144.366 193.165 144.809C193.393 145.252 193.713 145.602 194.124 145.859C194.539 146.111 195.015 146.237 195.552 146.237C196.112 146.237 196.595 146.111 197.001 145.859C197.411 145.602 197.729 145.25 197.953 144.802C198.181 144.354 198.296 143.838 198.296 143.255L198.45 144.844H198.212C198.128 145.255 197.964 145.635 197.722 145.985C197.479 146.33 197.159 146.61 196.763 146.825C196.366 147.035 195.89 147.14 195.335 147.14C194.817 147.14 194.341 147.047 193.907 146.86C193.473 146.669 193.097 146.4 192.78 146.055C192.462 145.705 192.215 145.294 192.038 144.823C191.865 144.352 191.779 143.836 191.779 143.276C191.779 142.52 191.93 141.85 192.234 141.267C192.537 140.684 192.962 140.229 193.508 139.902C194.058 139.571 194.705 139.405 195.447 139.405ZM215.45 147V144.214L215.492 143.668V142.779L215.45 141.799V136.808H213.441V135.94H216.458V146.132H217.886V147H215.45ZM212.643 139.405C213.259 139.405 213.81 139.54 214.295 139.811C214.785 140.082 215.189 140.469 215.506 140.973C215.823 141.472 216.033 142.072 216.136 142.772L215.492 143.255C215.492 142.681 215.38 142.172 215.156 141.729C214.937 141.286 214.622 140.94 214.211 140.693C213.8 140.441 213.313 140.315 212.748 140.315C212.193 140.315 211.71 140.441 211.299 140.693C210.888 140.945 210.571 141.293 210.347 141.736C210.128 142.179 210.018 142.693 210.018 143.276C210.018 143.855 210.132 144.366 210.361 144.809C210.59 145.252 210.909 145.602 211.32 145.859C211.735 146.111 212.211 146.237 212.748 146.237C213.308 146.237 213.791 146.111 214.197 145.859C214.608 145.602 214.925 145.25 215.149 144.802C215.378 144.354 215.492 143.838 215.492 143.255L215.646 144.844H215.408C215.324 145.255 215.161 145.635 214.918 145.985C214.675 146.33 214.356 146.61 213.959 146.825C213.562 147.035 213.086 147.14 212.531 147.14C212.013 147.14 211.537 147.047 211.103 146.86C210.669 146.669 210.293 146.4 209.976 146.055C209.659 145.705 209.411 145.294 209.234 144.823C209.061 144.352 208.975 143.836 208.975 143.276C208.975 142.52 209.127 141.85 209.43 141.267C209.733 140.684 210.158 140.229 210.704 139.902C211.255 139.571 211.901 139.405 212.643 139.405ZM223.04 146.132H224.475V147H220.52V146.132H222.032V140.413H220.52V139.545H223.04V146.132ZM221.843 136.402H223.131V137.739H221.843V136.402ZM232.86 147C232.669 147 232.522 146.939 232.419 146.818C232.321 146.697 232.272 146.526 232.272 146.307V144.067L232.363 143.836L232.314 142.989L232.272 142.548V141.981C232.272 141.598 232.193 141.286 232.034 141.043C231.88 140.8 231.656 140.621 231.362 140.504C231.068 140.387 230.714 140.329 230.298 140.329C229.678 140.329 229.197 140.453 228.856 140.7C228.52 140.943 228.296 141.309 228.184 141.799L227.218 141.596C227.312 141.106 227.487 140.7 227.743 140.378C228 140.051 228.341 139.809 228.765 139.65C229.195 139.487 229.717 139.405 230.333 139.405C230.977 139.405 231.516 139.496 231.95 139.678C232.389 139.855 232.72 140.128 232.944 140.497C233.168 140.866 233.28 141.342 233.28 141.925V146.132H234.379V147H232.86ZM229.346 147.098C228.572 147.098 227.984 146.928 227.582 146.587C227.181 146.242 226.98 145.735 226.98 145.068C226.98 144.452 227.158 143.983 227.512 143.661C227.867 143.334 228.436 143.089 229.22 142.926L232.573 142.212V142.933L229.388 143.654C228.931 143.761 228.588 143.92 228.359 144.13C228.135 144.335 228.023 144.627 228.023 145.005C228.023 145.416 228.149 145.724 228.401 145.929C228.653 146.13 229.022 146.23 229.507 146.23C230.044 146.23 230.525 146.106 230.949 145.859C231.374 145.612 231.708 145.248 231.95 144.767C232.193 144.286 232.314 143.694 232.314 142.989L232.58 144.641H232.223C232.107 145.42 231.803 146.025 231.313 146.454C230.828 146.883 230.172 147.098 229.346 147.098ZM247.246 147V146.132H248.562V142.219C248.562 141.608 248.426 141.129 248.156 140.784C247.885 140.439 247.463 140.266 246.889 140.266C246.427 140.266 246.016 140.387 245.657 140.63C245.297 140.873 245.015 141.22 244.81 141.673C244.604 142.126 244.502 142.669 244.502 143.304L244.257 141.806H244.544C244.66 140.994 244.961 140.387 245.447 139.986C245.937 139.585 246.532 139.384 247.232 139.384C248.02 139.384 248.606 139.617 248.989 140.084C249.376 140.551 249.57 141.209 249.57 142.058V146.132H250.998V147H247.246ZM236.928 147V146.132H238.419V140.413H236.928V139.545H239.427V146.132H240.75V147H236.928ZM242.178 147V146.132H243.494V142.219C243.494 141.608 243.358 141.129 243.088 140.784C242.817 140.439 242.395 140.266 241.821 140.266C241.359 140.266 240.948 140.387 240.589 140.63C240.229 140.873 239.945 141.22 239.735 141.673C239.529 142.126 239.427 142.669 239.427 143.304L239.189 141.806H239.476C239.588 140.994 239.889 140.387 240.379 139.986C240.869 139.585 241.464 139.384 242.164 139.384C242.952 139.384 243.538 139.617 243.921 140.084C244.308 140.551 244.502 141.209 244.502 142.058V146.132H245.93V147H242.178ZM261.587 146.132H262.917V147H259.046V146.132H260.579V140.413H259.046V139.545H261.587V146.132ZM265.885 146.132V142.233C265.885 141.622 265.748 141.141 265.472 140.791C265.197 140.441 264.763 140.266 264.17 140.266C263.69 140.266 263.253 140.385 262.861 140.623C262.469 140.861 262.159 141.206 261.93 141.659C261.702 142.112 261.587 142.66 261.587 143.304L261.356 141.813H261.636C261.725 141.304 261.895 140.873 262.147 140.518C262.399 140.159 262.721 139.886 263.113 139.699C263.51 139.508 263.965 139.412 264.478 139.412C265.29 139.412 265.895 139.648 266.291 140.119C266.693 140.586 266.893 141.246 266.893 142.1V146.132H268.328V147H264.576V146.132H265.885ZM274.662 147.133C273.888 147.133 273.209 146.97 272.625 146.643C272.042 146.312 271.587 145.859 271.26 145.285C270.934 144.711 270.77 144.048 270.77 143.297C270.77 142.541 270.934 141.871 271.26 141.288C271.587 140.7 272.042 140.24 272.625 139.909C273.209 139.578 273.888 139.412 274.662 139.412C275.437 139.412 276.116 139.578 276.699 139.909C277.283 140.24 277.738 140.7 278.064 141.288C278.391 141.871 278.554 142.541 278.554 143.297C278.554 144.048 278.391 144.711 278.064 145.285C277.738 145.859 277.283 146.312 276.699 146.643C276.116 146.97 275.437 147.133 274.662 147.133ZM274.662 146.202C275.222 146.202 275.715 146.081 276.139 145.838C276.569 145.595 276.902 145.257 277.14 144.823C277.383 144.384 277.504 143.876 277.504 143.297C277.504 142.714 277.383 142.2 277.14 141.757C276.902 141.314 276.569 140.968 276.139 140.721C275.715 140.469 275.222 140.343 274.662 140.343C274.102 140.343 273.608 140.469 273.178 140.721C272.754 140.968 272.42 141.314 272.177 141.757C271.939 142.2 271.82 142.714 271.82 143.297C271.82 143.876 271.939 144.384 272.177 144.823C272.42 145.257 272.754 145.595 273.178 145.838C273.608 146.081 274.102 146.202 274.662 146.202ZM283.938 146.132H285.268V147H281.397V146.132H282.93V140.413H281.397V139.545H283.938V146.132ZM288.236 146.132V142.233C288.236 141.622 288.098 141.141 287.823 140.791C287.548 140.441 287.114 140.266 286.521 140.266C286.04 140.266 285.604 140.385 285.212 140.623C284.82 140.861 284.51 141.206 284.281 141.659C284.052 142.112 283.938 142.66 283.938 143.304L283.707 141.813H283.987C284.076 141.304 284.246 140.873 284.498 140.518C284.75 140.159 285.072 139.886 285.464 139.699C285.861 139.508 286.316 139.412 286.829 139.412C287.641 139.412 288.245 139.648 288.642 140.119C289.043 140.586 289.244 141.246 289.244 142.1V146.132H290.679V147H286.927V146.132H288.236ZM299.156 140.413H297.714V139.545H300.164V146.132H301.62V147H299.156V140.413ZM294.991 139.545V144.298C294.991 144.909 295.127 145.392 295.397 145.747C295.673 146.097 296.104 146.272 296.692 146.272C297.164 146.272 297.584 146.153 297.952 145.915C298.326 145.672 298.62 145.325 298.834 144.872C299.049 144.419 299.156 143.876 299.156 143.241L299.401 144.732H299.107C298.981 145.535 298.669 146.141 298.169 146.552C297.675 146.958 297.066 147.161 296.342 147.161C295.54 147.161 294.945 146.923 294.557 146.447C294.175 145.971 293.983 145.311 293.983 144.466V140.413H292.632V139.545H294.991ZM314.408 147V146.132H315.724V142.219C315.724 141.608 315.588 141.129 315.318 140.784C315.047 140.439 314.625 140.266 314.051 140.266C313.589 140.266 313.178 140.387 312.819 140.63C312.459 140.873 312.177 141.22 311.972 141.673C311.766 142.126 311.664 142.669 311.664 143.304L311.419 141.806H311.706C311.822 140.994 312.123 140.387 312.609 139.986C313.099 139.585 313.694 139.384 314.394 139.384C315.182 139.384 315.768 139.617 316.151 140.084C316.538 140.551 316.732 141.209 316.732 142.058V146.132H318.16V147H314.408ZM304.09 147V146.132H305.581V140.413H304.09V139.545H306.589V146.132H307.912V147H304.09ZM309.34 147V146.132H310.656V142.219C310.656 141.608 310.52 141.129 310.25 140.784C309.979 140.439 309.557 140.266 308.983 140.266C308.521 140.266 308.11 140.387 307.751 140.63C307.391 140.873 307.107 141.22 306.897 141.673C306.691 142.126 306.589 142.669 306.589 143.304L306.351 141.806H306.638C306.75 140.994 307.051 140.387 307.541 139.986C308.031 139.585 308.626 139.384 309.326 139.384C310.114 139.384 310.7 139.617 311.083 140.084C311.47 140.551 311.664 141.209 311.664 142.058V146.132H313.092V147H309.34ZM330.874 147V146.132H332.19V142.219C332.19 141.608 332.055 141.129 331.784 140.784C331.513 140.439 331.091 140.266 330.517 140.266C330.055 140.266 329.644 140.387 329.285 140.63C328.926 140.873 328.643 141.22 328.438 141.673C328.233 142.126 328.13 142.669 328.13 143.304L327.885 141.806H328.172C328.289 140.994 328.59 140.387 329.075 139.986C329.565 139.585 330.16 139.384 330.86 139.384C331.649 139.384 332.234 139.617 332.617 140.084C333.004 140.551 333.198 141.209 333.198 142.058V146.132H334.626V147H330.874ZM320.556 147V146.132H322.047V140.413H320.556V139.545H323.055V146.132H324.378V147H320.556ZM325.806 147V146.132H327.122V142.219C327.122 141.608 326.987 141.129 326.716 140.784C326.445 140.439 326.023 140.266 325.449 140.266C324.987 140.266 324.576 140.387 324.217 140.63C323.858 140.873 323.573 141.22 323.363 141.673C323.158 142.126 323.055 142.669 323.055 143.304L322.817 141.806H323.104C323.216 140.994 323.517 140.387 324.007 139.986C324.497 139.585 325.092 139.384 325.792 139.384C326.581 139.384 327.166 139.617 327.549 140.084C327.936 140.551 328.13 141.209 328.13 142.058V146.132H329.558V147H325.806ZM341.073 139.545H344.545V140.413H343.614L340.534 147.994C340.282 148.619 339.892 149.1 339.365 149.436C338.842 149.772 338.191 149.94 337.412 149.94H336.677V149.051H337.412C337.934 149.051 338.389 148.941 338.777 148.722C339.169 148.507 339.453 148.19 339.631 147.77L340.163 146.461L339.988 147.329L337.139 140.413H336.11V139.545H339.652V140.413H338.238L340.751 146.692L339.834 145.88H340.8L340.275 146.356L342.606 140.413H341.073V139.545ZM134.22 169.132H135.55V170H131.679V169.132H133.212V163.413H131.679V162.545H134.22V169.132ZM138.518 169.132V165.233C138.518 164.622 138.38 164.141 138.105 163.791C137.83 163.441 137.396 163.266 136.803 163.266C136.322 163.266 135.886 163.385 135.494 163.623C135.102 163.861 134.792 164.206 134.563 164.659C134.334 165.112 134.22 165.66 134.22 166.304L133.989 164.813H134.269C134.358 164.304 134.528 163.873 134.78 163.518C135.032 163.159 135.354 162.886 135.746 162.699C136.143 162.508 136.598 162.412 137.111 162.412C137.923 162.412 138.527 162.648 138.924 163.119C139.325 163.586 139.526 164.246 139.526 165.1V169.132H140.961V170H137.209V169.132H138.518ZM145.971 169.132H147.406V170H143.451V169.132H144.963V163.413H143.451V162.545H145.971V169.132ZM144.774 159.402H146.062V160.739H144.774V159.402ZM151.014 170.154V159.808H149.516V158.94H152.022V165.156L151.98 166.031V166.962L152.022 168.32L151.105 170.154H151.014ZM154.787 170.14C154.161 170.14 153.601 170.023 153.107 169.79C152.617 169.552 152.211 169.216 151.889 168.782C151.571 168.343 151.359 167.823 151.252 167.221L151.98 166.276C151.98 166.85 152.089 167.359 152.309 167.802C152.528 168.245 152.843 168.595 153.254 168.852C153.664 169.104 154.152 169.23 154.717 169.23C155.291 169.23 155.781 169.106 156.187 168.859C156.597 168.612 156.91 168.266 157.125 167.823C157.344 167.375 157.454 166.855 157.454 166.262C157.454 165.683 157.337 165.172 157.104 164.729C156.875 164.286 156.555 163.938 156.145 163.686C155.734 163.434 155.258 163.308 154.717 163.308C154.161 163.308 153.678 163.434 153.268 163.686C152.857 163.938 152.54 164.286 152.316 164.729C152.092 165.172 151.98 165.688 151.98 166.276L151.819 164.701H152.057C152.145 164.29 152.309 163.912 152.547 163.567C152.789 163.217 153.109 162.937 153.506 162.727C153.907 162.512 154.385 162.405 154.941 162.405C155.459 162.405 155.935 162.501 156.369 162.692C156.803 162.879 157.178 163.147 157.496 163.497C157.813 163.842 158.058 164.253 158.231 164.729C158.403 165.2 158.49 165.718 158.49 166.283C158.49 167.034 158.336 167.702 158.028 168.285C157.724 168.864 157.295 169.319 156.74 169.65C156.184 169.977 155.533 170.14 154.787 170.14ZM163.476 169.132H164.799V170H160.97V169.132H162.468V159.808H160.97V158.94H163.476V169.132ZM167.774 169.132V165.212C167.774 164.605 167.636 164.129 167.361 163.784C167.09 163.439 166.663 163.266 166.08 163.266C165.59 163.266 165.149 163.392 164.757 163.644C164.365 163.891 164.052 164.253 163.819 164.729C163.59 165.2 163.476 165.77 163.476 166.437L163.238 164.946H163.518C163.611 164.4 163.786 163.938 164.043 163.56C164.304 163.177 164.635 162.886 165.037 162.685C165.438 162.484 165.898 162.384 166.416 162.384C167.228 162.384 167.825 162.617 168.208 163.084C168.59 163.551 168.782 164.206 168.782 165.051V169.132H170.21V170H166.458V169.132H167.774ZM182.144 170.133C181.374 170.133 180.707 169.97 180.142 169.643C179.577 169.316 179.141 168.866 178.833 168.292C178.525 167.713 178.371 167.048 178.371 166.297C178.371 165.536 178.525 164.864 178.833 164.281C179.146 163.698 179.58 163.24 180.135 162.909C180.695 162.578 181.346 162.412 182.088 162.412C182.835 162.412 183.481 162.575 184.027 162.902C184.573 163.229 184.993 163.681 185.287 164.26C185.581 164.839 185.728 165.506 185.728 166.262C185.728 166.351 185.726 166.421 185.721 166.472C185.721 166.523 185.716 166.568 185.707 166.605H184.713C184.718 166.549 184.72 166.488 184.72 166.423C184.725 166.353 184.727 166.274 184.727 166.185C184.727 165.63 184.62 165.137 184.405 164.708C184.195 164.274 183.894 163.933 183.502 163.686C183.11 163.439 182.639 163.315 182.088 163.315C181.551 163.315 181.08 163.443 180.674 163.7C180.268 163.952 179.953 164.302 179.729 164.75C179.505 165.193 179.393 165.709 179.393 166.297C179.393 166.866 179.503 167.37 179.722 167.809C179.946 168.243 180.263 168.584 180.674 168.831C181.085 169.078 181.572 169.202 182.137 169.202C182.725 169.202 183.234 169.064 183.663 168.789C184.097 168.509 184.419 168.129 184.629 167.648L185.581 168.005C185.306 168.663 184.865 169.183 184.258 169.566C183.656 169.944 182.951 170.133 182.144 170.133ZM179.008 166.605V165.828H185.406L185.7 166.605H179.008ZM194.678 163.413H193.236V162.545H195.686V169.132H197.142V170H194.678V163.413ZM190.513 162.545V167.298C190.513 167.909 190.649 168.392 190.919 168.747C191.195 169.097 191.626 169.272 192.214 169.272C192.686 169.272 193.106 169.153 193.474 168.915C193.848 168.672 194.142 168.325 194.356 167.872C194.571 167.419 194.678 166.876 194.678 166.241L194.923 167.732H194.629C194.503 168.535 194.191 169.141 193.691 169.552C193.197 169.958 192.588 170.161 191.864 170.161C191.062 170.161 190.467 169.923 190.079 169.447C189.697 168.971 189.505 168.311 189.505 167.466V163.413H188.154V162.545H190.513ZM202.223 169.132H203.658V170H199.703V169.132H201.215V163.413H199.703V162.545H202.223V169.132ZM201.026 159.402H202.314V160.739H201.026V159.402ZM209.835 170.133C209.336 170.133 208.913 170.058 208.568 169.909C208.227 169.76 207.957 169.561 207.756 169.314C207.555 169.062 207.425 168.782 207.364 168.474H207.112L207.315 167.648C207.404 168.138 207.646 168.537 208.043 168.845C208.444 169.153 208.965 169.307 209.604 169.307C210.15 169.307 210.572 169.197 210.871 168.978C211.174 168.754 211.326 168.43 211.326 168.005C211.326 167.618 211.177 167.317 210.878 167.102C210.579 166.887 210.057 166.724 209.31 166.612C208.241 166.444 207.481 166.18 207.028 165.821C206.575 165.457 206.349 164.979 206.349 164.386C206.349 163.789 206.557 163.31 206.972 162.951C207.387 162.592 207.966 162.412 208.708 162.412C209.198 162.412 209.602 162.487 209.919 162.636C210.241 162.785 210.488 162.986 210.661 163.238C210.834 163.485 210.946 163.758 210.997 164.057H211.249L211.046 164.848C210.962 164.372 210.733 163.985 210.36 163.686C209.987 163.383 209.499 163.231 208.897 163.231C208.412 163.231 208.031 163.334 207.756 163.539C207.485 163.744 207.35 164.017 207.35 164.358C207.35 164.717 207.52 165 207.861 165.205C208.202 165.406 208.738 165.564 209.471 165.681C210.507 165.844 211.242 166.113 211.676 166.486C212.11 166.859 212.327 167.363 212.327 167.998C212.327 168.665 212.112 169.188 211.683 169.566C211.258 169.944 210.642 170.133 209.835 170.133ZM206.307 170V167.648H207.315V170H206.307ZM211.046 164.848V162.545H212.054V164.848H211.046ZM225.499 170V169.132H226.815V165.219C226.815 164.608 226.68 164.129 226.409 163.784C226.139 163.439 225.716 163.266 225.142 163.266C224.68 163.266 224.27 163.387 223.91 163.63C223.551 163.873 223.269 164.22 223.063 164.673C222.858 165.126 222.755 165.669 222.755 166.304L222.51 164.806H222.797C222.914 163.994 223.215 163.387 223.7 162.986C224.19 162.585 224.785 162.384 225.485 162.384C226.274 162.384 226.86 162.617 227.242 163.084C227.63 163.551 227.823 164.209 227.823 165.058V169.132H229.251V170H225.499ZM215.181 170V169.132H216.672V163.413H215.181V162.545H217.68V169.132H219.003V170H215.181ZM220.431 170V169.132H221.747V165.219C221.747 164.608 221.612 164.129 221.341 163.784C221.071 163.439 220.648 163.266 220.074 163.266C219.612 163.266 219.202 163.387 218.842 163.63C218.483 163.873 218.198 164.22 217.988 164.673C217.783 165.126 217.68 165.669 217.68 166.304L217.442 164.806H217.729C217.841 163.994 218.142 163.387 218.632 162.986C219.122 162.585 219.717 162.384 220.417 162.384C221.206 162.384 221.792 162.617 222.174 163.084C222.562 163.551 222.755 164.209 222.755 165.058V169.132H224.183V170H220.431ZM235.583 170.133C234.808 170.133 234.129 169.97 233.546 169.643C232.962 169.312 232.507 168.859 232.181 168.285C231.854 167.711 231.691 167.048 231.691 166.297C231.691 165.541 231.854 164.871 232.181 164.288C232.507 163.7 232.962 163.24 233.546 162.909C234.129 162.578 234.808 162.412 235.583 162.412C236.357 162.412 237.036 162.578 237.62 162.909C238.203 163.24 238.658 163.7 238.985 164.288C239.311 164.871 239.475 165.541 239.475 166.297C239.475 167.048 239.311 167.711 238.985 168.285C238.658 168.859 238.203 169.312 237.62 169.643C237.036 169.97 236.357 170.133 235.583 170.133ZM235.583 169.202C236.143 169.202 236.635 169.081 237.06 168.838C237.489 168.595 237.823 168.257 238.061 167.823C238.303 167.384 238.425 166.876 238.425 166.297C238.425 165.714 238.303 165.2 238.061 164.757C237.823 164.314 237.489 163.968 237.06 163.721C236.635 163.469 236.143 163.343 235.583 163.343C235.023 163.343 234.528 163.469 234.099 163.721C233.674 163.968 233.34 164.314 233.098 164.757C232.86 165.2 232.741 165.714 232.741 166.297C232.741 166.876 232.86 167.384 233.098 167.823C233.34 168.257 233.674 168.595 234.099 168.838C234.528 169.081 235.023 169.202 235.583 169.202ZM248.883 170V167.214L248.925 166.668V165.779L248.883 164.799V159.808H246.874V158.94H249.891V169.132H251.319V170H248.883ZM246.076 162.405C246.692 162.405 247.243 162.54 247.728 162.811C248.218 163.082 248.622 163.469 248.939 163.973C249.257 164.472 249.467 165.072 249.569 165.772L248.925 166.255C248.925 165.681 248.813 165.172 248.589 164.729C248.37 164.286 248.055 163.94 247.644 163.693C247.234 163.441 246.746 163.315 246.181 163.315C245.626 163.315 245.143 163.441 244.732 163.693C244.322 163.945 244.004 164.293 243.78 164.736C243.561 165.179 243.451 165.693 243.451 166.276C243.451 166.855 243.566 167.366 243.794 167.809C244.023 168.252 244.343 168.602 244.753 168.859C245.169 169.111 245.645 169.237 246.181 169.237C246.741 169.237 247.224 169.111 247.63 168.859C248.041 168.602 248.358 168.25 248.582 167.802C248.811 167.354 248.925 166.838 248.925 166.255L249.079 167.844H248.841C248.757 168.255 248.594 168.635 248.351 168.985C248.109 169.33 247.789 169.61 247.392 169.825C246.996 170.035 246.52 170.14 245.964 170.14C245.446 170.14 244.97 170.047 244.536 169.86C244.102 169.669 243.727 169.4 243.409 169.055C243.092 168.705 242.845 168.294 242.667 167.823C242.495 167.352 242.408 166.836 242.408 166.276C242.408 165.52 242.56 164.85 242.863 164.267C243.167 163.684 243.591 163.229 244.137 162.902C244.688 162.571 245.334 162.405 246.076 162.405ZM261.509 168.026C261.509 168.418 261.583 168.714 261.733 168.915C261.882 169.111 262.111 169.209 262.419 169.209C262.722 169.209 262.951 169.109 263.105 168.908C263.259 168.703 263.336 168.409 263.336 168.026V167.333H264.246V168.019C264.246 168.467 264.178 168.85 264.043 169.167C263.912 169.48 263.711 169.72 263.441 169.888C263.17 170.051 262.822 170.133 262.398 170.133C261.964 170.133 261.607 170.049 261.327 169.881C261.047 169.708 260.839 169.466 260.704 169.153C260.568 168.84 260.501 168.465 260.501 168.026L260.508 163.413H259.178V162.545H260.508V160.655H261.516V162.545H264.148L264.141 163.413H261.516L261.509 168.026ZM269.527 169.132H270.962V170H267.007V169.132H268.519V163.413H267.007V162.545H269.527V169.132ZM268.33 159.402H269.618V160.739H268.33V159.402ZM275.97 169.132H277.3V170H273.429V169.132H274.962V163.413H273.429V162.545H275.97V169.132ZM280.268 169.132V165.233C280.268 164.622 280.13 164.141 279.855 163.791C279.58 163.441 279.146 163.266 278.553 163.266C278.072 163.266 277.636 163.385 277.244 163.623C276.852 163.861 276.542 164.206 276.313 164.659C276.084 165.112 275.97 165.66 275.97 166.304L275.739 164.813H276.019C276.108 164.304 276.278 163.873 276.53 163.518C276.782 163.159 277.104 162.886 277.496 162.699C277.893 162.508 278.348 162.412 278.861 162.412C279.673 162.412 280.277 162.648 280.674 163.119C281.075 163.586 281.276 164.246 281.276 165.1V169.132H282.711V170H278.959V169.132H280.268ZM289.01 170.133C288.236 170.133 287.561 169.97 286.987 169.643C286.418 169.316 285.975 168.866 285.657 168.292C285.345 167.713 285.188 167.048 285.188 166.297C285.188 165.728 285.275 165.207 285.447 164.736C285.62 164.26 285.867 163.849 286.189 163.504C286.511 163.154 286.894 162.886 287.337 162.699C287.781 162.508 288.275 162.412 288.821 162.412C289.349 162.412 289.787 162.498 290.137 162.671C290.492 162.839 290.767 163.072 290.963 163.371C291.159 163.665 291.285 164.003 291.341 164.386H291.586L291.383 165.443C291.323 165.023 291.185 164.654 290.97 164.337C290.756 164.015 290.476 163.765 290.13 163.588C289.785 163.406 289.386 163.315 288.933 163.315C288.392 163.315 287.916 163.443 287.505 163.7C287.099 163.952 286.782 164.302 286.553 164.75C286.329 165.193 286.217 165.709 286.217 166.297C286.217 166.866 286.332 167.37 286.56 167.809C286.794 168.243 287.118 168.584 287.533 168.831C287.953 169.078 288.448 169.202 289.017 169.202C289.605 169.202 290.112 169.074 290.536 168.817C290.961 168.556 291.271 168.206 291.467 167.767L292.398 168.18C292.132 168.782 291.705 169.258 291.117 169.608C290.534 169.958 289.832 170.133 289.01 170.133ZM291.383 165.443V162.545H292.391V165.443H291.383ZM297.83 169.132H299.265V170H295.31V169.132H296.822V163.413H295.31V162.545H297.83V169.132ZM296.633 159.402H297.921V160.739H296.633V159.402ZM308.299 170V167.214L308.341 166.668V165.779L308.299 164.799V159.808H306.29V158.94H309.307V169.132H310.735V170H308.299ZM305.492 162.405C306.108 162.405 306.658 162.54 307.144 162.811C307.634 163.082 308.037 163.469 308.355 163.973C308.672 164.472 308.882 165.072 308.985 165.772L308.341 166.255C308.341 165.681 308.229 165.172 308.005 164.729C307.785 164.286 307.47 163.94 307.06 163.693C306.649 163.441 306.161 163.315 305.597 163.315C305.041 163.315 304.558 163.441 304.148 163.693C303.737 163.945 303.42 164.293 303.196 164.736C302.976 165.179 302.867 165.693 302.867 166.276C302.867 166.855 302.981 167.366 303.21 167.809C303.438 168.252 303.758 168.602 304.169 168.859C304.584 169.111 305.06 169.237 305.597 169.237C306.157 169.237 306.64 169.111 307.046 168.859C307.456 168.602 307.774 168.25 307.998 167.802C308.226 167.354 308.341 166.838 308.341 166.255L308.495 167.844H308.257C308.173 168.255 308.009 168.635 307.767 168.985C307.524 169.33 307.204 169.61 306.808 169.825C306.411 170.035 305.935 170.14 305.38 170.14C304.862 170.14 304.386 170.047 303.952 169.86C303.518 169.669 303.142 169.4 302.825 169.055C302.507 168.705 302.26 168.294 302.083 167.823C301.91 167.352 301.824 166.836 301.824 166.276C301.824 165.52 301.975 164.85 302.279 164.267C302.582 163.684 303.007 163.229 303.553 162.902C304.103 162.571 304.75 162.405 305.492 162.405ZM319.437 163.413H317.995V162.545H320.445V169.132H321.901V170H319.437V163.413ZM315.272 162.545V167.298C315.272 167.909 315.407 168.392 315.678 168.747C315.953 169.097 316.385 169.272 316.973 169.272C317.444 169.272 317.864 169.153 318.233 168.915C318.606 168.672 318.9 168.325 319.115 167.872C319.33 167.419 319.437 166.876 319.437 166.241L319.682 167.732H319.388C319.262 168.535 318.949 169.141 318.45 169.552C317.955 169.958 317.346 170.161 316.623 170.161C315.82 170.161 315.225 169.923 314.838 169.447C314.455 168.971 314.264 168.311 314.264 167.466V163.413H312.913V162.545H315.272ZM326.911 169.132H328.241V170H324.37V169.132H325.903V163.413H324.37V162.545H326.911V169.132ZM331.209 169.132V165.233C331.209 164.622 331.072 164.141 330.796 163.791C330.521 163.441 330.087 163.266 329.494 163.266C329.014 163.266 328.577 163.385 328.185 163.623C327.793 163.861 327.483 164.206 327.254 164.659C327.026 165.112 326.911 165.66 326.911 166.304L326.68 164.813H326.96C327.049 164.304 327.219 163.873 327.471 163.518C327.723 163.159 328.045 162.886 328.437 162.699C328.834 162.508 329.289 162.412 329.802 162.412C330.614 162.412 331.219 162.648 331.615 163.119C332.017 163.586 332.217 164.246 332.217 165.1V169.132H333.652V170H329.9V169.132H331.209ZM338.047 168.026C338.047 168.418 338.121 168.714 338.271 168.915C338.42 169.111 338.649 169.209 338.957 169.209C339.26 169.209 339.489 169.109 339.643 168.908C339.797 168.703 339.874 168.409 339.874 168.026V167.333H340.784V168.019C340.784 168.467 340.716 168.85 340.581 169.167C340.45 169.48 340.249 169.72 339.979 169.888C339.708 170.051 339.36 170.133 338.936 170.133C338.502 170.133 338.145 170.049 337.865 169.881C337.585 169.708 337.377 169.466 337.242 169.153C337.106 168.84 337.039 168.465 337.039 168.026L337.046 163.413H335.716V162.545H337.046V160.655H338.054V162.545H340.686L340.679 163.413H338.054L338.047 168.026ZM355.238 163.413H353.796V162.545H356.246V169.132H357.702V170H355.238V163.413ZM351.073 162.545V167.298C351.073 167.909 351.209 168.392 351.479 168.747C351.755 169.097 352.186 169.272 352.774 169.272C353.246 169.272 353.666 169.153 354.034 168.915C354.408 168.672 354.702 168.325 354.916 167.872C355.131 167.419 355.238 166.876 355.238 166.241L355.483 167.732H355.189C355.063 168.535 354.751 169.141 354.251 169.552C353.757 169.958 353.148 170.161 352.424 170.161C351.622 170.161 351.027 169.923 350.639 169.447C350.257 168.971 350.065 168.311 350.065 167.466V163.413H348.714V162.545H351.073ZM362.167 168.026C362.167 168.418 362.241 168.714 362.391 168.915C362.54 169.111 362.769 169.209 363.077 169.209C363.38 169.209 363.609 169.109 363.763 168.908C363.917 168.703 363.994 168.409 363.994 168.026V167.333H364.904V168.019C364.904 168.467 364.836 168.85 364.701 169.167C364.57 169.48 364.369 169.72 364.099 169.888C363.828 170.051 363.48 170.133 363.056 170.133C362.622 170.133 362.265 170.049 361.985 169.881C361.705 169.708 361.497 169.466 361.362 169.153C361.226 168.84 361.159 168.465 361.159 168.026L361.166 163.413H359.836V162.545H361.166V160.655H362.174V162.545H364.806L364.799 163.413H362.174L362.167 168.026ZM134.045 192.132H135.578V193H131.504V192.132H133.037V182.808H131.504V181.94H134.045V192.132ZM144.111 193C143.919 193 143.772 192.939 143.67 192.818C143.572 192.697 143.523 192.526 143.523 192.307V190.067L143.614 189.836L143.565 188.989L143.523 188.548V187.981C143.523 187.598 143.443 187.286 143.285 187.043C143.131 186.8 142.907 186.621 142.613 186.504C142.319 186.387 141.964 186.329 141.549 186.329C140.928 186.329 140.447 186.453 140.107 186.7C139.771 186.943 139.547 187.309 139.435 187.799L138.469 187.596C138.562 187.106 138.737 186.7 138.994 186.378C139.25 186.051 139.591 185.809 140.016 185.65C140.445 185.487 140.968 185.405 141.584 185.405C142.228 185.405 142.767 185.496 143.201 185.678C143.639 185.855 143.971 186.128 144.195 186.497C144.419 186.866 144.531 187.342 144.531 187.925V192.132H145.63V193H144.111ZM140.597 193.098C139.822 193.098 139.234 192.928 138.833 192.587C138.431 192.242 138.231 191.735 138.231 191.068C138.231 190.452 138.408 189.983 138.763 189.661C139.117 189.334 139.687 189.089 140.471 188.926L143.824 188.212V188.933L140.639 189.654C140.181 189.761 139.838 189.92 139.61 190.13C139.386 190.335 139.274 190.627 139.274 191.005C139.274 191.416 139.4 191.724 139.652 191.929C139.904 192.13 140.272 192.23 140.758 192.23C141.294 192.23 141.775 192.106 142.2 191.859C142.624 191.612 142.958 191.248 143.201 190.767C143.443 190.286 143.565 189.694 143.565 188.989L143.831 190.641H143.474C143.357 191.42 143.054 192.025 142.564 192.454C142.078 192.883 141.423 193.098 140.597 193.098ZM152.113 193.133C151.339 193.133 150.66 192.97 150.076 192.643C149.493 192.312 149.038 191.859 148.711 191.285C148.385 190.711 148.221 190.048 148.221 189.297C148.221 188.541 148.385 187.871 148.711 187.288C149.038 186.7 149.493 186.24 150.076 185.909C150.66 185.578 151.339 185.412 152.113 185.412C152.888 185.412 153.567 185.578 154.15 185.909C154.734 186.24 155.189 186.7 155.515 187.288C155.842 187.871 156.005 188.541 156.005 189.297C156.005 190.048 155.842 190.711 155.515 191.285C155.189 191.859 154.734 192.312 154.15 192.643C153.567 192.97 152.888 193.133 152.113 193.133ZM152.113 192.202C152.673 192.202 153.166 192.081 153.59 191.838C154.02 191.595 154.353 191.257 154.591 190.823C154.834 190.384 154.955 189.876 154.955 189.297C154.955 188.714 154.834 188.2 154.591 187.757C154.353 187.314 154.02 186.968 153.59 186.721C153.166 186.469 152.673 186.343 152.113 186.343C151.553 186.343 151.059 186.469 150.629 186.721C150.205 186.968 149.871 187.314 149.628 187.757C149.39 188.2 149.271 188.714 149.271 189.297C149.271 189.876 149.39 190.384 149.628 190.823C149.871 191.257 150.205 191.595 150.629 191.838C151.059 192.081 151.553 192.202 152.113 192.202ZM161.389 192.132H162.845V193H158.848V192.132H160.381V186.413H158.848V185.545H161.389V192.132ZM164.252 186.616C164.168 186.593 164.077 186.574 163.979 186.56C163.885 186.546 163.783 186.539 163.671 186.539C162.98 186.539 162.427 186.798 162.012 187.316C161.596 187.829 161.389 188.543 161.389 189.458L161.151 187.827H161.438C161.503 187.332 161.638 186.908 161.844 186.553C162.049 186.194 162.315 185.918 162.642 185.727C162.973 185.531 163.36 185.433 163.804 185.433C163.888 185.433 163.962 185.438 164.028 185.447C164.098 185.452 164.172 185.461 164.252 185.475V186.616ZM170.34 193.133C169.57 193.133 168.902 192.97 168.338 192.643C167.773 192.316 167.337 191.866 167.029 191.292C166.721 190.713 166.567 190.048 166.567 189.297C166.567 188.536 166.721 187.864 167.029 187.281C167.341 186.698 167.775 186.24 168.331 185.909C168.891 185.578 169.542 185.412 170.284 185.412C171.03 185.412 171.677 185.575 172.223 185.902C172.769 186.229 173.189 186.681 173.483 187.26C173.777 187.839 173.924 188.506 173.924 189.262C173.924 189.351 173.921 189.421 173.917 189.472C173.917 189.523 173.912 189.568 173.903 189.605H172.909C172.913 189.549 172.916 189.488 172.916 189.423C172.92 189.353 172.923 189.274 172.923 189.185C172.923 188.63 172.815 188.137 172.601 187.708C172.391 187.274 172.09 186.933 171.698 186.686C171.306 186.439 170.834 186.315 170.284 186.315C169.747 186.315 169.276 186.443 168.87 186.7C168.464 186.952 168.149 187.302 167.925 187.75C167.701 188.193 167.589 188.709 167.589 189.297C167.589 189.866 167.698 190.37 167.918 190.809C168.142 191.243 168.459 191.584 168.87 191.831C169.28 192.078 169.768 192.202 170.333 192.202C170.921 192.202 171.429 192.064 171.859 191.789C172.293 191.509 172.615 191.129 172.825 190.648L173.777 191.005C173.501 191.663 173.06 192.183 172.454 192.566C171.852 192.944 171.147 193.133 170.34 193.133ZM167.204 189.605V188.828H173.602L173.896 189.605H167.204ZM180.599 193.133C179.829 193.133 179.162 192.97 178.597 192.643C178.032 192.316 177.596 191.866 177.288 191.292C176.98 190.713 176.826 190.048 176.826 189.297C176.826 188.536 176.98 187.864 177.288 187.281C177.601 186.698 178.035 186.24 178.59 185.909C179.15 185.578 179.801 185.412 180.543 185.412C181.29 185.412 181.936 185.575 182.482 185.902C183.028 186.229 183.448 186.681 183.742 187.26C184.036 187.839 184.183 188.506 184.183 189.262C184.183 189.351 184.181 189.421 184.176 189.472C184.176 189.523 184.171 189.568 184.162 189.605H183.168C183.173 189.549 183.175 189.488 183.175 189.423C183.18 189.353 183.182 189.274 183.182 189.185C183.182 188.63 183.075 188.137 182.86 187.708C182.65 187.274 182.349 186.933 181.957 186.686C181.565 186.439 181.094 186.315 180.543 186.315C180.006 186.315 179.535 186.443 179.129 186.7C178.723 186.952 178.408 187.302 178.184 187.75C177.96 188.193 177.848 188.709 177.848 189.297C177.848 189.866 177.958 190.37 178.177 190.809C178.401 191.243 178.718 191.584 179.129 191.831C179.54 192.078 180.027 192.202 180.592 192.202C181.18 192.202 181.689 192.064 182.118 191.789C182.552 191.509 182.874 191.129 183.084 190.648L184.036 191.005C183.761 191.663 183.32 192.183 182.713 192.566C182.111 192.944 181.406 193.133 180.599 193.133ZM177.463 189.605V188.828H183.861L184.155 189.605H177.463ZM188.969 191.026C188.969 191.418 189.043 191.714 189.193 191.915C189.342 192.111 189.571 192.209 189.879 192.209C190.182 192.209 190.411 192.109 190.565 191.908C190.719 191.703 190.796 191.409 190.796 191.026V190.333H191.706V191.019C191.706 191.467 191.638 191.85 191.503 192.167C191.372 192.48 191.171 192.72 190.901 192.888C190.63 193.051 190.282 193.133 189.858 193.133C189.424 193.133 189.067 193.049 188.787 192.881C188.507 192.708 188.299 192.466 188.164 192.153C188.028 191.84 187.961 191.465 187.961 191.026L187.968 186.413H186.638V185.545H187.968V183.655H188.976V185.545H191.608L191.601 186.413H188.976L188.969 191.026Z" fill="#FEFBF4"/>
</svg>
