<svg width="383" height="203" viewBox="0 0 383 203" fill="none" xmlns="http://www.w3.org/2000/svg">
<path d="M209.309 48.9946C216.944 62.2189 213.922 80.0589 202.622 98.3037C191.335 116.528 171.852 135.036 146.835 149.48C121.819 163.923 96.0488 171.542 74.6221 172.205C53.1719 172.868 36.211 166.565 28.576 153.341C20.9409 140.116 23.9629 122.276 35.2625 104.032C46.5496 85.8069 66.0329 67.2989 91.0494 52.8557C116.066 38.4124 141.836 30.7934 163.263 30.1308C184.713 29.4675 201.674 35.7704 209.309 48.9946Z" stroke="#FFDECF"/>
<path d="M81.037 97.299L85.236 96.619C85.508 98.115 86.0917 99.288 86.987 100.138C87.8823 100.988 89.078 101.413 90.574 101.413C91.5147 101.413 92.325 101.249 93.005 100.92C93.685 100.591 94.2063 100.138 94.569 99.56C94.9317 98.982 95.113 98.319 95.113 97.571C95.113 96.721 94.875 95.9787 94.399 95.344C93.923 94.698 93.2487 94.1993 92.376 93.848C91.5147 93.4853 90.5003 93.304 89.333 93.304V90.856C91.4183 90.856 93.2317 91.145 94.773 91.723C96.3143 92.2897 97.5043 93.117 98.343 94.205C99.193 95.2817 99.618 96.5737 99.618 98.081C99.618 99.475 99.2723 100.722 98.581 101.821C97.8897 102.92 96.8753 103.787 95.538 104.422C94.2007 105.045 92.563 105.357 90.625 105.357C87.7577 105.357 85.5533 104.649 84.012 103.232C82.4707 101.815 81.479 99.8377 81.037 97.299ZM81.649 86.725C81.853 84.141 82.703 82.1917 84.199 80.877C85.7063 79.5623 87.7577 78.905 90.353 78.905C92.1097 78.905 93.6227 79.1883 94.892 79.755C96.1613 80.3103 97.136 81.0923 97.816 82.101C98.5073 83.0983 98.853 84.2543 98.853 85.569C98.853 86.929 98.4563 88.1133 97.663 89.122C96.881 90.1307 95.776 90.9127 94.348 91.468C92.92 92.0233 91.2483 92.2953 89.333 92.284V89.836C90.3303 89.836 91.203 89.683 91.951 89.377C92.7103 89.0597 93.2997 88.6233 93.719 88.068C94.1497 87.5127 94.365 86.8667 94.365 86.13C94.365 85.4953 94.2007 84.9287 93.872 84.43C93.5433 83.9313 93.0787 83.546 92.478 83.274C91.8773 82.9907 91.152 82.849 90.302 82.849C89.01 82.849 87.9787 83.1947 87.208 83.886C86.4487 84.5773 86.001 85.6257 85.865 87.031L81.649 86.725ZM87.803 89.836H89.333V93.304H87.803V89.836Z" fill="#4667A6"/>
<path d="M131.385 84.431V83.472H135.872V84.431H134.122V93.041H139.379V94H131.385V93.041H133.079V84.431H131.385ZM140.009 90.486V94H138.959V90.486H140.009ZM146.379 94.133C145.605 94.133 144.926 93.9697 144.342 93.643C143.759 93.3117 143.304 92.859 142.977 92.285C142.651 91.711 142.487 91.0483 142.487 90.297C142.487 89.541 142.651 88.8713 142.977 88.288C143.304 87.7 143.759 87.2403 144.342 86.909C144.926 86.5777 145.605 86.412 146.379 86.412C147.154 86.412 147.833 86.5777 148.416 86.909C149 87.2403 149.455 87.7 149.781 88.288C150.108 88.8713 150.271 89.541 150.271 90.297C150.271 91.0483 150.108 91.711 149.781 92.285C149.455 92.859 149 93.3117 148.416 93.643C147.833 93.9697 147.154 94.133 146.379 94.133ZM146.379 93.202C146.939 93.202 147.432 93.0807 147.856 92.838C148.286 92.5953 148.619 92.257 148.857 91.823C149.1 91.3843 149.221 90.8757 149.221 90.297C149.221 89.7137 149.1 89.2003 148.857 88.757C148.619 88.3137 148.286 87.9683 147.856 87.721C147.432 87.469 146.939 87.343 146.379 87.343C145.819 87.343 145.325 87.469 144.895 87.721C144.471 87.9683 144.137 88.3137 143.894 88.757C143.656 89.2003 143.537 89.7137 143.537 90.297C143.537 90.8757 143.656 91.3843 143.894 91.823C144.137 92.257 144.471 92.5953 144.895 92.838C145.325 93.0807 145.819 93.202 146.379 93.202ZM155.655 93.132H157.111V94H153.114V93.132H154.647V87.413H153.114V86.545H155.655V93.132ZM158.518 87.616C158.434 87.5927 158.343 87.574 158.245 87.56C158.151 87.546 158.049 87.539 157.937 87.539C157.246 87.539 156.693 87.798 156.278 88.316C155.862 88.8293 155.655 89.5433 155.655 90.458L155.417 88.827H155.704C155.769 88.3323 155.904 87.9077 156.11 87.553C156.315 87.1937 156.581 86.9183 156.908 86.727C157.239 86.531 157.626 86.433 158.07 86.433C158.154 86.433 158.228 86.4377 158.294 86.447C158.364 86.4517 158.438 86.461 158.518 86.475V87.616ZM164.606 94.133C163.836 94.133 163.168 93.9697 162.604 93.643C162.039 93.3163 161.603 92.866 161.295 92.292C160.987 91.7133 160.833 91.0483 160.833 90.297C160.833 89.5363 160.987 88.8643 161.295 88.281C161.607 87.6977 162.041 87.2403 162.597 86.909C163.157 86.5777 163.808 86.412 164.55 86.412C165.296 86.412 165.943 86.5753 166.489 86.902C167.035 87.2287 167.455 87.6813 167.749 88.26C168.043 88.8387 168.19 89.506 168.19 90.262C168.19 90.3507 168.187 90.4207 168.183 90.472C168.183 90.5233 168.178 90.5677 168.169 90.605H167.175C167.179 90.549 167.182 90.4883 167.182 90.423C167.186 90.353 167.189 90.2737 167.189 90.185C167.189 89.6297 167.081 89.1373 166.867 88.708C166.657 88.274 166.356 87.9333 165.964 87.686C165.572 87.4387 165.1 87.315 164.55 87.315C164.013 87.315 163.542 87.4433 163.136 87.7C162.73 87.952 162.415 88.302 162.191 88.75C161.967 89.1933 161.855 89.709 161.855 90.297C161.855 90.8663 161.964 91.3703 162.184 91.809C162.408 92.243 162.725 92.5837 163.136 92.831C163.546 93.0783 164.034 93.202 164.599 93.202C165.187 93.202 165.695 93.0643 166.125 92.789C166.559 92.509 166.881 92.1287 167.091 91.648L168.043 92.005C167.767 92.663 167.326 93.1833 166.72 93.566C166.118 93.944 165.413 94.133 164.606 94.133ZM161.47 90.605V89.828H167.868L168.162 90.605H161.47ZM181.298 94V93.132H182.614V89.219C182.614 88.6077 182.479 88.1293 182.208 87.784C181.938 87.4387 181.515 87.266 180.941 87.266C180.479 87.266 180.069 87.3873 179.709 87.63C179.35 87.8727 179.068 88.2203 178.862 88.673C178.657 89.1257 178.554 89.6693 178.554 90.304L178.309 88.806H178.596C178.713 87.994 179.014 87.3873 179.499 86.986C179.989 86.5847 180.584 86.384 181.284 86.384C182.073 86.384 182.659 86.6173 183.041 87.084C183.429 87.5507 183.622 88.2087 183.622 89.058V93.132H185.05V94H181.298ZM170.98 94V93.132H172.471V87.413H170.98V86.545H173.479V93.132H174.802V94H170.98ZM176.23 94V93.132H177.546V89.219C177.546 88.6077 177.411 88.1293 177.14 87.784C176.87 87.4387 176.447 87.266 175.873 87.266C175.411 87.266 175.001 87.3873 174.641 87.63C174.282 87.8727 173.997 88.2203 173.787 88.673C173.582 89.1257 173.479 89.6693 173.479 90.304L173.241 88.806H173.528C173.64 87.994 173.941 87.3873 174.431 86.986C174.921 86.5847 175.516 86.384 176.216 86.384C177.005 86.384 177.591 86.6173 177.973 87.084C178.361 87.5507 178.554 88.2087 178.554 89.058V93.132H179.982V94H176.23ZM195.71 93.132H197.145V94H193.19V93.132H194.702V87.413H193.19V86.545H195.71V93.132ZM194.513 83.402H195.801V84.739H194.513V83.402ZM199.458 96.94V96.072H200.949V87.413H199.458V86.545H201.957V89.212L201.929 90.01V90.451L201.957 91.081V96.072H203.42V96.94H199.458ZM204.771 94.14C204.155 94.14 203.602 94.0047 203.112 93.734C202.626 93.4633 202.225 93.0783 201.908 92.579C201.59 92.075 201.38 91.473 201.278 90.773L201.929 90.29C201.929 90.864 202.038 91.3727 202.258 91.816C202.477 92.2547 202.792 92.6 203.203 92.852C203.613 93.104 204.101 93.23 204.666 93.23C205.221 93.23 205.704 93.104 206.115 92.852C206.525 92.6 206.84 92.2523 207.06 91.809C207.284 91.361 207.396 90.85 207.396 90.276C207.396 89.6927 207.281 89.1793 207.053 88.736C206.824 88.2927 206.504 87.945 206.094 87.693C205.683 87.4363 205.207 87.308 204.666 87.308C204.11 87.308 203.627 87.4363 203.217 87.693C202.806 87.945 202.489 88.295 202.265 88.743C202.041 89.191 201.929 89.7067 201.929 90.29L201.768 88.701H202.006C202.09 88.2903 202.253 87.9123 202.496 87.567C202.738 87.217 203.058 86.937 203.455 86.727C203.856 86.5123 204.332 86.405 204.883 86.405C205.405 86.405 205.884 86.5007 206.318 86.692C206.752 86.8787 207.125 87.147 207.438 87.497C207.755 87.8423 208 88.2507 208.173 88.722C208.35 89.1933 208.439 89.7113 208.439 90.276C208.439 91.0273 208.287 91.6947 207.984 92.278C207.68 92.8613 207.253 93.3187 206.703 93.65C206.157 93.9767 205.513 94.14 204.771 94.14ZM214.989 94.133C214.49 94.133 214.068 94.0583 213.722 93.909C213.382 93.7597 213.111 93.5613 212.91 93.314C212.71 93.062 212.579 92.782 212.518 92.474H212.266L212.469 91.648C212.558 92.138 212.801 92.537 213.197 92.845C213.599 93.153 214.119 93.307 214.758 93.307C215.304 93.307 215.727 93.1973 216.025 92.978C216.329 92.754 216.48 92.4297 216.48 92.005C216.48 91.6177 216.331 91.3167 216.032 91.102C215.734 90.8873 215.211 90.724 214.464 90.612C213.396 90.444 212.635 90.1803 212.182 89.821C211.73 89.457 211.503 88.9787 211.503 88.386C211.503 87.7887 211.711 87.3103 212.126 86.951C212.542 86.5917 213.12 86.412 213.862 86.412C214.352 86.412 214.756 86.4867 215.073 86.636C215.395 86.7853 215.643 86.986 215.815 87.238C215.988 87.4853 216.1 87.7583 216.151 88.057H216.403L216.2 88.848C216.116 88.372 215.888 87.9847 215.514 87.686C215.141 87.3827 214.653 87.231 214.051 87.231C213.566 87.231 213.186 87.3337 212.91 87.539C212.64 87.7443 212.504 88.0173 212.504 88.358C212.504 88.7173 212.675 88.9997 213.015 89.205C213.356 89.4057 213.893 89.5643 214.625 89.681C215.661 89.8443 216.396 90.1127 216.83 90.486C217.264 90.8593 217.481 91.3633 217.481 91.998C217.481 92.6653 217.267 93.188 216.837 93.566C216.413 93.944 215.797 94.133 214.989 94.133ZM211.461 94V91.648H212.469V94H211.461ZM216.2 88.848V86.545H217.208V88.848H216.2ZM226.496 87.413H225.054V86.545H227.504V93.132H228.96V94H226.496V87.413ZM222.331 86.545V91.298C222.331 91.9093 222.466 92.3923 222.737 92.747C223.012 93.097 223.444 93.272 224.032 93.272C224.503 93.272 224.923 93.153 225.292 92.915C225.665 92.6723 225.959 92.3247 226.174 91.872C226.388 91.4193 226.496 90.8757 226.496 90.241L226.741 91.732H226.447C226.321 92.5347 226.008 93.1413 225.509 93.552C225.014 93.958 224.405 94.161 223.682 94.161C222.879 94.161 222.284 93.923 221.897 93.447C221.514 92.971 221.323 92.3107 221.323 91.466V87.413H219.972V86.545H222.331ZM241.747 94V93.132H243.063V89.219C243.063 88.6077 242.928 88.1293 242.657 87.784C242.386 87.4387 241.964 87.266 241.39 87.266C240.928 87.266 240.517 87.3873 240.158 87.63C239.799 87.8727 239.516 88.2203 239.311 88.673C239.106 89.1257 239.003 89.6693 239.003 90.304L238.758 88.806H239.045C239.162 87.994 239.463 87.3873 239.948 86.986C240.438 86.5847 241.033 86.384 241.733 86.384C242.522 86.384 243.107 86.6173 243.49 87.084C243.877 87.5507 244.071 88.2087 244.071 89.058V93.132H245.499V94H241.747ZM231.429 94V93.132H232.92V87.413H231.429V86.545H233.928V93.132H235.251V94H231.429ZM236.679 94V93.132H237.995V89.219C237.995 88.6077 237.86 88.1293 237.589 87.784C237.318 87.4387 236.896 87.266 236.322 87.266C235.86 87.266 235.449 87.3873 235.09 87.63C234.731 87.8727 234.446 88.2203 234.236 88.673C234.031 89.1257 233.928 89.6693 233.928 90.304L233.69 88.806H233.977C234.089 87.994 234.39 87.3873 234.88 86.986C235.37 86.5847 235.965 86.384 236.665 86.384C237.454 86.384 238.039 86.6173 238.422 87.084C238.809 87.5507 239.003 88.2087 239.003 89.058V93.132H240.431V94H236.679ZM260.113 94V91.214L260.155 90.668V89.779L260.113 88.799V83.808H258.104V82.94H261.121V93.132H262.549V94H260.113ZM257.306 86.405C257.922 86.405 258.473 86.5403 258.958 86.811C259.448 87.0817 259.852 87.469 260.169 87.973C260.487 88.4723 260.697 89.072 260.799 89.772L260.155 90.255C260.155 89.681 260.043 89.1723 259.819 88.729C259.6 88.2857 259.285 87.9403 258.874 87.693C258.464 87.441 257.976 87.315 257.411 87.315C256.856 87.315 256.373 87.441 255.962 87.693C255.552 87.945 255.234 88.2927 255.01 88.736C254.791 89.1793 254.681 89.6927 254.681 90.276C254.681 90.8547 254.796 91.3657 255.024 91.809C255.253 92.2523 255.573 92.6023 255.983 92.859C256.399 93.111 256.875 93.237 257.411 93.237C257.971 93.237 258.454 93.111 258.86 92.859C259.271 92.6023 259.588 92.25 259.812 91.802C260.041 91.354 260.155 90.8383 260.155 90.255L260.309 91.844H260.071C259.987 92.2547 259.824 92.635 259.581 92.985C259.339 93.3303 259.019 93.6103 258.622 93.825C258.226 94.035 257.75 94.14 257.194 94.14C256.676 94.14 256.2 94.0467 255.766 93.86C255.332 93.6687 254.957 93.4003 254.639 93.055C254.322 92.705 254.075 92.2943 253.897 91.823C253.725 91.3517 253.638 90.836 253.638 90.276C253.638 89.52 253.79 88.8503 254.093 88.267C254.397 87.6837 254.821 87.2287 255.367 86.902C255.918 86.5707 256.564 86.405 257.306 86.405ZM268.917 94.133C268.143 94.133 267.464 93.9697 266.88 93.643C266.297 93.3117 265.842 92.859 265.515 92.285C265.189 91.711 265.025 91.0483 265.025 90.297C265.025 89.541 265.189 88.8713 265.515 88.288C265.842 87.7 266.297 87.2403 266.88 86.909C267.464 86.5777 268.143 86.412 268.917 86.412C269.692 86.412 270.371 86.5777 270.954 86.909C271.538 87.2403 271.993 87.7 272.319 88.288C272.646 88.8713 272.809 89.541 272.809 90.297C272.809 91.0483 272.646 91.711 272.319 92.285C271.993 92.859 271.538 93.3117 270.954 93.643C270.371 93.9697 269.692 94.133 268.917 94.133ZM268.917 93.202C269.477 93.202 269.97 93.0807 270.394 92.838C270.824 92.5953 271.157 92.257 271.395 91.823C271.638 91.3843 271.759 90.8757 271.759 90.297C271.759 89.7137 271.638 89.2003 271.395 88.757C271.157 88.3137 270.824 87.9683 270.394 87.721C269.97 87.469 269.477 87.343 268.917 87.343C268.357 87.343 267.863 87.469 267.433 87.721C267.009 87.9683 266.675 88.3137 266.432 88.757C266.194 89.2003 266.075 89.7137 266.075 90.297C266.075 90.8757 266.194 91.3843 266.432 91.823C266.675 92.257 267.009 92.5953 267.433 92.838C267.863 93.0807 268.357 93.202 268.917 93.202ZM277.827 93.132H279.36V94H275.286V93.132H276.819V83.808H275.286V82.94H277.827V93.132ZM285.663 94.133C284.888 94.133 284.209 93.9697 283.626 93.643C283.042 93.3117 282.587 92.859 282.261 92.285C281.934 91.711 281.771 91.0483 281.771 90.297C281.771 89.541 281.934 88.8713 282.261 88.288C282.587 87.7 283.042 87.2403 283.626 86.909C284.209 86.5777 284.888 86.412 285.663 86.412C286.437 86.412 287.116 86.5777 287.7 86.909C288.283 87.2403 288.738 87.7 289.065 88.288C289.391 88.8713 289.555 89.541 289.555 90.297C289.555 91.0483 289.391 91.711 289.065 92.285C288.738 92.859 288.283 93.3117 287.7 93.643C287.116 93.9697 286.437 94.133 285.663 94.133ZM285.663 93.202C286.223 93.202 286.715 93.0807 287.14 92.838C287.569 92.5953 287.903 92.257 288.141 91.823C288.383 91.3843 288.505 90.8757 288.505 90.297C288.505 89.7137 288.383 89.2003 288.141 88.757C287.903 88.3137 287.569 87.9683 287.14 87.721C286.715 87.469 286.223 87.343 285.663 87.343C285.103 87.343 284.608 87.469 284.179 87.721C283.754 87.9683 283.42 88.3137 283.178 88.757C282.94 89.2003 282.821 89.7137 282.821 90.297C282.821 90.8757 282.94 91.3843 283.178 91.823C283.42 92.257 283.754 92.5953 284.179 92.838C284.608 93.0807 285.103 93.202 285.663 93.202ZM294.938 93.132H296.394V94H292.397V93.132H293.93V87.413H292.397V86.545H294.938V93.132ZM297.801 87.616C297.717 87.5927 297.626 87.574 297.528 87.56C297.435 87.546 297.332 87.539 297.22 87.539C296.53 87.539 295.977 87.798 295.561 88.316C295.146 88.8293 294.938 89.5433 294.938 90.458L294.7 88.827H294.987C295.053 88.3323 295.188 87.9077 295.393 87.553C295.599 87.1937 295.865 86.9183 296.191 86.727C296.523 86.531 296.91 86.433 297.353 86.433C297.437 86.433 297.512 86.4377 297.577 86.447C297.647 86.4517 297.722 86.461 297.801 86.475V87.616ZM309.257 94.133C308.758 94.133 308.335 94.0583 307.99 93.909C307.649 93.7597 307.379 93.5613 307.178 93.314C306.977 93.062 306.847 92.782 306.786 92.474H306.534L306.737 91.648C306.826 92.138 307.068 92.537 307.465 92.845C307.866 93.153 308.387 93.307 309.026 93.307C309.572 93.307 309.994 93.1973 310.293 92.978C310.596 92.754 310.748 92.4297 310.748 92.005C310.748 91.6177 310.599 91.3167 310.3 91.102C310.001 90.8873 309.479 90.724 308.732 90.612C307.663 90.444 306.903 90.1803 306.45 89.821C305.997 89.457 305.771 88.9787 305.771 88.386C305.771 87.7887 305.979 87.3103 306.394 86.951C306.809 86.5917 307.388 86.412 308.13 86.412C308.62 86.412 309.024 86.4867 309.341 86.636C309.663 86.7853 309.91 86.986 310.083 87.238C310.256 87.4853 310.368 87.7583 310.419 88.057H310.671L310.468 88.848C310.384 88.372 310.155 87.9847 309.782 87.686C309.409 87.3827 308.921 87.231 308.319 87.231C307.834 87.231 307.453 87.3337 307.178 87.539C306.907 87.7443 306.772 88.0173 306.772 88.358C306.772 88.7173 306.942 88.9997 307.283 89.205C307.624 89.4057 308.16 89.5643 308.893 89.681C309.929 89.8443 310.664 90.1127 311.098 90.486C311.532 90.8593 311.749 91.3633 311.749 91.998C311.749 92.6653 311.534 93.188 311.105 93.566C310.68 93.944 310.064 94.133 309.257 94.133ZM305.729 94V91.648H306.737V94H305.729ZM310.468 88.848V86.545H311.476V88.848H310.468ZM317.214 93.132H318.649V94H314.694V93.132H316.206V87.413H314.694V86.545H317.214V93.132ZM316.017 83.402H317.305V84.739H316.017V83.402ZM323.112 92.026C323.112 92.418 323.186 92.7143 323.336 92.915C323.485 93.111 323.714 93.209 324.022 93.209C324.325 93.209 324.554 93.1087 324.708 92.908C324.862 92.7027 324.939 92.4087 324.939 92.026V91.333H325.849V92.019C325.849 92.467 325.781 92.8497 325.646 93.167C325.515 93.4797 325.314 93.72 325.044 93.888C324.773 94.0513 324.425 94.133 324.001 94.133C323.567 94.133 323.21 94.049 322.93 93.881C322.65 93.7083 322.442 93.4657 322.307 93.153C322.171 92.8403 322.104 92.4647 322.104 92.026L322.111 87.413H320.781V86.545H322.111V84.655H323.119V86.545H325.751L325.744 87.413H323.119L323.112 92.026ZM340.198 94C340.007 94 339.86 93.9393 339.757 93.818C339.659 93.6967 339.61 93.5263 339.61 93.307V91.067L339.701 90.836L339.652 89.989L339.61 89.548V88.981C339.61 88.5983 339.531 88.2857 339.372 88.043C339.218 87.8003 338.994 87.6207 338.7 87.504C338.406 87.3873 338.051 87.329 337.636 87.329C337.015 87.329 336.535 87.4527 336.194 87.7C335.858 87.9427 335.634 88.309 335.522 88.799L334.556 88.596C334.649 88.106 334.824 87.7 335.081 87.378C335.338 87.0513 335.678 86.8087 336.103 86.65C336.532 86.4867 337.055 86.405 337.671 86.405C338.315 86.405 338.854 86.496 339.288 86.678C339.727 86.8553 340.058 87.1283 340.282 87.497C340.506 87.8657 340.618 88.3417 340.618 88.925V93.132H341.717V94H340.198ZM336.684 94.098C335.909 94.098 335.321 93.9277 334.92 93.587C334.519 93.2417 334.318 92.7353 334.318 92.068C334.318 91.452 334.495 90.983 334.85 90.661C335.205 90.3343 335.774 90.0893 336.558 89.926L339.911 89.212V89.933L336.726 90.654C336.269 90.7613 335.926 90.92 335.697 91.13C335.473 91.3353 335.361 91.627 335.361 92.005C335.361 92.4157 335.487 92.7237 335.739 92.929C335.991 93.1297 336.36 93.23 336.845 93.23C337.382 93.23 337.862 93.1063 338.287 92.859C338.712 92.6117 339.045 92.2477 339.288 91.767C339.531 91.2863 339.652 90.6937 339.652 89.989L339.918 91.641H339.561C339.444 92.4203 339.141 93.0247 338.651 93.454C338.166 93.8833 337.51 94.098 336.684 94.098ZM354.584 94V93.132H355.9V89.219C355.9 88.6077 355.764 88.1293 355.494 87.784C355.223 87.4387 354.801 87.266 354.227 87.266C353.765 87.266 353.354 87.3873 352.995 87.63C352.635 87.8727 352.353 88.2203 352.148 88.673C351.942 89.1257 351.84 89.6693 351.84 90.304L351.595 88.806H351.882C351.998 87.994 352.299 87.3873 352.785 86.986C353.275 86.5847 353.87 86.384 354.57 86.384C355.358 86.384 355.944 86.6173 356.327 87.084C356.714 87.5507 356.908 88.2087 356.908 89.058V93.132H358.336V94H354.584ZM344.266 94V93.132H345.757V87.413H344.266V86.545H346.765V93.132H348.088V94H344.266ZM349.516 94V93.132H350.832V89.219C350.832 88.6077 350.696 88.1293 350.426 87.784C350.155 87.4387 349.733 87.266 349.159 87.266C348.697 87.266 348.286 87.3873 347.927 87.63C347.567 87.8727 347.283 88.2203 347.073 88.673C346.867 89.1257 346.765 89.6693 346.765 90.304L346.527 88.806H346.814C346.926 87.994 347.227 87.3873 347.717 86.986C348.207 86.5847 348.802 86.384 349.502 86.384C350.29 86.384 350.876 86.6173 351.259 87.084C351.646 87.5507 351.84 88.2087 351.84 89.058V93.132H353.268V94H349.516ZM364.576 94.133C363.806 94.133 363.139 93.9697 362.574 93.643C362.009 93.3163 361.573 92.866 361.265 92.292C360.957 91.7133 360.803 91.0483 360.803 90.297C360.803 89.5363 360.957 88.8643 361.265 88.281C361.578 87.6977 362.012 87.2403 362.567 86.909C363.127 86.5777 363.778 86.412 364.52 86.412C365.267 86.412 365.913 86.5753 366.459 86.902C367.005 87.2287 367.425 87.6813 367.719 88.26C368.013 88.8387 368.16 89.506 368.16 90.262C368.16 90.3507 368.158 90.4207 368.153 90.472C368.153 90.5233 368.148 90.5677 368.139 90.605H367.145C367.15 90.549 367.152 90.4883 367.152 90.423C367.157 90.353 367.159 90.2737 367.159 90.185C367.159 89.6297 367.052 89.1373 366.837 88.708C366.627 88.274 366.326 87.9333 365.934 87.686C365.542 87.4387 365.071 87.315 364.52 87.315C363.983 87.315 363.512 87.4433 363.106 87.7C362.7 87.952 362.385 88.302 362.161 88.75C361.937 89.1933 361.825 89.709 361.825 90.297C361.825 90.8663 361.935 91.3703 362.154 91.809C362.378 92.243 362.695 92.5837 363.106 92.831C363.517 93.0783 364.004 93.202 364.569 93.202C365.157 93.202 365.666 93.0643 366.095 92.789C366.529 92.509 366.851 92.1287 367.061 91.648L368.013 92.005C367.738 92.663 367.297 93.1833 366.69 93.566C366.088 93.944 365.383 94.133 364.576 94.133ZM361.44 90.605V89.828H367.838L368.132 90.605H361.44ZM372.945 92.026C372.945 92.418 373.02 92.7143 373.169 92.915C373.319 93.111 373.547 93.209 373.855 93.209C374.159 93.209 374.387 93.1087 374.541 92.908C374.695 92.7027 374.772 92.4087 374.772 92.026V91.333H375.682V92.019C375.682 92.467 375.615 92.8497 375.479 93.167C375.349 93.4797 375.148 93.72 374.877 93.888C374.607 94.0513 374.259 94.133 373.834 94.133C373.4 94.133 373.043 94.049 372.763 93.881C372.483 93.7083 372.276 93.4657 372.14 93.153C372.005 92.8403 371.937 92.4647 371.937 92.026L371.944 87.413H370.614V86.545H371.944V84.655H372.952V86.545H375.584L375.577 87.413H372.952L372.945 92.026ZM378.577 92.579H380.04V94H378.577V92.579ZM379.347 92.852H380.04V94.539C380.04 94.9963 379.907 95.351 379.641 95.603C379.375 95.855 379.018 95.981 378.57 95.981V95.337C378.812 95.337 379.001 95.2717 379.137 95.141C379.277 95.015 379.347 94.8143 379.347 94.539V92.852ZM135.62 117.133C134.845 117.133 134.171 116.97 133.597 116.643C133.028 116.316 132.584 115.866 132.267 115.292C131.954 114.713 131.798 114.048 131.798 113.297C131.798 112.728 131.884 112.207 132.057 111.736C132.23 111.26 132.477 110.849 132.799 110.504C133.121 110.154 133.504 109.886 133.947 109.699C134.39 109.508 134.885 109.412 135.431 109.412C135.958 109.412 136.397 109.498 136.747 109.671C137.102 109.839 137.377 110.072 137.573 110.371C137.769 110.665 137.895 111.003 137.951 111.386H138.196L137.993 112.443C137.932 112.023 137.795 111.654 137.58 111.337C137.365 111.015 137.085 110.765 136.74 110.588C136.395 110.406 135.996 110.315 135.543 110.315C135.002 110.315 134.526 110.443 134.115 110.7C133.709 110.952 133.392 111.302 133.163 111.75C132.939 112.193 132.827 112.709 132.827 113.297C132.827 113.866 132.941 114.37 133.17 114.809C133.403 115.243 133.728 115.584 134.143 115.831C134.563 116.078 135.058 116.202 135.627 116.202C136.215 116.202 136.721 116.074 137.146 115.817C137.571 115.556 137.881 115.206 138.077 114.767L139.008 115.18C138.742 115.782 138.315 116.258 137.727 116.608C137.144 116.958 136.441 117.133 135.62 117.133ZM137.993 112.443V109.545H139.001V112.443H137.993ZM145.805 117.133C145.03 117.133 144.351 116.97 143.768 116.643C143.185 116.312 142.73 115.859 142.403 115.285C142.076 114.711 141.913 114.048 141.913 113.297C141.913 112.541 142.076 111.871 142.403 111.288C142.73 110.7 143.185 110.24 143.768 109.909C144.351 109.578 145.03 109.412 145.805 109.412C146.58 109.412 147.259 109.578 147.842 109.909C148.425 110.24 148.88 110.7 149.207 111.288C149.534 111.871 149.697 112.541 149.697 113.297C149.697 114.048 149.534 114.711 149.207 115.285C148.88 115.859 148.425 116.312 147.842 116.643C147.259 116.97 146.58 117.133 145.805 117.133ZM145.805 116.202C146.365 116.202 146.857 116.081 147.282 115.838C147.711 115.595 148.045 115.257 148.283 114.823C148.526 114.384 148.647 113.876 148.647 113.297C148.647 112.714 148.526 112.2 148.283 111.757C148.045 111.314 147.711 110.968 147.282 110.721C146.857 110.469 146.365 110.343 145.805 110.343C145.245 110.343 144.75 110.469 144.321 110.721C143.896 110.968 143.563 111.314 143.32 111.757C143.082 112.2 142.963 112.714 142.963 113.297C142.963 113.876 143.082 114.384 143.32 114.823C143.563 115.257 143.896 115.595 144.321 115.838C144.75 116.081 145.245 116.202 145.805 116.202ZM155.081 116.132H156.411V117H152.54V116.132H154.073V110.413H152.54V109.545H155.081V116.132ZM159.379 116.132V112.233C159.379 111.622 159.241 111.141 158.966 110.791C158.69 110.441 158.256 110.266 157.664 110.266C157.183 110.266 156.747 110.385 156.355 110.623C155.963 110.861 155.652 111.206 155.424 111.659C155.195 112.112 155.081 112.66 155.081 113.304L154.85 111.813H155.13C155.218 111.304 155.389 110.873 155.641 110.518C155.893 110.159 156.215 109.886 156.607 109.699C157.003 109.508 157.458 109.412 157.972 109.412C158.784 109.412 159.388 109.648 159.785 110.119C160.186 110.586 160.387 111.246 160.387 112.1V116.132H161.822V117H158.07V116.132H159.379ZM167.931 117.133C167.431 117.133 167.009 117.058 166.664 116.909C166.323 116.76 166.052 116.561 165.852 116.314C165.651 116.062 165.52 115.782 165.46 115.474H165.208L165.411 114.648C165.499 115.138 165.742 115.537 166.139 115.845C166.54 116.153 167.06 116.307 167.7 116.307C168.246 116.307 168.668 116.197 168.967 115.978C169.27 115.754 169.422 115.43 169.422 115.005C169.422 114.618 169.272 114.317 168.974 114.102C168.675 113.887 168.152 113.724 167.406 113.612C166.337 113.444 165.576 113.18 165.124 112.821C164.671 112.457 164.445 111.979 164.445 111.386C164.445 110.789 164.652 110.31 165.068 109.951C165.483 109.592 166.062 109.412 166.804 109.412C167.294 109.412 167.697 109.487 168.015 109.636C168.337 109.785 168.584 109.986 168.757 110.238C168.929 110.485 169.041 110.758 169.093 111.057H169.345L169.142 111.848C169.058 111.372 168.829 110.985 168.456 110.686C168.082 110.383 167.595 110.231 166.993 110.231C166.507 110.231 166.127 110.334 165.852 110.539C165.581 110.744 165.446 111.017 165.446 111.358C165.446 111.717 165.616 112 165.957 112.205C166.297 112.406 166.834 112.564 167.567 112.681C168.603 112.844 169.338 113.113 169.772 113.486C170.206 113.859 170.423 114.363 170.423 114.998C170.423 115.665 170.208 116.188 169.779 116.566C169.354 116.944 168.738 117.133 167.931 117.133ZM164.403 117V114.648H165.411V117H164.403ZM169.142 111.848V109.545H170.15V111.848H169.142ZM177.162 117.133C176.392 117.133 175.725 116.97 175.16 116.643C174.595 116.316 174.159 115.866 173.851 115.292C173.543 114.713 173.389 114.048 173.389 113.297C173.389 112.536 173.543 111.864 173.851 111.281C174.164 110.698 174.598 110.24 175.153 109.909C175.713 109.578 176.364 109.412 177.106 109.412C177.853 109.412 178.499 109.575 179.045 109.902C179.591 110.229 180.011 110.681 180.305 111.26C180.599 111.839 180.746 112.506 180.746 113.262C180.746 113.351 180.744 113.421 180.739 113.472C180.739 113.523 180.734 113.568 180.725 113.605H179.731C179.736 113.549 179.738 113.488 179.738 113.423C179.743 113.353 179.745 113.274 179.745 113.185C179.745 112.63 179.638 112.137 179.423 111.708C179.213 111.274 178.912 110.933 178.52 110.686C178.128 110.439 177.657 110.315 177.106 110.315C176.569 110.315 176.098 110.443 175.692 110.7C175.286 110.952 174.971 111.302 174.747 111.75C174.523 112.193 174.411 112.709 174.411 113.297C174.411 113.866 174.521 114.37 174.74 114.809C174.964 115.243 175.281 115.584 175.692 115.831C176.103 116.078 176.59 116.202 177.155 116.202C177.743 116.202 178.252 116.064 178.681 115.789C179.115 115.509 179.437 115.129 179.647 114.648L180.599 115.005C180.324 115.663 179.883 116.183 179.276 116.566C178.674 116.944 177.969 117.133 177.162 117.133ZM174.026 113.605V112.828H180.424L180.718 113.605H174.026ZM187.477 117.133C186.703 117.133 186.028 116.97 185.454 116.643C184.885 116.316 184.442 115.866 184.124 115.292C183.812 114.713 183.655 114.048 183.655 113.297C183.655 112.728 183.742 112.207 183.914 111.736C184.087 111.26 184.334 110.849 184.656 110.504C184.978 110.154 185.361 109.886 185.804 109.699C186.248 109.508 186.742 109.412 187.288 109.412C187.816 109.412 188.254 109.498 188.604 109.671C188.959 109.839 189.234 110.072 189.43 110.371C189.626 110.665 189.752 111.003 189.808 111.386H190.053L189.85 112.443C189.79 112.023 189.652 111.654 189.437 111.337C189.223 111.015 188.943 110.765 188.597 110.588C188.252 110.406 187.853 110.315 187.4 110.315C186.859 110.315 186.383 110.443 185.972 110.7C185.566 110.952 185.249 111.302 185.02 111.75C184.796 112.193 184.684 112.709 184.684 113.297C184.684 113.866 184.799 114.37 185.027 114.809C185.261 115.243 185.585 115.584 186 115.831C186.42 116.078 186.915 116.202 187.484 116.202C188.072 116.202 188.579 116.074 189.003 115.817C189.428 115.556 189.738 115.206 189.934 114.767L190.865 115.18C190.599 115.782 190.172 116.258 189.584 116.608C189.001 116.958 188.299 117.133 187.477 117.133ZM189.85 112.443V109.545H190.858V112.443H189.85ZM195.681 115.026C195.681 115.418 195.756 115.714 195.905 115.915C196.055 116.111 196.283 116.209 196.591 116.209C196.895 116.209 197.123 116.109 197.277 115.908C197.431 115.703 197.508 115.409 197.508 115.026V114.333H198.418V115.019C198.418 115.467 198.351 115.85 198.215 116.167C198.085 116.48 197.884 116.72 197.613 116.888C197.343 117.051 196.995 117.133 196.57 117.133C196.136 117.133 195.779 117.049 195.499 116.881C195.219 116.708 195.012 116.466 194.876 116.153C194.741 115.84 194.673 115.465 194.673 115.026L194.68 110.413H193.35V109.545H194.68V107.655H195.688V109.545H198.32L198.313 110.413H195.688L195.681 115.026ZM204.946 117.133C204.176 117.133 203.509 116.97 202.944 116.643C202.379 116.316 201.943 115.866 201.635 115.292C201.327 114.713 201.173 114.048 201.173 113.297C201.173 112.536 201.327 111.864 201.635 111.281C201.948 110.698 202.382 110.24 202.937 109.909C203.497 109.578 204.148 109.412 204.89 109.412C205.637 109.412 206.283 109.575 206.829 109.902C207.375 110.229 207.795 110.681 208.089 111.26C208.383 111.839 208.53 112.506 208.53 113.262C208.53 113.351 208.528 113.421 208.523 113.472C208.523 113.523 208.518 113.568 208.509 113.605H207.515C207.52 113.549 207.522 113.488 207.522 113.423C207.527 113.353 207.529 113.274 207.529 113.185C207.529 112.63 207.422 112.137 207.207 111.708C206.997 111.274 206.696 110.933 206.304 110.686C205.912 110.439 205.441 110.315 204.89 110.315C204.353 110.315 203.882 110.443 203.476 110.7C203.07 110.952 202.755 111.302 202.531 111.75C202.307 112.193 202.195 112.709 202.195 113.297C202.195 113.866 202.305 114.37 202.524 114.809C202.748 115.243 203.065 115.584 203.476 115.831C203.887 116.078 204.374 116.202 204.939 116.202C205.527 116.202 206.036 116.064 206.465 115.789C206.899 115.509 207.221 115.129 207.431 114.648L208.383 115.005C208.108 115.663 207.667 116.183 207.06 116.566C206.458 116.944 205.753 117.133 204.946 117.133ZM201.81 113.605V112.828H208.208L208.502 113.605H201.81ZM213.315 115.026C213.315 115.418 213.39 115.714 213.539 115.915C213.689 116.111 213.917 116.209 214.225 116.209C214.529 116.209 214.757 116.109 214.911 115.908C215.065 115.703 215.142 115.409 215.142 115.026V114.333H216.052V115.019C216.052 115.467 215.985 115.85 215.849 116.167C215.719 116.48 215.518 116.72 215.247 116.888C214.977 117.051 214.629 117.133 214.204 117.133C213.77 117.133 213.413 117.049 213.133 116.881C212.853 116.708 212.646 116.466 212.51 116.153C212.375 115.84 212.307 115.465 212.307 115.026L212.314 110.413H210.984V109.545H212.314V107.655H213.322V109.545H215.954L215.947 110.413H213.322L213.315 115.026ZM224.855 110.413H223.413V109.545H225.863V116.132H227.319V117H224.855V110.413ZM220.69 109.545V114.298C220.69 114.909 220.825 115.392 221.096 115.747C221.371 116.097 221.803 116.272 222.391 116.272C222.862 116.272 223.282 116.153 223.651 115.915C224.024 115.672 224.318 115.325 224.533 114.872C224.748 114.419 224.855 113.876 224.855 113.241L225.1 114.732H224.806C224.68 115.535 224.367 116.141 223.868 116.552C223.373 116.958 222.764 117.161 222.041 117.161C221.238 117.161 220.643 116.923 220.256 116.447C219.873 115.971 219.682 115.311 219.682 114.466V110.413H218.331V109.545H220.69ZM233.673 117.133C232.903 117.133 232.236 116.97 231.671 116.643C231.107 116.316 230.67 115.866 230.362 115.292C230.054 114.713 229.9 114.048 229.9 113.297C229.9 112.536 230.054 111.864 230.362 111.281C230.675 110.698 231.109 110.24 231.664 109.909C232.224 109.578 232.875 109.412 233.617 109.412C234.364 109.412 235.01 109.575 235.556 109.902C236.102 110.229 236.522 110.681 236.816 111.26C237.11 111.839 237.257 112.506 237.257 113.262C237.257 113.351 237.255 113.421 237.25 113.472C237.25 113.523 237.246 113.568 237.236 113.605H236.242C236.247 113.549 236.249 113.488 236.249 113.423C236.254 113.353 236.256 113.274 236.256 113.185C236.256 112.63 236.149 112.137 235.934 111.708C235.724 111.274 235.423 110.933 235.031 110.686C234.639 110.439 234.168 110.315 233.617 110.315C233.081 110.315 232.609 110.443 232.203 110.7C231.797 110.952 231.482 111.302 231.258 111.75C231.034 112.193 230.922 112.709 230.922 113.297C230.922 113.866 231.032 114.37 231.251 114.809C231.475 115.243 231.793 115.584 232.203 115.831C232.614 116.078 233.102 116.202 233.666 116.202C234.254 116.202 234.763 116.064 235.192 115.789C235.626 115.509 235.948 115.129 236.158 114.648L237.11 115.005C236.835 115.663 236.394 116.183 235.787 116.566C235.185 116.944 234.481 117.133 233.673 117.133ZM230.537 113.605V112.828H236.935L237.229 113.605H230.537ZM242.589 116.132H244.045V117H240.048V116.132H241.581V110.413H240.048V109.545H242.589V116.132ZM245.452 110.616C245.368 110.593 245.277 110.574 245.179 110.56C245.085 110.546 244.983 110.539 244.871 110.539C244.18 110.539 243.627 110.798 243.212 111.316C242.796 111.829 242.589 112.543 242.589 113.458L242.351 111.827H242.638C242.703 111.332 242.838 110.908 243.044 110.553C243.249 110.194 243.515 109.918 243.842 109.727C244.173 109.531 244.56 109.433 245.004 109.433C245.088 109.433 245.162 109.438 245.228 109.447C245.298 109.452 245.372 109.461 245.452 109.475V110.616ZM259.252 117C259.061 117 258.914 116.939 258.811 116.818C258.713 116.697 258.664 116.526 258.664 116.307V114.067L258.755 113.836L258.706 112.989L258.664 112.548V111.981C258.664 111.598 258.585 111.286 258.426 111.043C258.272 110.8 258.048 110.621 257.754 110.504C257.46 110.387 257.106 110.329 256.69 110.329C256.07 110.329 255.589 110.453 255.248 110.7C254.912 110.943 254.688 111.309 254.576 111.799L253.61 111.596C253.704 111.106 253.879 110.7 254.135 110.378C254.392 110.051 254.733 109.809 255.157 109.65C255.587 109.487 256.109 109.405 256.725 109.405C257.369 109.405 257.908 109.496 258.342 109.678C258.781 109.855 259.112 110.128 259.336 110.497C259.56 110.866 259.672 111.342 259.672 111.925V116.132H260.771V117H259.252ZM255.738 117.098C254.964 117.098 254.376 116.928 253.974 116.587C253.573 116.242 253.372 115.735 253.372 115.068C253.372 114.452 253.55 113.983 253.904 113.661C254.259 113.334 254.828 113.089 255.612 112.926L258.965 112.212V112.933L255.78 113.654C255.323 113.761 254.98 113.92 254.751 114.13C254.527 114.335 254.415 114.627 254.415 115.005C254.415 115.416 254.541 115.724 254.793 115.929C255.045 116.13 255.414 116.23 255.899 116.23C256.436 116.23 256.917 116.106 257.341 115.859C257.766 115.612 258.1 115.248 258.342 114.767C258.585 114.286 258.706 113.694 258.706 112.989L258.972 114.641H258.615C258.499 115.42 258.195 116.025 257.705 116.454C257.22 116.883 256.564 117.098 255.738 117.098ZM269.845 117V114.214L269.887 113.668V112.779L269.845 111.799V106.808H267.836V105.94H270.853V116.132H272.281V117H269.845ZM267.038 109.405C267.654 109.405 268.205 109.54 268.69 109.811C269.18 110.082 269.584 110.469 269.901 110.973C270.218 111.472 270.428 112.072 270.531 112.772L269.887 113.255C269.887 112.681 269.775 112.172 269.551 111.729C269.332 111.286 269.017 110.94 268.606 110.693C268.195 110.441 267.708 110.315 267.143 110.315C266.588 110.315 266.105 110.441 265.694 110.693C265.283 110.945 264.966 111.293 264.742 111.736C264.523 112.179 264.413 112.693 264.413 113.276C264.413 113.855 264.527 114.366 264.756 114.809C264.985 115.252 265.304 115.602 265.715 115.859C266.13 116.111 266.606 116.237 267.143 116.237C267.703 116.237 268.186 116.111 268.592 115.859C269.003 115.602 269.32 115.25 269.544 114.802C269.773 114.354 269.887 113.838 269.887 113.255L270.041 114.844H269.803C269.719 115.255 269.556 115.635 269.313 115.985C269.07 116.33 268.751 116.61 268.354 116.825C267.957 117.035 267.481 117.14 266.926 117.14C266.408 117.14 265.932 117.047 265.498 116.86C265.064 116.669 264.688 116.4 264.371 116.055C264.054 115.705 263.806 115.294 263.629 114.823C263.456 114.352 263.37 113.836 263.37 113.276C263.37 112.52 263.522 111.85 263.825 111.267C264.128 110.684 264.553 110.229 265.099 109.902C265.65 109.571 266.296 109.405 267.038 109.405ZM277.435 116.132H278.87V117H274.915V116.132H276.427V110.413H274.915V109.545H277.435V116.132ZM276.238 106.402H277.526V107.739H276.238V106.402ZM281.183 119.94V119.072H282.674V110.413H281.183V109.545H283.682V112.212L283.654 113.01V113.451L283.682 114.081V119.072H285.145V119.94H281.183ZM286.496 117.14C285.88 117.14 285.327 117.005 284.837 116.734C284.351 116.463 283.95 116.078 283.633 115.579C283.315 115.075 283.105 114.473 283.003 113.773L283.654 113.29C283.654 113.864 283.763 114.373 283.983 114.816C284.202 115.255 284.517 115.6 284.928 115.852C285.338 116.104 285.826 116.23 286.391 116.23C286.946 116.23 287.429 116.104 287.84 115.852C288.25 115.6 288.565 115.252 288.785 114.809C289.009 114.361 289.121 113.85 289.121 113.276C289.121 112.693 289.006 112.179 288.778 111.736C288.549 111.293 288.229 110.945 287.819 110.693C287.408 110.436 286.932 110.308 286.391 110.308C285.835 110.308 285.352 110.436 284.942 110.693C284.531 110.945 284.214 111.295 283.99 111.743C283.766 112.191 283.654 112.707 283.654 113.29L283.493 111.701H283.731C283.815 111.29 283.978 110.912 284.221 110.567C284.463 110.217 284.783 109.937 285.18 109.727C285.581 109.512 286.057 109.405 286.608 109.405C287.13 109.405 287.609 109.501 288.043 109.692C288.477 109.879 288.85 110.147 289.163 110.497C289.48 110.842 289.725 111.251 289.898 111.722C290.075 112.193 290.164 112.711 290.164 113.276C290.164 114.027 290.012 114.695 289.709 115.278C289.405 115.861 288.978 116.319 288.428 116.65C287.882 116.977 287.238 117.14 286.496 117.14ZM295.615 116.132H297.05V117H293.095V116.132H294.607V110.413H293.095V109.545H295.615V116.132ZM294.418 106.402H295.706V107.739H294.418V106.402ZM303.228 117.133C302.728 117.133 302.306 117.058 301.961 116.909C301.62 116.76 301.349 116.561 301.149 116.314C300.948 116.062 300.817 115.782 300.757 115.474H300.505L300.708 114.648C300.796 115.138 301.039 115.537 301.436 115.845C301.837 116.153 302.357 116.307 302.997 116.307C303.543 116.307 303.965 116.197 304.264 115.978C304.567 115.754 304.719 115.43 304.719 115.005C304.719 114.618 304.569 114.317 304.271 114.102C303.972 113.887 303.449 113.724 302.703 113.612C301.634 113.444 300.873 113.18 300.421 112.821C299.968 112.457 299.742 111.979 299.742 111.386C299.742 110.789 299.949 110.31 300.365 109.951C300.78 109.592 301.359 109.412 302.101 109.412C302.591 109.412 302.994 109.487 303.312 109.636C303.634 109.785 303.881 109.986 304.054 110.238C304.226 110.485 304.338 110.758 304.39 111.057H304.642L304.439 111.848C304.355 111.372 304.126 110.985 303.753 110.686C303.379 110.383 302.892 110.231 302.29 110.231C301.804 110.231 301.424 110.334 301.149 110.539C300.878 110.744 300.743 111.017 300.743 111.358C300.743 111.717 300.913 112 301.254 112.205C301.594 112.406 302.131 112.564 302.864 112.681C303.9 112.844 304.635 113.113 305.069 113.486C305.503 113.859 305.72 114.363 305.72 114.998C305.72 115.665 305.505 116.188 305.076 116.566C304.651 116.944 304.035 117.133 303.228 117.133ZM299.7 117V114.648H300.708V117H299.7ZM304.439 111.848V109.545H305.447V111.848H304.439ZM312.515 117.133C311.74 117.133 311.066 116.97 310.492 116.643C309.923 116.316 309.479 115.866 309.162 115.292C308.849 114.713 308.693 114.048 308.693 113.297C308.693 112.728 308.779 112.207 308.952 111.736C309.125 111.26 309.372 110.849 309.694 110.504C310.016 110.154 310.399 109.886 310.842 109.699C311.285 109.508 311.78 109.412 312.326 109.412C312.853 109.412 313.292 109.498 313.642 109.671C313.997 109.839 314.272 110.072 314.468 110.371C314.664 110.665 314.79 111.003 314.846 111.386H315.091L314.888 112.443C314.827 112.023 314.69 111.654 314.475 111.337C314.26 111.015 313.98 110.765 313.635 110.588C313.29 110.406 312.891 110.315 312.438 110.315C311.897 110.315 311.421 110.443 311.01 110.7C310.604 110.952 310.287 111.302 310.058 111.75C309.834 112.193 309.722 112.709 309.722 113.297C309.722 113.866 309.836 114.37 310.065 114.809C310.298 115.243 310.623 115.584 311.038 115.831C311.458 116.078 311.953 116.202 312.522 116.202C313.11 116.202 313.616 116.074 314.041 115.817C314.466 115.556 314.776 115.206 314.972 114.767L315.903 115.18C315.637 115.782 315.21 116.258 314.622 116.608C314.039 116.958 313.336 117.133 312.515 117.133ZM314.888 112.443V109.545H315.896V112.443H314.888ZM321.335 116.132H322.77V117H318.815V116.132H320.327V110.413H318.815V109.545H321.335V116.132ZM320.138 106.402H321.426V107.739H320.138V106.402ZM327.778 116.132H329.108V117H325.237V116.132H326.77V110.413H325.237V109.545H327.778V116.132ZM332.076 116.132V112.233C332.076 111.622 331.939 111.141 331.663 110.791C331.388 110.441 330.954 110.266 330.361 110.266C329.881 110.266 329.444 110.385 329.052 110.623C328.66 110.861 328.35 111.206 328.121 111.659C327.893 112.112 327.778 112.66 327.778 113.304L327.547 111.813H327.827C327.916 111.304 328.086 110.873 328.338 110.518C328.59 110.159 328.912 109.886 329.304 109.699C329.701 109.508 330.156 109.412 330.669 109.412C331.481 109.412 332.086 109.648 332.482 110.119C332.884 110.586 333.084 111.246 333.084 112.1V116.132H334.519V117H330.767V116.132H332.076ZM340.551 120.094C339.898 120.094 339.305 120.031 338.773 119.905C338.246 119.784 337.826 119.59 337.513 119.324C337.201 119.058 337.044 118.706 337.044 118.267C337.044 117.828 337.201 117.495 337.513 117.266C337.831 117.042 338.239 116.895 338.738 116.825V116.706L339.984 116.825C339.466 116.825 339.06 116.886 338.766 117.007C338.472 117.133 338.265 117.292 338.143 117.483C338.022 117.679 337.961 117.88 337.961 118.085C337.961 118.402 338.078 118.65 338.311 118.827C338.545 119.004 338.857 119.13 339.249 119.205C339.646 119.28 340.089 119.317 340.579 119.317C341.564 119.317 342.283 119.184 342.735 118.918C343.193 118.657 343.421 118.29 343.421 117.819C343.421 117.156 342.992 116.825 342.133 116.825H339.277C338.717 116.825 338.276 116.725 337.954 116.524C337.637 116.319 337.478 116.025 337.478 115.642C337.478 115.278 337.623 115 337.912 114.809C338.202 114.613 338.615 114.494 339.151 114.452V114.242L340.425 114.606H339.662C339.261 114.606 338.955 114.662 338.745 114.774C338.535 114.881 338.43 115.047 338.43 115.271C338.43 115.481 338.526 115.633 338.717 115.726C338.913 115.815 339.207 115.859 339.599 115.859H342.105C342.586 115.859 342.994 115.938 343.33 116.097C343.671 116.251 343.928 116.473 344.1 116.762C344.278 117.051 344.366 117.397 344.366 117.798C344.366 118.227 344.245 118.615 344.002 118.96C343.76 119.31 343.358 119.585 342.798 119.786C342.243 119.991 341.494 120.094 340.551 120.094ZM340.425 114.606C339.833 114.606 339.305 114.499 338.843 114.284C338.381 114.069 338.017 113.768 337.751 113.381C337.485 112.994 337.352 112.539 337.352 112.016C337.352 111.493 337.483 111.038 337.744 110.651C338.01 110.259 338.372 109.956 338.829 109.741C339.291 109.522 339.823 109.412 340.425 109.412C341.037 109.412 341.576 109.526 342.042 109.755C342.514 109.984 342.873 110.301 343.12 110.707C343.242 110.894 343.33 111.097 343.386 111.316C343.447 111.531 343.477 111.764 343.477 112.016C343.477 112.539 343.347 112.994 343.085 113.381C342.824 113.768 342.462 114.069 342 114.284C341.543 114.499 341.018 114.606 340.425 114.606ZM340.425 113.78C340.822 113.78 341.174 113.708 341.482 113.563C341.795 113.418 342.04 113.213 342.217 112.947C342.399 112.681 342.49 112.371 342.49 112.016C342.49 111.661 342.399 111.351 342.217 111.085C342.04 110.814 341.795 110.607 341.482 110.462C341.174 110.313 340.822 110.238 340.425 110.238C340.019 110.238 339.66 110.313 339.347 110.462C339.035 110.607 338.787 110.814 338.605 111.085C338.428 111.351 338.339 111.661 338.339 112.016C338.339 112.371 338.428 112.681 338.605 112.947C338.787 113.213 339.035 113.418 339.347 113.563C339.665 113.708 340.024 113.78 340.425 113.78ZM343.477 112.016L343.127 111.197L342.819 110.693L343.099 110.581C343.085 110.534 343.074 110.488 343.064 110.441C343.06 110.39 343.057 110.336 343.057 110.28C343.057 110.084 343.104 109.907 343.197 109.748C343.291 109.589 343.426 109.463 343.603 109.37C343.781 109.277 343.998 109.23 344.254 109.23C344.32 109.23 344.378 109.232 344.429 109.237C344.485 109.242 344.539 109.251 344.59 109.265V110.238C344.502 110.224 344.42 110.215 344.345 110.21C344.271 110.201 344.196 110.196 344.121 110.196C343.925 110.196 343.767 110.224 343.645 110.28C343.529 110.336 343.445 110.408 343.393 110.497C343.342 110.581 343.316 110.674 343.316 110.777C343.316 110.875 343.33 110.982 343.358 111.099C343.386 111.211 343.412 111.342 343.435 111.491C343.463 111.64 343.477 111.815 343.477 112.016ZM135.564 140.133C134.794 140.133 134.127 139.97 133.562 139.643C132.997 139.316 132.561 138.866 132.253 138.292C131.945 137.713 131.791 137.048 131.791 136.297C131.791 135.536 131.945 134.864 132.253 134.281C132.566 133.698 133 133.24 133.555 132.909C134.115 132.578 134.766 132.412 135.508 132.412C136.255 132.412 136.901 132.575 137.447 132.902C137.993 133.229 138.413 133.681 138.707 134.26C139.001 134.839 139.148 135.506 139.148 136.262C139.148 136.351 139.146 136.421 139.141 136.472C139.141 136.523 139.136 136.568 139.127 136.605H138.133C138.138 136.549 138.14 136.488 138.14 136.423C138.145 136.353 138.147 136.274 138.147 136.185C138.147 135.63 138.04 135.137 137.825 134.708C137.615 134.274 137.314 133.933 136.922 133.686C136.53 133.439 136.059 133.315 135.508 133.315C134.971 133.315 134.5 133.443 134.094 133.7C133.688 133.952 133.373 134.302 133.149 134.75C132.925 135.193 132.813 135.709 132.813 136.297C132.813 136.866 132.923 137.37 133.142 137.809C133.366 138.243 133.683 138.584 134.094 138.831C134.505 139.078 134.992 139.202 135.557 139.202C136.145 139.202 136.654 139.064 137.083 138.789C137.517 138.509 137.839 138.129 138.049 137.648L139.001 138.005C138.726 138.663 138.285 139.183 137.678 139.566C137.076 139.944 136.371 140.133 135.564 140.133ZM132.428 136.605V135.828H138.826L139.12 136.605H132.428ZM144.113 139.132H145.646V140H141.572V139.132H143.105V129.808H141.572V128.94H144.113V139.132ZM150.735 139.132H152.17V140H148.215V139.132H149.727V133.413H148.215V132.545H150.735V139.132ZM149.538 129.402H150.826V130.739H149.538V129.402ZM156.632 138.026C156.632 138.418 156.706 138.714 156.856 138.915C157.005 139.111 157.234 139.209 157.542 139.209C157.845 139.209 158.074 139.109 158.228 138.908C158.382 138.703 158.459 138.409 158.459 138.026V137.333H159.369V138.019C159.369 138.467 159.301 138.85 159.166 139.167C159.035 139.48 158.834 139.72 158.564 139.888C158.293 140.051 157.945 140.133 157.521 140.133C157.087 140.133 156.73 140.049 156.45 139.881C156.17 139.708 155.962 139.466 155.827 139.153C155.691 138.84 155.624 138.465 155.624 138.026L155.631 133.413H154.301V132.545H155.631V130.655H156.639V132.545H159.271L159.264 133.413H156.639L156.632 138.026ZM162.263 138.579H163.726V140H162.263V138.579ZM163.033 138.852H163.726V140.539C163.726 140.996 163.593 141.351 163.327 141.603C163.061 141.855 162.704 141.981 162.256 141.981V141.337C162.499 141.337 162.688 141.272 162.823 141.141C162.963 141.015 163.033 140.814 163.033 140.539V138.852ZM176.082 140.133C175.583 140.133 175.16 140.058 174.815 139.909C174.474 139.76 174.204 139.561 174.003 139.314C173.802 139.062 173.672 138.782 173.611 138.474H173.359L173.562 137.648C173.651 138.138 173.893 138.537 174.29 138.845C174.691 139.153 175.212 139.307 175.851 139.307C176.397 139.307 176.819 139.197 177.118 138.978C177.421 138.754 177.573 138.43 177.573 138.005C177.573 137.618 177.424 137.317 177.125 137.102C176.826 136.887 176.304 136.724 175.557 136.612C174.488 136.444 173.728 136.18 173.275 135.821C172.822 135.457 172.596 134.979 172.596 134.386C172.596 133.789 172.804 133.31 173.219 132.951C173.634 132.592 174.213 132.412 174.955 132.412C175.445 132.412 175.849 132.487 176.166 132.636C176.488 132.785 176.735 132.986 176.908 133.238C177.081 133.485 177.193 133.758 177.244 134.057H177.496L177.293 134.848C177.209 134.372 176.98 133.985 176.607 133.686C176.234 133.383 175.746 133.231 175.144 133.231C174.659 133.231 174.278 133.334 174.003 133.539C173.732 133.744 173.597 134.017 173.597 134.358C173.597 134.717 173.767 135 174.108 135.205C174.449 135.406 174.985 135.564 175.718 135.681C176.754 135.844 177.489 136.113 177.923 136.486C178.357 136.859 178.574 137.363 178.574 137.998C178.574 138.665 178.359 139.188 177.93 139.566C177.505 139.944 176.889 140.133 176.082 140.133ZM172.554 140V137.648H173.562V140H172.554ZM177.293 134.848V132.545H178.301V134.848H177.293ZM185.313 140.133C184.543 140.133 183.876 139.97 183.311 139.643C182.747 139.316 182.31 138.866 182.002 138.292C181.694 137.713 181.54 137.048 181.54 136.297C181.54 135.536 181.694 134.864 182.002 134.281C182.315 133.698 182.749 133.24 183.304 132.909C183.864 132.578 184.515 132.412 185.257 132.412C186.004 132.412 186.65 132.575 187.196 132.902C187.742 133.229 188.162 133.681 188.456 134.26C188.75 134.839 188.897 135.506 188.897 136.262C188.897 136.351 188.895 136.421 188.89 136.472C188.89 136.523 188.886 136.568 188.876 136.605H187.882C187.887 136.549 187.889 136.488 187.889 136.423C187.894 136.353 187.896 136.274 187.896 136.185C187.896 135.63 187.789 135.137 187.574 134.708C187.364 134.274 187.063 133.933 186.671 133.686C186.279 133.439 185.808 133.315 185.257 133.315C184.721 133.315 184.249 133.443 183.843 133.7C183.437 133.952 183.122 134.302 182.898 134.75C182.674 135.193 182.562 135.709 182.562 136.297C182.562 136.866 182.672 137.37 182.891 137.809C183.115 138.243 183.433 138.584 183.843 138.831C184.254 139.078 184.742 139.202 185.306 139.202C185.894 139.202 186.403 139.064 186.832 138.789C187.266 138.509 187.588 138.129 187.798 137.648L188.75 138.005C188.475 138.663 188.034 139.183 187.427 139.566C186.825 139.944 186.121 140.133 185.313 140.133ZM182.177 136.605V135.828H188.575L188.869 136.605H182.177ZM198.254 140V137.214L198.296 136.668V135.779L198.254 134.799V129.808H196.245V128.94H199.262V139.132H200.69V140H198.254ZM195.447 132.405C196.063 132.405 196.613 132.54 197.099 132.811C197.589 133.082 197.992 133.469 198.31 133.973C198.627 134.472 198.837 135.072 198.94 135.772L198.296 136.255C198.296 135.681 198.184 135.172 197.96 134.729C197.74 134.286 197.425 133.94 197.015 133.693C196.604 133.441 196.116 133.315 195.552 133.315C194.996 133.315 194.513 133.441 194.103 133.693C193.692 133.945 193.375 134.293 193.151 134.736C192.931 135.179 192.822 135.693 192.822 136.276C192.822 136.855 192.936 137.366 193.165 137.809C193.393 138.252 193.713 138.602 194.124 138.859C194.539 139.111 195.015 139.237 195.552 139.237C196.112 139.237 196.595 139.111 197.001 138.859C197.411 138.602 197.729 138.25 197.953 137.802C198.181 137.354 198.296 136.838 198.296 136.255L198.45 137.844H198.212C198.128 138.255 197.964 138.635 197.722 138.985C197.479 139.33 197.159 139.61 196.763 139.825C196.366 140.035 195.89 140.14 195.335 140.14C194.817 140.14 194.341 140.047 193.907 139.86C193.473 139.669 193.097 139.4 192.78 139.055C192.462 138.705 192.215 138.294 192.038 137.823C191.865 137.352 191.779 136.836 191.779 136.276C191.779 135.52 191.93 134.85 192.234 134.267C192.537 133.684 192.962 133.229 193.508 132.902C194.058 132.571 194.705 132.405 195.447 132.405ZM215.45 140V137.214L215.492 136.668V135.779L215.45 134.799V129.808H213.441V128.94H216.458V139.132H217.886V140H215.45ZM212.643 132.405C213.259 132.405 213.81 132.54 214.295 132.811C214.785 133.082 215.189 133.469 215.506 133.973C215.823 134.472 216.033 135.072 216.136 135.772L215.492 136.255C215.492 135.681 215.38 135.172 215.156 134.729C214.937 134.286 214.622 133.94 214.211 133.693C213.8 133.441 213.313 133.315 212.748 133.315C212.193 133.315 211.71 133.441 211.299 133.693C210.888 133.945 210.571 134.293 210.347 134.736C210.128 135.179 210.018 135.693 210.018 136.276C210.018 136.855 210.132 137.366 210.361 137.809C210.59 138.252 210.909 138.602 211.32 138.859C211.735 139.111 212.211 139.237 212.748 139.237C213.308 139.237 213.791 139.111 214.197 138.859C214.608 138.602 214.925 138.25 215.149 137.802C215.378 137.354 215.492 136.838 215.492 136.255L215.646 137.844H215.408C215.324 138.255 215.161 138.635 214.918 138.985C214.675 139.33 214.356 139.61 213.959 139.825C213.562 140.035 213.086 140.14 212.531 140.14C212.013 140.14 211.537 140.047 211.103 139.86C210.669 139.669 210.293 139.4 209.976 139.055C209.659 138.705 209.411 138.294 209.234 137.823C209.061 137.352 208.975 136.836 208.975 136.276C208.975 135.52 209.127 134.85 209.43 134.267C209.733 133.684 210.158 133.229 210.704 132.902C211.255 132.571 211.901 132.405 212.643 132.405ZM223.04 139.132H224.475V140H220.52V139.132H222.032V133.413H220.52V132.545H223.04V139.132ZM221.843 129.402H223.131V130.739H221.843V129.402ZM232.86 140C232.669 140 232.522 139.939 232.419 139.818C232.321 139.697 232.272 139.526 232.272 139.307V137.067L232.363 136.836L232.314 135.989L232.272 135.548V134.981C232.272 134.598 232.193 134.286 232.034 134.043C231.88 133.8 231.656 133.621 231.362 133.504C231.068 133.387 230.714 133.329 230.298 133.329C229.678 133.329 229.197 133.453 228.856 133.7C228.52 133.943 228.296 134.309 228.184 134.799L227.218 134.596C227.312 134.106 227.487 133.7 227.743 133.378C228 133.051 228.341 132.809 228.765 132.65C229.195 132.487 229.717 132.405 230.333 132.405C230.977 132.405 231.516 132.496 231.95 132.678C232.389 132.855 232.72 133.128 232.944 133.497C233.168 133.866 233.28 134.342 233.28 134.925V139.132H234.379V140H232.86ZM229.346 140.098C228.572 140.098 227.984 139.928 227.582 139.587C227.181 139.242 226.98 138.735 226.98 138.068C226.98 137.452 227.158 136.983 227.512 136.661C227.867 136.334 228.436 136.089 229.22 135.926L232.573 135.212V135.933L229.388 136.654C228.931 136.761 228.588 136.92 228.359 137.13C228.135 137.335 228.023 137.627 228.023 138.005C228.023 138.416 228.149 138.724 228.401 138.929C228.653 139.13 229.022 139.23 229.507 139.23C230.044 139.23 230.525 139.106 230.949 138.859C231.374 138.612 231.708 138.248 231.95 137.767C232.193 137.286 232.314 136.694 232.314 135.989L232.58 137.641H232.223C232.107 138.42 231.803 139.025 231.313 139.454C230.828 139.883 230.172 140.098 229.346 140.098ZM247.246 140V139.132H248.562V135.219C248.562 134.608 248.426 134.129 248.156 133.784C247.885 133.439 247.463 133.266 246.889 133.266C246.427 133.266 246.016 133.387 245.657 133.63C245.297 133.873 245.015 134.22 244.81 134.673C244.604 135.126 244.502 135.669 244.502 136.304L244.257 134.806H244.544C244.66 133.994 244.961 133.387 245.447 132.986C245.937 132.585 246.532 132.384 247.232 132.384C248.02 132.384 248.606 132.617 248.989 133.084C249.376 133.551 249.57 134.209 249.57 135.058V139.132H250.998V140H247.246ZM236.928 140V139.132H238.419V133.413H236.928V132.545H239.427V139.132H240.75V140H236.928ZM242.178 140V139.132H243.494V135.219C243.494 134.608 243.358 134.129 243.088 133.784C242.817 133.439 242.395 133.266 241.821 133.266C241.359 133.266 240.948 133.387 240.589 133.63C240.229 133.873 239.945 134.22 239.735 134.673C239.529 135.126 239.427 135.669 239.427 136.304L239.189 134.806H239.476C239.588 133.994 239.889 133.387 240.379 132.986C240.869 132.585 241.464 132.384 242.164 132.384C242.952 132.384 243.538 132.617 243.921 133.084C244.308 133.551 244.502 134.209 244.502 135.058V139.132H245.93V140H242.178ZM261.587 139.132H262.917V140H259.046V139.132H260.579V133.413H259.046V132.545H261.587V139.132ZM265.885 139.132V135.233C265.885 134.622 265.748 134.141 265.472 133.791C265.197 133.441 264.763 133.266 264.17 133.266C263.69 133.266 263.253 133.385 262.861 133.623C262.469 133.861 262.159 134.206 261.93 134.659C261.702 135.112 261.587 135.66 261.587 136.304L261.356 134.813H261.636C261.725 134.304 261.895 133.873 262.147 133.518C262.399 133.159 262.721 132.886 263.113 132.699C263.51 132.508 263.965 132.412 264.478 132.412C265.29 132.412 265.895 132.648 266.291 133.119C266.693 133.586 266.893 134.246 266.893 135.1V139.132H268.328V140H264.576V139.132H265.885ZM274.662 140.133C273.888 140.133 273.209 139.97 272.625 139.643C272.042 139.312 271.587 138.859 271.26 138.285C270.934 137.711 270.77 137.048 270.77 136.297C270.77 135.541 270.934 134.871 271.26 134.288C271.587 133.7 272.042 133.24 272.625 132.909C273.209 132.578 273.888 132.412 274.662 132.412C275.437 132.412 276.116 132.578 276.699 132.909C277.283 133.24 277.738 133.7 278.064 134.288C278.391 134.871 278.554 135.541 278.554 136.297C278.554 137.048 278.391 137.711 278.064 138.285C277.738 138.859 277.283 139.312 276.699 139.643C276.116 139.97 275.437 140.133 274.662 140.133ZM274.662 139.202C275.222 139.202 275.715 139.081 276.139 138.838C276.569 138.595 276.902 138.257 277.14 137.823C277.383 137.384 277.504 136.876 277.504 136.297C277.504 135.714 277.383 135.2 277.14 134.757C276.902 134.314 276.569 133.968 276.139 133.721C275.715 133.469 275.222 133.343 274.662 133.343C274.102 133.343 273.608 133.469 273.178 133.721C272.754 133.968 272.42 134.314 272.177 134.757C271.939 135.2 271.82 135.714 271.82 136.297C271.82 136.876 271.939 137.384 272.177 137.823C272.42 138.257 272.754 138.595 273.178 138.838C273.608 139.081 274.102 139.202 274.662 139.202ZM283.938 139.132H285.268V140H281.397V139.132H282.93V133.413H281.397V132.545H283.938V139.132ZM288.236 139.132V135.233C288.236 134.622 288.098 134.141 287.823 133.791C287.548 133.441 287.114 133.266 286.521 133.266C286.04 133.266 285.604 133.385 285.212 133.623C284.82 133.861 284.51 134.206 284.281 134.659C284.052 135.112 283.938 135.66 283.938 136.304L283.707 134.813H283.987C284.076 134.304 284.246 133.873 284.498 133.518C284.75 133.159 285.072 132.886 285.464 132.699C285.861 132.508 286.316 132.412 286.829 132.412C287.641 132.412 288.245 132.648 288.642 133.119C289.043 133.586 289.244 134.246 289.244 135.1V139.132H290.679V140H286.927V139.132H288.236ZM299.156 133.413H297.714V132.545H300.164V139.132H301.62V140H299.156V133.413ZM294.991 132.545V137.298C294.991 137.909 295.127 138.392 295.397 138.747C295.673 139.097 296.104 139.272 296.692 139.272C297.164 139.272 297.584 139.153 297.952 138.915C298.326 138.672 298.62 138.325 298.834 137.872C299.049 137.419 299.156 136.876 299.156 136.241L299.401 137.732H299.107C298.981 138.535 298.669 139.141 298.169 139.552C297.675 139.958 297.066 140.161 296.342 140.161C295.54 140.161 294.945 139.923 294.557 139.447C294.175 138.971 293.983 138.311 293.983 137.466V133.413H292.632V132.545H294.991ZM314.408 140V139.132H315.724V135.219C315.724 134.608 315.588 134.129 315.318 133.784C315.047 133.439 314.625 133.266 314.051 133.266C313.589 133.266 313.178 133.387 312.819 133.63C312.459 133.873 312.177 134.22 311.972 134.673C311.766 135.126 311.664 135.669 311.664 136.304L311.419 134.806H311.706C311.822 133.994 312.123 133.387 312.609 132.986C313.099 132.585 313.694 132.384 314.394 132.384C315.182 132.384 315.768 132.617 316.151 133.084C316.538 133.551 316.732 134.209 316.732 135.058V139.132H318.16V140H314.408ZM304.09 140V139.132H305.581V133.413H304.09V132.545H306.589V139.132H307.912V140H304.09ZM309.34 140V139.132H310.656V135.219C310.656 134.608 310.52 134.129 310.25 133.784C309.979 133.439 309.557 133.266 308.983 133.266C308.521 133.266 308.11 133.387 307.751 133.63C307.391 133.873 307.107 134.22 306.897 134.673C306.691 135.126 306.589 135.669 306.589 136.304L306.351 134.806H306.638C306.75 133.994 307.051 133.387 307.541 132.986C308.031 132.585 308.626 132.384 309.326 132.384C310.114 132.384 310.7 132.617 311.083 133.084C311.47 133.551 311.664 134.209 311.664 135.058V139.132H313.092V140H309.34ZM330.874 140V139.132H332.19V135.219C332.19 134.608 332.055 134.129 331.784 133.784C331.513 133.439 331.091 133.266 330.517 133.266C330.055 133.266 329.644 133.387 329.285 133.63C328.926 133.873 328.643 134.22 328.438 134.673C328.233 135.126 328.13 135.669 328.13 136.304L327.885 134.806H328.172C328.289 133.994 328.59 133.387 329.075 132.986C329.565 132.585 330.16 132.384 330.86 132.384C331.649 132.384 332.234 132.617 332.617 133.084C333.004 133.551 333.198 134.209 333.198 135.058V139.132H334.626V140H330.874ZM320.556 140V139.132H322.047V133.413H320.556V132.545H323.055V139.132H324.378V140H320.556ZM325.806 140V139.132H327.122V135.219C327.122 134.608 326.987 134.129 326.716 133.784C326.445 133.439 326.023 133.266 325.449 133.266C324.987 133.266 324.576 133.387 324.217 133.63C323.858 133.873 323.573 134.22 323.363 134.673C323.158 135.126 323.055 135.669 323.055 136.304L322.817 134.806H323.104C323.216 133.994 323.517 133.387 324.007 132.986C324.497 132.585 325.092 132.384 325.792 132.384C326.581 132.384 327.166 132.617 327.549 133.084C327.936 133.551 328.13 134.209 328.13 135.058V139.132H329.558V140H325.806ZM341.073 132.545H344.545V133.413H343.614L340.534 140.994C340.282 141.619 339.892 142.1 339.365 142.436C338.842 142.772 338.191 142.94 337.412 142.94H336.677V142.051H337.412C337.934 142.051 338.389 141.941 338.777 141.722C339.169 141.507 339.453 141.19 339.631 140.77L340.163 139.461L339.988 140.329L337.139 133.413H336.11V132.545H339.652V133.413H338.238L340.751 139.692L339.834 138.88H340.8L340.275 139.356L342.606 133.413H341.073V132.545ZM134.22 162.132H135.55V163H131.679V162.132H133.212V156.413H131.679V155.545H134.22V162.132ZM138.518 162.132V158.233C138.518 157.622 138.38 157.141 138.105 156.791C137.83 156.441 137.396 156.266 136.803 156.266C136.322 156.266 135.886 156.385 135.494 156.623C135.102 156.861 134.792 157.206 134.563 157.659C134.334 158.112 134.22 158.66 134.22 159.304L133.989 157.813H134.269C134.358 157.304 134.528 156.873 134.78 156.518C135.032 156.159 135.354 155.886 135.746 155.699C136.143 155.508 136.598 155.412 137.111 155.412C137.923 155.412 138.527 155.648 138.924 156.119C139.325 156.586 139.526 157.246 139.526 158.1V162.132H140.961V163H137.209V162.132H138.518ZM145.971 162.132H147.406V163H143.451V162.132H144.963V156.413H143.451V155.545H145.971V162.132ZM144.774 152.402H146.062V153.739H144.774V152.402ZM151.014 163.154V152.808H149.516V151.94H152.022V158.156L151.98 159.031V159.962L152.022 161.32L151.105 163.154H151.014ZM154.787 163.14C154.161 163.14 153.601 163.023 153.107 162.79C152.617 162.552 152.211 162.216 151.889 161.782C151.571 161.343 151.359 160.823 151.252 160.221L151.98 159.276C151.98 159.85 152.089 160.359 152.309 160.802C152.528 161.245 152.843 161.595 153.254 161.852C153.664 162.104 154.152 162.23 154.717 162.23C155.291 162.23 155.781 162.106 156.187 161.859C156.597 161.612 156.91 161.266 157.125 160.823C157.344 160.375 157.454 159.855 157.454 159.262C157.454 158.683 157.337 158.172 157.104 157.729C156.875 157.286 156.555 156.938 156.145 156.686C155.734 156.434 155.258 156.308 154.717 156.308C154.161 156.308 153.678 156.434 153.268 156.686C152.857 156.938 152.54 157.286 152.316 157.729C152.092 158.172 151.98 158.688 151.98 159.276L151.819 157.701H152.057C152.145 157.29 152.309 156.912 152.547 156.567C152.789 156.217 153.109 155.937 153.506 155.727C153.907 155.512 154.385 155.405 154.941 155.405C155.459 155.405 155.935 155.501 156.369 155.692C156.803 155.879 157.178 156.147 157.496 156.497C157.813 156.842 158.058 157.253 158.231 157.729C158.403 158.2 158.49 158.718 158.49 159.283C158.49 160.034 158.336 160.702 158.028 161.285C157.724 161.864 157.295 162.319 156.74 162.65C156.184 162.977 155.533 163.14 154.787 163.14ZM163.476 162.132H164.799V163H160.97V162.132H162.468V152.808H160.97V151.94H163.476V162.132ZM167.774 162.132V158.212C167.774 157.605 167.636 157.129 167.361 156.784C167.09 156.439 166.663 156.266 166.08 156.266C165.59 156.266 165.149 156.392 164.757 156.644C164.365 156.891 164.052 157.253 163.819 157.729C163.59 158.2 163.476 158.77 163.476 159.437L163.238 157.946H163.518C163.611 157.4 163.786 156.938 164.043 156.56C164.304 156.177 164.635 155.886 165.037 155.685C165.438 155.484 165.898 155.384 166.416 155.384C167.228 155.384 167.825 155.617 168.208 156.084C168.59 156.551 168.782 157.206 168.782 158.051V162.132H170.21V163H166.458V162.132H167.774ZM182.144 163.133C181.374 163.133 180.707 162.97 180.142 162.643C179.577 162.316 179.141 161.866 178.833 161.292C178.525 160.713 178.371 160.048 178.371 159.297C178.371 158.536 178.525 157.864 178.833 157.281C179.146 156.698 179.58 156.24 180.135 155.909C180.695 155.578 181.346 155.412 182.088 155.412C182.835 155.412 183.481 155.575 184.027 155.902C184.573 156.229 184.993 156.681 185.287 157.26C185.581 157.839 185.728 158.506 185.728 159.262C185.728 159.351 185.726 159.421 185.721 159.472C185.721 159.523 185.716 159.568 185.707 159.605H184.713C184.718 159.549 184.72 159.488 184.72 159.423C184.725 159.353 184.727 159.274 184.727 159.185C184.727 158.63 184.62 158.137 184.405 157.708C184.195 157.274 183.894 156.933 183.502 156.686C183.11 156.439 182.639 156.315 182.088 156.315C181.551 156.315 181.08 156.443 180.674 156.7C180.268 156.952 179.953 157.302 179.729 157.75C179.505 158.193 179.393 158.709 179.393 159.297C179.393 159.866 179.503 160.37 179.722 160.809C179.946 161.243 180.263 161.584 180.674 161.831C181.085 162.078 181.572 162.202 182.137 162.202C182.725 162.202 183.234 162.064 183.663 161.789C184.097 161.509 184.419 161.129 184.629 160.648L185.581 161.005C185.306 161.663 184.865 162.183 184.258 162.566C183.656 162.944 182.951 163.133 182.144 163.133ZM179.008 159.605V158.828H185.406L185.7 159.605H179.008ZM194.678 156.413H193.236V155.545H195.686V162.132H197.142V163H194.678V156.413ZM190.513 155.545V160.298C190.513 160.909 190.649 161.392 190.919 161.747C191.195 162.097 191.626 162.272 192.214 162.272C192.686 162.272 193.106 162.153 193.474 161.915C193.848 161.672 194.142 161.325 194.356 160.872C194.571 160.419 194.678 159.876 194.678 159.241L194.923 160.732H194.629C194.503 161.535 194.191 162.141 193.691 162.552C193.197 162.958 192.588 163.161 191.864 163.161C191.062 163.161 190.467 162.923 190.079 162.447C189.697 161.971 189.505 161.311 189.505 160.466V156.413H188.154V155.545H190.513ZM202.223 162.132H203.658V163H199.703V162.132H201.215V156.413H199.703V155.545H202.223V162.132ZM201.026 152.402H202.314V153.739H201.026V152.402ZM209.835 163.133C209.336 163.133 208.913 163.058 208.568 162.909C208.227 162.76 207.957 162.561 207.756 162.314C207.555 162.062 207.425 161.782 207.364 161.474H207.112L207.315 160.648C207.404 161.138 207.646 161.537 208.043 161.845C208.444 162.153 208.965 162.307 209.604 162.307C210.15 162.307 210.572 162.197 210.871 161.978C211.174 161.754 211.326 161.43 211.326 161.005C211.326 160.618 211.177 160.317 210.878 160.102C210.579 159.887 210.057 159.724 209.31 159.612C208.241 159.444 207.481 159.18 207.028 158.821C206.575 158.457 206.349 157.979 206.349 157.386C206.349 156.789 206.557 156.31 206.972 155.951C207.387 155.592 207.966 155.412 208.708 155.412C209.198 155.412 209.602 155.487 209.919 155.636C210.241 155.785 210.488 155.986 210.661 156.238C210.834 156.485 210.946 156.758 210.997 157.057H211.249L211.046 157.848C210.962 157.372 210.733 156.985 210.36 156.686C209.987 156.383 209.499 156.231 208.897 156.231C208.412 156.231 208.031 156.334 207.756 156.539C207.485 156.744 207.35 157.017 207.35 157.358C207.35 157.717 207.52 158 207.861 158.205C208.202 158.406 208.738 158.564 209.471 158.681C210.507 158.844 211.242 159.113 211.676 159.486C212.11 159.859 212.327 160.363 212.327 160.998C212.327 161.665 212.112 162.188 211.683 162.566C211.258 162.944 210.642 163.133 209.835 163.133ZM206.307 163V160.648H207.315V163H206.307ZM211.046 157.848V155.545H212.054V157.848H211.046ZM225.499 163V162.132H226.815V158.219C226.815 157.608 226.68 157.129 226.409 156.784C226.139 156.439 225.716 156.266 225.142 156.266C224.68 156.266 224.27 156.387 223.91 156.63C223.551 156.873 223.269 157.22 223.063 157.673C222.858 158.126 222.755 158.669 222.755 159.304L222.51 157.806H222.797C222.914 156.994 223.215 156.387 223.7 155.986C224.19 155.585 224.785 155.384 225.485 155.384C226.274 155.384 226.86 155.617 227.242 156.084C227.63 156.551 227.823 157.209 227.823 158.058V162.132H229.251V163H225.499ZM215.181 163V162.132H216.672V156.413H215.181V155.545H217.68V162.132H219.003V163H215.181ZM220.431 163V162.132H221.747V158.219C221.747 157.608 221.612 157.129 221.341 156.784C221.071 156.439 220.648 156.266 220.074 156.266C219.612 156.266 219.202 156.387 218.842 156.63C218.483 156.873 218.198 157.22 217.988 157.673C217.783 158.126 217.68 158.669 217.68 159.304L217.442 157.806H217.729C217.841 156.994 218.142 156.387 218.632 155.986C219.122 155.585 219.717 155.384 220.417 155.384C221.206 155.384 221.792 155.617 222.174 156.084C222.562 156.551 222.755 157.209 222.755 158.058V162.132H224.183V163H220.431ZM235.583 163.133C234.808 163.133 234.129 162.97 233.546 162.643C232.962 162.312 232.507 161.859 232.181 161.285C231.854 160.711 231.691 160.048 231.691 159.297C231.691 158.541 231.854 157.871 232.181 157.288C232.507 156.7 232.962 156.24 233.546 155.909C234.129 155.578 234.808 155.412 235.583 155.412C236.357 155.412 237.036 155.578 237.62 155.909C238.203 156.24 238.658 156.7 238.985 157.288C239.311 157.871 239.475 158.541 239.475 159.297C239.475 160.048 239.311 160.711 238.985 161.285C238.658 161.859 238.203 162.312 237.62 162.643C237.036 162.97 236.357 163.133 235.583 163.133ZM235.583 162.202C236.143 162.202 236.635 162.081 237.06 161.838C237.489 161.595 237.823 161.257 238.061 160.823C238.303 160.384 238.425 159.876 238.425 159.297C238.425 158.714 238.303 158.2 238.061 157.757C237.823 157.314 237.489 156.968 237.06 156.721C236.635 156.469 236.143 156.343 235.583 156.343C235.023 156.343 234.528 156.469 234.099 156.721C233.674 156.968 233.34 157.314 233.098 157.757C232.86 158.2 232.741 158.714 232.741 159.297C232.741 159.876 232.86 160.384 233.098 160.823C233.34 161.257 233.674 161.595 234.099 161.838C234.528 162.081 235.023 162.202 235.583 162.202ZM248.883 163V160.214L248.925 159.668V158.779L248.883 157.799V152.808H246.874V151.94H249.891V162.132H251.319V163H248.883ZM246.076 155.405C246.692 155.405 247.243 155.54 247.728 155.811C248.218 156.082 248.622 156.469 248.939 156.973C249.257 157.472 249.467 158.072 249.569 158.772L248.925 159.255C248.925 158.681 248.813 158.172 248.589 157.729C248.37 157.286 248.055 156.94 247.644 156.693C247.234 156.441 246.746 156.315 246.181 156.315C245.626 156.315 245.143 156.441 244.732 156.693C244.322 156.945 244.004 157.293 243.78 157.736C243.561 158.179 243.451 158.693 243.451 159.276C243.451 159.855 243.566 160.366 243.794 160.809C244.023 161.252 244.343 161.602 244.753 161.859C245.169 162.111 245.645 162.237 246.181 162.237C246.741 162.237 247.224 162.111 247.63 161.859C248.041 161.602 248.358 161.25 248.582 160.802C248.811 160.354 248.925 159.838 248.925 159.255L249.079 160.844H248.841C248.757 161.255 248.594 161.635 248.351 161.985C248.109 162.33 247.789 162.61 247.392 162.825C246.996 163.035 246.52 163.14 245.964 163.14C245.446 163.14 244.97 163.047 244.536 162.86C244.102 162.669 243.727 162.4 243.409 162.055C243.092 161.705 242.845 161.294 242.667 160.823C242.495 160.352 242.408 159.836 242.408 159.276C242.408 158.52 242.56 157.85 242.863 157.267C243.167 156.684 243.591 156.229 244.137 155.902C244.688 155.571 245.334 155.405 246.076 155.405ZM261.509 161.026C261.509 161.418 261.583 161.714 261.733 161.915C261.882 162.111 262.111 162.209 262.419 162.209C262.722 162.209 262.951 162.109 263.105 161.908C263.259 161.703 263.336 161.409 263.336 161.026V160.333H264.246V161.019C264.246 161.467 264.178 161.85 264.043 162.167C263.912 162.48 263.711 162.72 263.441 162.888C263.17 163.051 262.822 163.133 262.398 163.133C261.964 163.133 261.607 163.049 261.327 162.881C261.047 162.708 260.839 162.466 260.704 162.153C260.568 161.84 260.501 161.465 260.501 161.026L260.508 156.413H259.178V155.545H260.508V153.655H261.516V155.545H264.148L264.141 156.413H261.516L261.509 161.026ZM269.527 162.132H270.962V163H267.007V162.132H268.519V156.413H267.007V155.545H269.527V162.132ZM268.33 152.402H269.618V153.739H268.33V152.402ZM275.97 162.132H277.3V163H273.429V162.132H274.962V156.413H273.429V155.545H275.97V162.132ZM280.268 162.132V158.233C280.268 157.622 280.13 157.141 279.855 156.791C279.58 156.441 279.146 156.266 278.553 156.266C278.072 156.266 277.636 156.385 277.244 156.623C276.852 156.861 276.542 157.206 276.313 157.659C276.084 158.112 275.97 158.66 275.97 159.304L275.739 157.813H276.019C276.108 157.304 276.278 156.873 276.53 156.518C276.782 156.159 277.104 155.886 277.496 155.699C277.893 155.508 278.348 155.412 278.861 155.412C279.673 155.412 280.277 155.648 280.674 156.119C281.075 156.586 281.276 157.246 281.276 158.1V162.132H282.711V163H278.959V162.132H280.268ZM289.01 163.133C288.236 163.133 287.561 162.97 286.987 162.643C286.418 162.316 285.975 161.866 285.657 161.292C285.345 160.713 285.188 160.048 285.188 159.297C285.188 158.728 285.275 158.207 285.447 157.736C285.62 157.26 285.867 156.849 286.189 156.504C286.511 156.154 286.894 155.886 287.337 155.699C287.781 155.508 288.275 155.412 288.821 155.412C289.349 155.412 289.787 155.498 290.137 155.671C290.492 155.839 290.767 156.072 290.963 156.371C291.159 156.665 291.285 157.003 291.341 157.386H291.586L291.383 158.443C291.323 158.023 291.185 157.654 290.97 157.337C290.756 157.015 290.476 156.765 290.13 156.588C289.785 156.406 289.386 156.315 288.933 156.315C288.392 156.315 287.916 156.443 287.505 156.7C287.099 156.952 286.782 157.302 286.553 157.75C286.329 158.193 286.217 158.709 286.217 159.297C286.217 159.866 286.332 160.37 286.56 160.809C286.794 161.243 287.118 161.584 287.533 161.831C287.953 162.078 288.448 162.202 289.017 162.202C289.605 162.202 290.112 162.074 290.536 161.817C290.961 161.556 291.271 161.206 291.467 160.767L292.398 161.18C292.132 161.782 291.705 162.258 291.117 162.608C290.534 162.958 289.832 163.133 289.01 163.133ZM291.383 158.443V155.545H292.391V158.443H291.383ZM297.83 162.132H299.265V163H295.31V162.132H296.822V156.413H295.31V155.545H297.83V162.132ZM296.633 152.402H297.921V153.739H296.633V152.402ZM308.299 163V160.214L308.341 159.668V158.779L308.299 157.799V152.808H306.29V151.94H309.307V162.132H310.735V163H308.299ZM305.492 155.405C306.108 155.405 306.658 155.54 307.144 155.811C307.634 156.082 308.037 156.469 308.355 156.973C308.672 157.472 308.882 158.072 308.985 158.772L308.341 159.255C308.341 158.681 308.229 158.172 308.005 157.729C307.785 157.286 307.47 156.94 307.06 156.693C306.649 156.441 306.161 156.315 305.597 156.315C305.041 156.315 304.558 156.441 304.148 156.693C303.737 156.945 303.42 157.293 303.196 157.736C302.976 158.179 302.867 158.693 302.867 159.276C302.867 159.855 302.981 160.366 303.21 160.809C303.438 161.252 303.758 161.602 304.169 161.859C304.584 162.111 305.06 162.237 305.597 162.237C306.157 162.237 306.64 162.111 307.046 161.859C307.456 161.602 307.774 161.25 307.998 160.802C308.226 160.354 308.341 159.838 308.341 159.255L308.495 160.844H308.257C308.173 161.255 308.009 161.635 307.767 161.985C307.524 162.33 307.204 162.61 306.808 162.825C306.411 163.035 305.935 163.14 305.38 163.14C304.862 163.14 304.386 163.047 303.952 162.86C303.518 162.669 303.142 162.4 302.825 162.055C302.507 161.705 302.26 161.294 302.083 160.823C301.91 160.352 301.824 159.836 301.824 159.276C301.824 158.52 301.975 157.85 302.279 157.267C302.582 156.684 303.007 156.229 303.553 155.902C304.103 155.571 304.75 155.405 305.492 155.405ZM319.437 156.413H317.995V155.545H320.445V162.132H321.901V163H319.437V156.413ZM315.272 155.545V160.298C315.272 160.909 315.407 161.392 315.678 161.747C315.953 162.097 316.385 162.272 316.973 162.272C317.444 162.272 317.864 162.153 318.233 161.915C318.606 161.672 318.9 161.325 319.115 160.872C319.33 160.419 319.437 159.876 319.437 159.241L319.682 160.732H319.388C319.262 161.535 318.949 162.141 318.45 162.552C317.955 162.958 317.346 163.161 316.623 163.161C315.82 163.161 315.225 162.923 314.838 162.447C314.455 161.971 314.264 161.311 314.264 160.466V156.413H312.913V155.545H315.272ZM326.911 162.132H328.241V163H324.37V162.132H325.903V156.413H324.37V155.545H326.911V162.132ZM331.209 162.132V158.233C331.209 157.622 331.072 157.141 330.796 156.791C330.521 156.441 330.087 156.266 329.494 156.266C329.014 156.266 328.577 156.385 328.185 156.623C327.793 156.861 327.483 157.206 327.254 157.659C327.026 158.112 326.911 158.66 326.911 159.304L326.68 157.813H326.96C327.049 157.304 327.219 156.873 327.471 156.518C327.723 156.159 328.045 155.886 328.437 155.699C328.834 155.508 329.289 155.412 329.802 155.412C330.614 155.412 331.219 155.648 331.615 156.119C332.017 156.586 332.217 157.246 332.217 158.1V162.132H333.652V163H329.9V162.132H331.209ZM338.047 161.026C338.047 161.418 338.121 161.714 338.271 161.915C338.42 162.111 338.649 162.209 338.957 162.209C339.26 162.209 339.489 162.109 339.643 161.908C339.797 161.703 339.874 161.409 339.874 161.026V160.333H340.784V161.019C340.784 161.467 340.716 161.85 340.581 162.167C340.45 162.48 340.249 162.72 339.979 162.888C339.708 163.051 339.36 163.133 338.936 163.133C338.502 163.133 338.145 163.049 337.865 162.881C337.585 162.708 337.377 162.466 337.242 162.153C337.106 161.84 337.039 161.465 337.039 161.026L337.046 156.413H335.716V155.545H337.046V153.655H338.054V155.545H340.686L340.679 156.413H338.054L338.047 161.026ZM355.238 156.413H353.796V155.545H356.246V162.132H357.702V163H355.238V156.413ZM351.073 155.545V160.298C351.073 160.909 351.209 161.392 351.479 161.747C351.755 162.097 352.186 162.272 352.774 162.272C353.246 162.272 353.666 162.153 354.034 161.915C354.408 161.672 354.702 161.325 354.916 160.872C355.131 160.419 355.238 159.876 355.238 159.241L355.483 160.732H355.189C355.063 161.535 354.751 162.141 354.251 162.552C353.757 162.958 353.148 163.161 352.424 163.161C351.622 163.161 351.027 162.923 350.639 162.447C350.257 161.971 350.065 161.311 350.065 160.466V156.413H348.714V155.545H351.073ZM362.167 161.026C362.167 161.418 362.241 161.714 362.391 161.915C362.54 162.111 362.769 162.209 363.077 162.209C363.38 162.209 363.609 162.109 363.763 161.908C363.917 161.703 363.994 161.409 363.994 161.026V160.333H364.904V161.019C364.904 161.467 364.836 161.85 364.701 162.167C364.57 162.48 364.369 162.72 364.099 162.888C363.828 163.051 363.48 163.133 363.056 163.133C362.622 163.133 362.265 163.049 361.985 162.881C361.705 162.708 361.497 162.466 361.362 162.153C361.226 161.84 361.159 161.465 361.159 161.026L361.166 156.413H359.836V155.545H361.166V153.655H362.174V155.545H364.806L364.799 156.413H362.174L362.167 161.026ZM134.045 185.132H135.578V186H131.504V185.132H133.037V175.808H131.504V174.94H134.045V185.132ZM144.111 186C143.919 186 143.772 185.939 143.67 185.818C143.572 185.697 143.523 185.526 143.523 185.307V183.067L143.614 182.836L143.565 181.989L143.523 181.548V180.981C143.523 180.598 143.443 180.286 143.285 180.043C143.131 179.8 142.907 179.621 142.613 179.504C142.319 179.387 141.964 179.329 141.549 179.329C140.928 179.329 140.447 179.453 140.107 179.7C139.771 179.943 139.547 180.309 139.435 180.799L138.469 180.596C138.562 180.106 138.737 179.7 138.994 179.378C139.25 179.051 139.591 178.809 140.016 178.65C140.445 178.487 140.968 178.405 141.584 178.405C142.228 178.405 142.767 178.496 143.201 178.678C143.639 178.855 143.971 179.128 144.195 179.497C144.419 179.866 144.531 180.342 144.531 180.925V185.132H145.63V186H144.111ZM140.597 186.098C139.822 186.098 139.234 185.928 138.833 185.587C138.431 185.242 138.231 184.735 138.231 184.068C138.231 183.452 138.408 182.983 138.763 182.661C139.117 182.334 139.687 182.089 140.471 181.926L143.824 181.212V181.933L140.639 182.654C140.181 182.761 139.838 182.92 139.61 183.13C139.386 183.335 139.274 183.627 139.274 184.005C139.274 184.416 139.4 184.724 139.652 184.929C139.904 185.13 140.272 185.23 140.758 185.23C141.294 185.23 141.775 185.106 142.2 184.859C142.624 184.612 142.958 184.248 143.201 183.767C143.443 183.286 143.565 182.694 143.565 181.989L143.831 183.641H143.474C143.357 184.42 143.054 185.025 142.564 185.454C142.078 185.883 141.423 186.098 140.597 186.098ZM152.113 186.133C151.339 186.133 150.66 185.97 150.076 185.643C149.493 185.312 149.038 184.859 148.711 184.285C148.385 183.711 148.221 183.048 148.221 182.297C148.221 181.541 148.385 180.871 148.711 180.288C149.038 179.7 149.493 179.24 150.076 178.909C150.66 178.578 151.339 178.412 152.113 178.412C152.888 178.412 153.567 178.578 154.15 178.909C154.734 179.24 155.189 179.7 155.515 180.288C155.842 180.871 156.005 181.541 156.005 182.297C156.005 183.048 155.842 183.711 155.515 184.285C155.189 184.859 154.734 185.312 154.15 185.643C153.567 185.97 152.888 186.133 152.113 186.133ZM152.113 185.202C152.673 185.202 153.166 185.081 153.59 184.838C154.02 184.595 154.353 184.257 154.591 183.823C154.834 183.384 154.955 182.876 154.955 182.297C154.955 181.714 154.834 181.2 154.591 180.757C154.353 180.314 154.02 179.968 153.59 179.721C153.166 179.469 152.673 179.343 152.113 179.343C151.553 179.343 151.059 179.469 150.629 179.721C150.205 179.968 149.871 180.314 149.628 180.757C149.39 181.2 149.271 181.714 149.271 182.297C149.271 182.876 149.39 183.384 149.628 183.823C149.871 184.257 150.205 184.595 150.629 184.838C151.059 185.081 151.553 185.202 152.113 185.202ZM161.389 185.132H162.845V186H158.848V185.132H160.381V179.413H158.848V178.545H161.389V185.132ZM164.252 179.616C164.168 179.593 164.077 179.574 163.979 179.56C163.885 179.546 163.783 179.539 163.671 179.539C162.98 179.539 162.427 179.798 162.012 180.316C161.596 180.829 161.389 181.543 161.389 182.458L161.151 180.827H161.438C161.503 180.332 161.638 179.908 161.844 179.553C162.049 179.194 162.315 178.918 162.642 178.727C162.973 178.531 163.36 178.433 163.804 178.433C163.888 178.433 163.962 178.438 164.028 178.447C164.098 178.452 164.172 178.461 164.252 178.475V179.616ZM170.34 186.133C169.57 186.133 168.902 185.97 168.338 185.643C167.773 185.316 167.337 184.866 167.029 184.292C166.721 183.713 166.567 183.048 166.567 182.297C166.567 181.536 166.721 180.864 167.029 180.281C167.341 179.698 167.775 179.24 168.331 178.909C168.891 178.578 169.542 178.412 170.284 178.412C171.03 178.412 171.677 178.575 172.223 178.902C172.769 179.229 173.189 179.681 173.483 180.26C173.777 180.839 173.924 181.506 173.924 182.262C173.924 182.351 173.921 182.421 173.917 182.472C173.917 182.523 173.912 182.568 173.903 182.605H172.909C172.913 182.549 172.916 182.488 172.916 182.423C172.92 182.353 172.923 182.274 172.923 182.185C172.923 181.63 172.815 181.137 172.601 180.708C172.391 180.274 172.09 179.933 171.698 179.686C171.306 179.439 170.834 179.315 170.284 179.315C169.747 179.315 169.276 179.443 168.87 179.7C168.464 179.952 168.149 180.302 167.925 180.75C167.701 181.193 167.589 181.709 167.589 182.297C167.589 182.866 167.698 183.37 167.918 183.809C168.142 184.243 168.459 184.584 168.87 184.831C169.28 185.078 169.768 185.202 170.333 185.202C170.921 185.202 171.429 185.064 171.859 184.789C172.293 184.509 172.615 184.129 172.825 183.648L173.777 184.005C173.501 184.663 173.06 185.183 172.454 185.566C171.852 185.944 171.147 186.133 170.34 186.133ZM167.204 182.605V181.828H173.602L173.896 182.605H167.204ZM180.599 186.133C179.829 186.133 179.162 185.97 178.597 185.643C178.032 185.316 177.596 184.866 177.288 184.292C176.98 183.713 176.826 183.048 176.826 182.297C176.826 181.536 176.98 180.864 177.288 180.281C177.601 179.698 178.035 179.24 178.59 178.909C179.15 178.578 179.801 178.412 180.543 178.412C181.29 178.412 181.936 178.575 182.482 178.902C183.028 179.229 183.448 179.681 183.742 180.26C184.036 180.839 184.183 181.506 184.183 182.262C184.183 182.351 184.181 182.421 184.176 182.472C184.176 182.523 184.171 182.568 184.162 182.605H183.168C183.173 182.549 183.175 182.488 183.175 182.423C183.18 182.353 183.182 182.274 183.182 182.185C183.182 181.63 183.075 181.137 182.86 180.708C182.65 180.274 182.349 179.933 181.957 179.686C181.565 179.439 181.094 179.315 180.543 179.315C180.006 179.315 179.535 179.443 179.129 179.7C178.723 179.952 178.408 180.302 178.184 180.75C177.96 181.193 177.848 181.709 177.848 182.297C177.848 182.866 177.958 183.37 178.177 183.809C178.401 184.243 178.718 184.584 179.129 184.831C179.54 185.078 180.027 185.202 180.592 185.202C181.18 185.202 181.689 185.064 182.118 184.789C182.552 184.509 182.874 184.129 183.084 183.648L184.036 184.005C183.761 184.663 183.32 185.183 182.713 185.566C182.111 185.944 181.406 186.133 180.599 186.133ZM177.463 182.605V181.828H183.861L184.155 182.605H177.463ZM188.969 184.026C188.969 184.418 189.043 184.714 189.193 184.915C189.342 185.111 189.571 185.209 189.879 185.209C190.182 185.209 190.411 185.109 190.565 184.908C190.719 184.703 190.796 184.409 190.796 184.026V183.333H191.706V184.019C191.706 184.467 191.638 184.85 191.503 185.167C191.372 185.48 191.171 185.72 190.901 185.888C190.63 186.051 190.282 186.133 189.858 186.133C189.424 186.133 189.067 186.049 188.787 185.881C188.507 185.708 188.299 185.466 188.164 185.153C188.028 184.84 187.961 184.465 187.961 184.026L187.968 179.413H186.638V178.545H187.968V176.655H188.976V178.545H191.608L191.601 179.413H188.976L188.969 184.026Z" fill="#FEFBF4"/>
</svg>
