<svg width="95" height="95" viewBox="0 0 95 95" fill="none" xmlns="http://www.w3.org/2000/svg">
<path d="M90.2651 50.4194C89.2967 48.6177 89.2967 46.4381 90.2651 44.6363L91.2722 42.7764C92.657 40.1996 92.0179 37.0126 89.7615 35.1624L88.1249 33.8256C86.5368 32.5275 85.704 30.5223 85.917 28.4881L86.1204 26.3763C86.4206 23.4702 84.6097 20.7578 81.8111 19.9247L79.7871 19.3144C77.8213 18.7235 76.2913 17.193 75.7006 15.2265L75.0905 13.2019C74.248 10.4024 71.5462 8.59092 68.641 8.89122L66.5396 9.10433C64.4963 9.30776 62.4918 8.48436 61.2038 6.89569L59.8675 5.25859C58.0178 2.99183 54.8222 2.36217 52.256 3.74742L50.3967 4.75486C48.5955 5.72357 46.4166 5.72357 44.6154 4.75486L42.7367 3.72804C40.1608 2.3428 36.9748 2.98214 35.1252 5.23922L33.7888 6.87632C32.4912 8.46499 30.4867 9.29807 28.453 9.08496L26.3516 8.87185C23.4465 8.57155 20.735 10.383 19.9022 13.1826L19.2921 15.2072C18.7014 17.1736 17.1714 18.7042 15.2055 19.2951L13.1816 19.9054C10.383 20.7481 8.57209 23.4508 8.87229 26.3569L9.08534 28.459C9.2887 30.5029 8.46557 32.5082 6.87742 33.7965L5.24085 35.1333C2.97483 36.9836 2.34538 40.1803 3.73017 42.7473L4.73729 44.6072C5.70567 46.409 5.70567 48.5886 4.73729 50.3904L3.73017 52.2503C2.34538 54.827 2.98451 58.0141 5.24085 59.8643L6.87742 61.2011C8.46557 62.4992 9.29838 64.5044 9.08534 66.5386L8.87229 68.6407C8.57209 71.5468 10.383 74.2592 13.1816 75.0923L15.2055 75.7026C17.1714 76.2935 18.7014 77.824 19.2921 79.7905L19.9022 81.8151C20.7447 84.6146 23.4465 86.4261 26.3516 86.1258L28.453 85.9127C30.4963 85.7092 32.5009 86.5326 33.7888 88.1213L35.1252 89.7584C36.9748 92.0252 40.1705 92.6548 42.7367 91.2696L44.596 90.2621C46.3972 89.2934 48.5761 89.2934 50.3773 90.2621L52.2366 91.2696C54.8125 92.6548 57.9985 92.0155 59.8481 89.7584L61.1845 88.1213C62.4821 86.5326 64.4867 85.6996 66.5203 85.9127L68.6314 86.1742C71.5365 86.4745 74.248 84.663 75.0808 81.8635L75.6909 79.8389C76.2816 77.8724 77.8116 76.3419 79.7775 75.751L81.8014 75.1407C84.6 74.2979 86.4109 71.5953 86.1107 68.6892L85.8977 66.5871C85.6943 64.5431 86.5174 62.5379 88.1056 61.2495L89.7421 59.9127C92.0082 58.0625 92.6376 54.8658 91.2528 52.2987L90.2651 50.4194ZM57.9888 47.4358L57.737 47.9686C57.4465 48.5983 57.3497 49.3054 57.4755 49.9932L57.5821 50.5648C57.8629 52.0662 57.0882 53.558 55.7034 54.2071L55.1708 54.4589C54.5413 54.7495 54.0184 55.2339 53.6698 55.8442L53.3793 56.3576C52.6336 57.6847 51.0745 58.3337 49.6026 57.9366L49.0409 57.7816C48.363 57.5975 47.6561 57.6363 46.9976 57.8785L46.4747 58.0819C45.0512 58.6147 43.4436 58.1206 42.5624 56.871L42.2235 56.3867C41.8264 55.8151 41.2551 55.3792 40.5966 55.1467L40.0446 54.953C38.6114 54.4492 37.7011 53.0253 37.827 51.5141L37.8754 50.9329C37.9335 50.2354 37.7786 49.5379 37.4203 48.9373L37.1201 48.4336C36.3454 47.1162 36.5584 45.45 37.6333 44.3748L38.0497 43.9582C38.5436 43.4642 38.8729 42.8345 38.9891 42.1467L39.0859 41.5655C39.3377 40.064 40.5772 38.921 42.0879 38.7853L42.6689 38.7369C43.3662 38.6788 44.0247 38.3979 44.5476 37.9523L44.9931 37.5745C46.1551 36.5864 47.8304 36.4992 49.0796 37.3807L49.5638 37.7198C50.1352 38.1169 50.8131 38.3301 51.5103 38.3301L52.0913 38.3204C53.6117 38.3107 54.9577 39.3278 55.3451 40.8002L55.5 41.3621C55.684 42.0402 56.0617 42.6408 56.604 43.0767L57.0591 43.4448C58.2599 44.4135 58.6279 46.0506 57.9888 47.4358Z" fill="#FEFBF4" stroke="#DAA48C" stroke-miterlimit="10" stroke-linecap="square"/>
<path d="M34.127 28.7546C33.7204 29.045 33.3429 29.1902 32.9847 29.1902C32.6265 29.1902 32.3167 29.045 32.036 28.7449L31.8908 28.8514L31.61 28.2222C31.8133 28.4061 32.0747 28.4739 32.3942 28.4448C32.7136 28.4158 33.0234 28.2899 33.3332 28.0673C33.5849 27.8834 33.7398 27.7091 33.8075 27.5252C33.8753 27.3412 33.8366 27.1573 33.7107 26.9831C33.6236 26.8572 33.5171 26.7798 33.3816 26.7507C33.2461 26.7217 33.0912 26.7314 32.8976 26.7894C32.7039 26.8475 32.4716 26.954 32.1909 27.0992C31.7262 27.3606 31.3003 27.5252 30.9227 27.5929C30.5452 27.6607 30.1967 27.6413 29.9063 27.5252C29.6062 27.409 29.3545 27.196 29.1318 26.8959C28.8414 26.4797 28.7349 26.0634 28.8317 25.6471C28.9285 25.2212 29.2189 24.8437 29.6933 24.4952C29.9547 24.3112 30.2064 24.1854 30.4484 24.1273C30.6904 24.0692 30.913 24.0789 31.1357 24.1467C31.3583 24.2144 31.552 24.3499 31.7359 24.5629L31.8714 24.4661L32.1425 25.076C31.9489 24.8921 31.6972 24.8146 31.3874 24.8437C31.0776 24.8727 30.7775 24.9889 30.4774 25.2018C30.2644 25.3567 30.1192 25.5116 30.0611 25.6762C29.9934 25.8408 30.0224 25.9956 30.1192 26.1409C30.187 26.2377 30.2935 26.3054 30.4193 26.3345C30.5452 26.3635 30.7097 26.3538 30.9034 26.2957C31.097 26.2473 31.339 26.1505 31.6294 26.0053C32.1134 25.7439 32.5491 25.5697 32.9169 25.5019C33.2848 25.4342 33.6236 25.4535 33.914 25.5697C34.2044 25.6859 34.4658 25.9085 34.6885 26.2183C35.0079 26.6636 35.1241 27.1089 35.0273 27.5542C34.9305 27.9898 34.6304 28.3964 34.127 28.7546ZM31.6875 30.41L30.6323 28.9289L31.6197 28.2222L32.6749 29.7033L31.6875 30.41ZM32.1521 25.0663L31.1066 23.5949L32.0941 22.8882L33.1396 24.3596L32.1521 25.0663Z" fill="#DAA48C"/>
<path d="M39.5574 26.0636C39.1412 26.2088 38.7249 26.2765 38.328 26.2572C37.9311 26.2378 37.5536 26.141 37.2147 25.9764C36.8662 25.8119 36.5661 25.5699 36.3048 25.2698C36.0434 24.9697 35.8401 24.6018 35.6949 24.1855C35.5497 23.7693 35.4819 23.3627 35.5013 22.9658C35.5206 22.5689 35.6078 22.201 35.7627 21.8622C35.9176 21.5234 36.1305 21.233 36.4113 20.9813C36.692 20.7296 37.0211 20.536 37.3987 20.4101C37.7472 20.2843 38.0763 20.2456 38.3667 20.2843C38.6571 20.323 38.9185 20.4392 39.1509 20.6328C39.3832 20.8264 39.5865 21.0878 39.7511 21.4363L40.0221 21.3395V22.0849C39.7995 21.746 39.4994 21.5234 39.1315 21.3975C38.7636 21.2814 38.3764 21.2911 37.9602 21.4363C37.631 21.5524 37.36 21.7267 37.1567 21.959C36.9534 22.1913 36.8275 22.4721 36.7791 22.7819C36.7307 23.0916 36.7598 23.4305 36.8856 23.7693C36.9727 24.0307 37.0986 24.263 37.2631 24.4566C37.418 24.6502 37.602 24.7954 37.8053 24.9019C38.0086 25.0084 38.2312 25.0762 38.4635 25.0858C38.6959 25.0955 38.9379 25.0665 39.1799 24.9793C39.4606 24.8825 39.7026 24.7373 39.8866 24.5437C40.0705 24.3501 40.206 24.1371 40.2835 23.8758C40.3609 23.6241 40.3803 23.353 40.3319 23.0626L41.571 22.8496C41.6484 23.3337 41.6194 23.779 41.4839 24.2049C41.3483 24.6308 41.116 25.0084 40.7869 25.3278C40.4577 25.6473 40.0511 25.899 39.5574 26.0636ZM40.0124 22.0752L39.238 19.8583L40.3803 19.4614L41.1547 21.6783L40.0124 22.0752Z" fill="#DAA48C"/>
<path d="M43.3132 19.9745L43.2842 18.9484L45.9076 18.8613L45.9366 19.8874L45.2203 19.9068L45.3461 23.7306L46.0722 23.7112L46.1012 24.7374L43.4584 24.8245L43.4294 23.7984L44.1361 23.779L44.0102 19.9552L43.3132 19.9745ZM45.4429 19.9068L45.4139 18.8806L46.4594 18.8419C47.1854 18.8226 47.7372 18.9387 48.1148 19.2098C48.4923 19.4808 48.6859 19.8681 48.7053 20.3714C48.715 20.6038 48.6762 20.8167 48.5988 21.0007C48.5214 21.1943 48.4149 21.3492 48.26 21.4944C48.1148 21.6299 47.9308 21.7364 47.7179 21.8138V21.9494L46.6143 22.2301L44.9976 22.2785L44.9686 21.3492L46.4981 21.3008C46.7111 21.2911 46.895 21.2621 47.0402 21.204C47.1854 21.1459 47.2919 21.0588 47.3694 20.9523C47.4371 20.8458 47.4759 20.7006 47.4662 20.536C47.4565 20.294 47.3597 20.1197 47.1758 20.0133C46.9918 19.9068 46.7498 19.8584 46.4594 19.8681L45.4429 19.9068ZM46.9918 21.4653C47.2048 21.5041 47.3887 21.5912 47.5533 21.6977C47.7179 21.8042 47.8244 21.9397 47.8824 22.0946L48.531 23.6435L49.0441 23.6241L49.0731 24.6502L47.6017 24.6987L46.8466 22.6464C46.7885 22.4915 46.7208 22.385 46.6433 22.3269C46.5659 22.2688 46.4594 22.2398 46.3142 22.2495L45.8689 22.2688L46.9918 21.4653Z" fill="#DAA48C"/>
<path d="M54.9597 19.9356L57.4283 20.5745L57.1669 21.5716L56.4989 21.3974L55.86 23.8465C55.7342 24.3306 55.5309 24.7178 55.2501 25.0179C54.9694 25.318 54.6209 25.5116 54.2143 25.6084C53.8077 25.7052 53.3624 25.6859 52.8687 25.56C52.3847 25.4342 51.9781 25.2309 51.678 24.9501C51.3779 24.6694 51.1649 24.3306 51.0681 23.9337C50.9617 23.5368 50.981 23.1011 51.1069 22.6171L51.7458 20.1679L51.0875 19.9937L51.3489 18.9966L53.9142 19.6645L53.6529 20.6616L52.9462 20.4777L52.3169 22.8978C52.2492 23.1592 52.2395 23.3916 52.2879 23.6045C52.3363 23.8175 52.4428 23.9918 52.5977 24.137C52.7526 24.2822 52.9655 24.3887 53.2172 24.4564C53.4786 24.5242 53.7109 24.5339 53.9239 24.4855C54.1369 24.4371 54.3111 24.3306 54.466 24.166C54.6112 24.0014 54.7274 23.7981 54.7952 23.5368L55.4244 21.1166L54.7177 20.9327L54.9597 19.9356Z" fill="#DAA48C"/>
<path d="M59.5001 22.5789L60.0519 21.7173L62.0074 22.9854L61.0393 24.089L60.7199 23.8857L58.8709 26.7415L59.4614 27.119L58.8999 27.9806L56.8477 26.6544L57.4091 25.7928L57.9996 26.18L60.0713 22.9661L59.5001 22.5789ZM60.536 29.0261L60.9038 22.2691L62.0268 22.9951L61.6589 29.7618L60.536 29.0261ZM62.9948 24.8441L63.5563 23.9825L65.6086 25.3088L65.0568 26.1703L64.4663 25.7831L61.8332 29.8586L60.9038 29.2584L61.4459 27.6902L61.8332 27.9419L63.595 25.2216L62.9948 24.8441Z" fill="#DAA48C"/>
<path d="M64.8825 33.2855C64.6017 32.9467 64.3984 32.5789 64.2823 32.2013C64.1661 31.8238 64.1177 31.4366 64.1661 31.059C64.2145 30.6815 64.321 30.3136 64.5146 29.9651C64.7082 29.6166 64.9793 29.2972 65.3278 29.0164C65.6666 28.7357 66.0344 28.5324 66.412 28.4162C66.7895 28.3001 67.1671 28.2517 67.5349 28.2807C67.9028 28.3097 68.261 28.4162 68.5901 28.5905C68.9192 28.7647 69.2097 29.0067 69.471 29.3165C69.7034 29.6069 69.8583 29.8973 69.9163 30.1781C69.9841 30.4685 69.9647 30.7492 69.8679 31.0397C69.7711 31.3301 69.5872 31.6011 69.3258 31.8722L69.5098 32.0948L68.8128 32.3562C69.0548 32.0271 69.1613 31.6689 69.1516 31.2913C69.1322 30.9041 68.987 30.5459 68.716 30.2071C68.4933 29.9361 68.2416 29.7425 67.9512 29.636C67.6608 29.5295 67.3607 29.5004 67.0509 29.5682C66.7411 29.636 66.441 29.7715 66.1603 30.0038C65.9473 30.1781 65.7731 30.3717 65.6472 30.5943C65.5214 30.817 65.4439 31.03 65.4149 31.2623C65.3858 31.485 65.4052 31.7173 65.4633 31.9399C65.531 32.1626 65.6472 32.3756 65.8118 32.5789C66.0054 32.8112 66.2184 32.9854 66.4604 33.0919C66.7024 33.2081 66.9541 33.2565 67.2251 33.2371C67.4962 33.2275 67.7479 33.15 68.0093 33.0048L68.6288 34.0987C68.2029 34.331 67.7673 34.4569 67.322 34.4762C66.8767 34.4956 66.441 34.4085 66.0248 34.2052C65.6085 34.0019 65.2116 33.6921 64.8825 33.2855ZM68.7934 32.3368L70.6133 30.846L71.3781 31.7851L69.5582 33.2759L68.7934 32.3368Z" fill="#DAA48C"/>
<path d="M71.9486 34.7082L72.907 34.3403L73.8654 36.7895L72.907 37.1574L72.6456 36.4894L69.0832 37.8737L69.3446 38.5417L68.3862 38.9096L67.4375 36.4604L68.3959 36.0925L68.6476 36.7508L72.21 35.3665L71.9486 34.7082ZM73.333 38.2706L74.2913 37.9028L75.24 40.352L74.2817 40.7198L74.0203 40.0519L70.4578 41.4362L70.7192 42.1041L69.7608 42.472L68.8121 40.0228L69.7705 39.655L70.0319 40.3132L73.5943 38.9289L73.333 38.2706ZM72.4423 39.9163L71.5711 40.2552L70.2352 36.8186L71.1064 36.4797L72.4423 39.9163Z" fill="#DAA48C"/>
<path d="M74.6793 43.3046L75.6958 43.1885L75.9959 45.8022L74.9794 45.9184L74.902 45.2117L71.0975 45.6473L71.175 46.354L70.1585 46.4702L69.8584 43.8564L70.8749 43.7403L70.9523 44.4469L74.7568 44.0113L74.6793 43.3046Z" fill="#DAA48C"/>
<path d="M71.7847 52.5688L71.6299 53.7692L69.626 53.5175L70.352 47.8447L71.3685 47.9706L71.2814 48.6773L75.0761 49.1613L75.1633 48.4546L76.1797 48.5805L75.4634 54.1855L73.4595 53.9241L73.6144 52.7237L74.6018 52.8496L74.9212 50.3423L71.1265 49.8583L70.7973 52.4333L71.7847 52.5688ZM73.2562 52.0751L72.3269 51.959L72.6463 49.4807L73.5756 49.5969L73.2562 52.0751Z" fill="#DAA48C"/>
<path d="M59.9255 66.9444C60.3321 66.654 60.7096 66.5088 61.0678 66.5088C61.426 66.5088 61.7358 66.654 62.0165 66.9444L62.1617 66.838L62.4424 67.4672C62.2392 67.2833 61.9778 67.2155 61.6583 67.2445C61.3389 67.2736 61.0291 67.3994 60.7193 67.6221C60.4676 67.806 60.3127 67.9803 60.245 68.1642C60.1772 68.3481 60.2159 68.532 60.3418 68.7063C60.4289 68.8321 60.5354 68.9096 60.6709 68.9386C60.7968 68.9677 60.9613 68.958 61.1549 68.8999C61.3485 68.8418 61.5809 68.7353 61.8616 68.5901C62.3263 68.3288 62.7522 68.1642 63.1298 68.0964C63.5073 68.0287 63.8461 68.048 64.1462 68.1642C64.4463 68.2804 64.698 68.4933 64.9207 68.7934C65.2111 69.2097 65.3176 69.626 65.2208 70.0422C65.124 70.4682 64.8335 70.8457 64.3592 71.1942C64.0978 71.3781 63.8461 71.504 63.6041 71.5621C63.3621 71.6202 63.1395 71.6105 62.9168 71.5427C62.7038 71.4749 62.5005 71.3297 62.3166 71.1264L62.1714 71.2232L61.9003 70.6134C62.094 70.7973 62.3456 70.8747 62.6554 70.8457C62.9652 70.8167 63.2653 70.7005 63.5654 70.4875C63.7784 70.3326 63.9236 70.1777 63.9817 70.0132C64.0397 69.8486 64.0204 69.6937 63.9236 69.5485C63.8461 69.4517 63.7493 69.3839 63.6235 69.3549C63.4976 69.3259 63.3331 69.3355 63.1395 69.3936C62.9362 69.442 62.7038 69.5485 62.4134 69.684C61.9294 69.9454 61.5034 70.1197 61.1259 70.1874C60.7484 70.2552 60.4192 70.2358 60.1288 70.1197C59.8384 70.0035 59.5867 69.7808 59.3544 69.4711C59.0349 69.0258 58.9187 68.5708 59.0155 68.1352C59.122 67.7092 59.4124 67.3026 59.9255 66.9444ZM61.9003 70.6327L62.9458 72.1042L61.9584 72.8109L60.9129 71.3394L61.9003 70.6327ZM62.365 65.2891L63.4202 66.7702L62.4328 67.4769L61.3776 65.9957L62.365 65.2891Z" fill="#DAA48C"/>
<path d="M54.466 69.626C54.8823 69.4808 55.2986 69.4227 55.6955 69.4421C56.0924 69.4614 56.4699 69.5583 56.8087 69.7228C57.1475 69.8874 57.4573 70.1294 57.7187 70.4392C57.9801 70.749 58.1834 71.1071 58.3286 71.5331C58.4738 71.9494 58.5319 72.3559 58.5125 72.7528C58.4931 73.1497 58.406 73.5176 58.2511 73.8564C58.0962 74.1952 57.8736 74.4857 57.6025 74.7374C57.3315 74.9891 56.9927 75.1827 56.6151 75.3085C56.2666 75.4344 55.9375 75.4731 55.6471 75.4344C55.3566 75.3956 55.0953 75.2795 54.8629 75.0859C54.6306 74.8923 54.437 74.6309 54.2627 74.2824L53.9917 74.3792V73.6241C54.2143 73.9629 54.5144 74.1952 54.8823 74.3114C55.2502 74.4276 55.6374 74.4179 56.0536 74.2824C56.3828 74.1662 56.6538 73.992 56.8571 73.7596C57.0604 73.5273 57.1863 73.2466 57.2347 72.9368C57.2831 72.627 57.254 72.2882 57.1379 71.9494C57.0507 71.688 56.9249 71.4556 56.77 71.262C56.6151 71.0684 56.4312 70.9232 56.2279 70.807C56.0246 70.7006 55.8116 70.6328 55.5696 70.6231C55.3276 70.6134 55.0953 70.6425 54.8436 70.7296C54.5628 70.8264 54.3208 70.9716 54.1369 71.1555C53.953 71.3492 53.8174 71.5621 53.74 71.8235C53.6625 72.0752 53.6432 72.3463 53.6819 72.6367L52.4428 72.84C52.3653 72.3559 52.4041 71.9106 52.5396 71.4847C52.6751 71.0587 52.9075 70.6812 53.2366 70.3617C53.5657 70.0326 53.982 69.7906 54.466 69.626ZM54.0014 73.6144L54.7661 75.8409L53.6238 76.2378L52.8591 74.0113L54.0014 73.6144Z" fill="#DAA48C"/>
<path d="M47.0316 74.2049C46.8186 74.1662 46.6347 74.0791 46.4701 73.9726C46.3152 73.8564 46.1991 73.7306 46.141 73.5757L45.5021 72.0268L44.989 72.0462L44.96 71.02L46.4314 70.9813L47.1768 73.0336C47.2349 73.1885 47.3027 73.295 47.3801 73.3531C47.4575 73.4111 47.564 73.4402 47.7092 73.4305L48.1545 73.4208L47.0316 74.2049ZM48.5611 75.7635L48.5902 76.7896L47.5447 76.8187C46.8186 76.8381 46.2668 76.7122 45.8893 76.4412C45.5118 76.1701 45.3181 75.7829 45.3085 75.2795C45.2988 75.0471 45.3375 74.8342 45.4149 74.6502C45.4924 74.4663 45.5989 74.3017 45.7538 74.1662C45.899 74.0307 46.0829 73.9242 46.2959 73.8468V73.7112L47.3995 73.4305L49.0258 73.3821L49.0548 74.3114L47.5253 74.3501C47.3123 74.3598 47.1284 74.3889 46.9832 74.447C46.838 74.505 46.7218 74.5922 46.6541 74.6986C46.5863 74.8051 46.5476 74.9503 46.5573 75.1149C46.5669 75.3569 46.6637 75.5312 46.838 75.6377C47.0219 75.7441 47.2639 75.7926 47.5543 75.7829L48.5611 75.7635ZM50.7005 75.7054L50.7296 76.7316L48.1061 76.809L48.0771 75.7829L48.7935 75.7635L48.687 71.9397L47.9609 71.9591L47.9319 70.9329L50.5747 70.8555L50.6037 71.8816L49.897 71.901L50.0035 75.7248L50.7005 75.7054Z" fill="#DAA48C"/>
<path d="M39.0546 75.7058L36.5957 75.0572L36.8571 74.0601L37.5154 74.2343L38.164 71.7851C38.2898 71.3011 38.4931 70.9139 38.7835 70.6138C39.0642 70.3137 39.4127 70.1201 39.8193 70.033C40.2259 69.9458 40.6712 69.9555 41.1649 70.091C41.6489 70.2169 42.0555 70.4202 42.3556 70.7009C42.6557 70.9817 42.8687 71.3205 42.9655 71.7174C43.0623 72.1143 43.0526 72.5596 42.9268 73.0339L42.2782 75.4831L42.9365 75.6574L42.6751 76.6545L40.1097 75.9768L40.3711 74.9894L41.0778 75.1733L41.7167 72.7532C41.7845 72.4918 41.7942 72.2595 41.7458 72.0465C41.6974 71.8335 41.5909 71.6593 41.436 71.5141C41.2811 71.3689 41.0681 71.2624 40.8164 71.1946C40.555 71.1269 40.3227 71.1172 40.1097 71.1656C39.8968 71.214 39.7225 71.3205 39.5676 71.4754C39.4224 71.6399 39.3063 71.8432 39.2385 72.1046L38.5996 74.5247L39.3063 74.7087L39.0546 75.7058Z" fill="#DAA48C"/>
<path d="M31.0288 70.7782L30.4673 71.6398L28.415 70.3039L28.9765 69.4423L29.567 69.8295L32.2098 65.7637L33.1392 66.3639L32.5874 67.9224L32.2001 67.6707L30.4286 70.391L31.0288 70.7782ZM33.507 66.6059L33.1198 73.3629L32.0065 72.6369L32.3937 65.8798L33.507 66.6059ZM34.5138 73.0434L33.9523 73.905L31.9968 72.6369L32.9649 71.5333L33.2844 71.7462L35.143 68.9002L34.5525 68.513L35.114 67.6514L37.1663 68.9873L36.6048 69.8489L36.0143 69.4616L33.9233 72.6659L34.5138 73.0434Z" fill="#DAA48C"/>
<path d="M25.279 63.2854L23.4591 64.7665L22.6943 63.8275L24.5143 62.3464L25.279 63.2854ZM29.19 62.3464C29.4707 62.6949 29.674 63.0531 29.7902 63.4403C29.9064 63.8275 29.9548 64.2051 29.9064 64.5826C29.8676 64.9602 29.7515 65.328 29.5482 65.6765C29.3546 66.025 29.0835 66.3445 28.735 66.6252C28.3865 66.9059 28.0283 67.1092 27.6508 67.2254C27.2732 67.3416 26.8957 67.39 26.5278 67.3609C26.16 67.3319 25.8018 67.2254 25.4727 67.0512C25.1435 66.8769 24.8531 66.6349 24.5917 66.3251C24.3594 66.0347 24.2045 65.7443 24.1464 65.4635C24.0883 65.1828 24.098 64.8924 24.2045 64.602C24.311 64.3116 24.4852 64.0405 24.7466 63.7694L24.5627 63.5468L25.2694 63.2854C25.0274 63.6146 24.9209 63.9727 24.9305 64.36C24.9499 64.7472 25.0951 65.1054 25.3662 65.4442C25.5888 65.7152 25.8405 65.9088 26.1309 66.0153C26.4214 66.1218 26.7214 66.1509 27.0312 66.0928C27.341 66.0347 27.6411 65.8895 27.9218 65.6571C28.1348 65.4829 28.3091 65.2893 28.4349 65.0763C28.5608 64.8633 28.6382 64.6407 28.6769 64.418C28.706 64.1857 28.6963 63.9631 28.6285 63.7404C28.5608 63.5177 28.4446 63.3048 28.28 63.1015C28.0864 62.8692 27.8734 62.6949 27.6314 62.5884C27.3894 62.4819 27.1377 62.4335 26.8667 62.4432C26.6053 62.4529 26.3342 62.5303 26.0825 62.6755L25.463 61.5816C25.8889 61.3493 26.3245 61.2235 26.7699 61.2041C27.2152 61.1847 27.6508 61.2815 28.067 61.4751C28.493 61.6494 28.8609 61.9495 29.19 62.3464Z" fill="#DAA48C"/>
<path d="M20.7391 57.3318L19.7807 57.6997L18.832 55.2505L19.7904 54.8826L20.0421 55.5506L23.6142 54.176L23.3529 53.508L24.3112 53.1401L25.2599 55.5893L24.3015 55.9572L24.0499 55.2989L20.4777 56.6735L20.7391 57.3318ZM22.1137 60.8943L21.1554 61.2621L20.2067 58.8129L21.165 58.4451L21.4167 59.113L24.9889 57.7384L24.7275 57.0704L25.6859 56.7026L26.6346 59.1518L25.6762 59.5196L25.4245 58.8614L21.8524 60.236L22.1137 60.8943ZM21.6297 55.6958L22.501 55.357L23.8272 58.7936L22.956 59.1324L21.6297 55.6958Z" fill="#DAA48C"/>
<path d="M19.4123 52.3174L18.3958 52.4336L18.0957 49.8198L19.1122 49.7036L19.1896 50.4103L22.9941 49.9747L22.9166 49.268L23.9331 49.1519L24.2332 51.7656L23.2167 51.8818L23.1393 51.1751L19.3348 51.6107L19.4123 52.3174Z" fill="#DAA48C"/>
<path d="M22.3264 43.0237L22.4812 41.8233L24.4851 42.0847L23.7397 47.7575L22.7233 47.622L22.8104 46.9153L19.0156 46.4216L18.9188 47.1283L17.9023 46.9927L18.6381 41.3877L20.6419 41.6491L20.4871 42.8495L19.4996 42.7236L19.1705 45.2309L22.9653 45.7246L23.3041 43.1496L22.3264 43.0237ZM20.8452 43.5174L21.7746 43.6336L21.4551 46.1021L20.5258 45.9763L20.8452 43.5174Z" fill="#DAA48C"/>
</svg>
