<svg width="88" height="57" viewBox="0 0 88 57" fill="none" xmlns="http://www.w3.org/2000/svg">
  <path
    d="M72.0867 42.5396C72.7645 40.8569 73.4719 39.184 74.1266 37.4948C76.7094 30.8097 79.279 24.1182 81.8519 17.4298C81.9013 17.2959 81.9506 17.1652 82 17.0312C81.8092 17.2795 81.6841 17.554 81.5657 17.8285C78.4565 25.0461 75.3341 32.2539 72.2512 39.4813C71.7149 40.7425 71.0404 41.9711 70.8989 43.4185C68.632 42.8598 66.3585 42.9317 64.0817 43.4381C64.1607 43.2878 64.2528 43.18 64.3416 43.0722C65.5689 41.592 65.8913 39.942 65.2859 38.1188C64.9602 37.1386 64.4173 36.276 63.7527 35.4919C63.3842 35.0573 62.9861 34.6489 62.5912 34.2176C63.7658 33.6654 64.743 32.9106 65.3122 31.7442C65.8979 30.5418 65.9176 29.3329 65.2201 28.2514C65.638 27.7057 66.0821 27.2483 66.3881 26.7092C67.2304 25.2291 66.9935 23.7359 66.1874 22.344C64.7299 19.8314 62.7952 17.7272 60.3638 16.1033C58.6365 14.9499 56.7479 14.3095 54.6257 14.6003C54.5797 14.6068 54.527 14.584 54.4744 14.5742C54.504 14.3781 54.5336 14.1952 54.5533 14.0154C54.7902 11.8132 54.3526 9.76787 52.9872 7.98715C51.8422 6.4907 50.309 5.76207 48.4007 6.0692C46.6109 6.35673 45.2092 7.31407 44.1926 8.79419C43.7978 9.36598 43.4951 9.99985 43.1891 10.5324C42.4455 10.026 41.7217 9.42479 40.9057 8.99677C38.9513 7.97408 36.9081 7.70289 34.8419 8.66676C32.3249 9.83975 30.7983 12.8784 31.2721 15.7014C31.3708 16.2961 31.5254 16.8809 31.6373 17.3841C30.7489 17.3449 29.8408 17.2109 28.9492 17.2828C27.0639 17.4396 25.1885 17.6912 23.3098 17.9265C20.8323 18.2369 18.3779 18.1911 15.9596 17.5017C15.8148 17.4593 15.6635 17.3122 15.5911 17.175C15.1995 16.4398 14.8738 15.6655 14.4428 14.9532C13.9986 14.2213 13.357 13.6789 12.4917 13.4567C11.3961 13.1757 10.3663 13.9828 10.3827 15.1035C10.3959 16.1588 11.1428 17.126 12.347 17.5507C13.0741 17.8056 13.8308 17.9984 14.5843 18.1748C14.91 18.25 15.0745 18.4166 15.091 18.7139C15.1041 18.9132 15.0811 19.1354 15.0087 19.3217C14.275 21.2069 13.5216 23.0824 12.7878 24.9677C10.2215 31.5743 7.67162 38.1744 5.11845 44.7745C5.07567 44.8823 5.03948 44.9934 5 45.1045C5.32244 44.5555 5.58565 43.9903 5.8357 43.4152C8.60603 37.0014 11.3764 30.5908 14.1368 24.1737C14.6073 23.0824 15.0482 21.978 15.4661 20.8671C15.7391 20.1352 16.1965 19.4491 16.078 18.5571C19.1774 19.4066 22.2339 19.1223 25.3497 18.6551C24.8924 19.1289 24.4548 19.5275 24.0896 19.9817C23.7112 20.4489 23.3493 20.939 23.0762 21.4683C21.6088 24.3273 20.9212 27.3692 21.0528 30.5777C21.1219 32.2866 22.0332 33.4302 23.6224 34.0379C25.2576 34.6652 26.9685 34.6587 28.6827 34.5574C29.4658 34.5117 30.2488 34.4202 31.0582 34.3483C31.0352 34.4398 31.022 34.4986 31.0088 34.5574C30.5647 36.3806 30.0547 38.194 29.6961 40.0335C29.3506 41.8012 29.3407 43.5917 29.877 45.3463C30.6568 47.8883 32.9336 49.4566 35.5657 49.241C37.2141 49.1037 38.6684 48.4503 39.9483 47.4374C40.6129 46.9113 41.2051 46.3003 41.771 45.7775C42.3567 45.9605 42.9423 46.1435 43.5872 46.3461C43.5773 46.3003 43.5971 46.3493 43.5971 46.4016C43.732 49.0482 45.9002 51.4432 49.47 50.9302C52.0364 50.561 53.869 49.1299 55.1719 46.9636C55.6983 46.0847 56.0208 45.1241 56.2182 44.0916C56.3794 44.17 56.5044 44.2321 56.6327 44.2942C57.9587 44.9411 59.3504 45.3005 60.8277 45.0881C61.8542 44.9411 62.8742 44.7385 63.881 44.5033C66.273 43.9413 68.6583 43.8106 71.0602 44.4477C71.2938 44.5098 71.3925 44.6209 71.4945 44.8267C71.8761 45.5978 72.2545 46.3755 72.6987 47.1106C73.0869 47.751 73.6561 48.2183 74.4194 48.398C75.7849 48.7149 76.8443 47.6988 76.5712 46.3297C76.3639 45.2809 75.6039 44.7418 74.6761 44.4118C73.972 44.1602 73.2383 43.9968 72.5177 43.7975C72.067 43.6734 71.9189 43.4904 71.9518 43.0264C71.965 42.8631 72.0242 42.6964 72.0867 42.5396ZM14.3638 17.1848C13.6433 16.9299 12.9096 16.7078 12.2121 16.4039C11.7547 16.2013 11.4816 15.7798 11.3862 15.2767C11.2744 14.682 11.7251 14.2507 12.2976 14.4533C12.6299 14.5709 12.9524 14.7898 13.209 15.0349C13.7914 15.5969 14.1302 16.3189 14.4362 17.0541C14.4132 17.0966 14.3869 17.1423 14.3638 17.1848ZM43.5609 13.13C43.5707 13.0646 43.5872 13.0026 43.6069 12.9405C43.6135 12.9209 43.6333 12.9045 43.6958 12.8294C44.1037 13.509 44.5512 14.1396 44.8769 14.829C45.3803 15.8876 45.8212 16.9789 46.2489 18.0703C46.4694 18.629 46.4102 19.2073 46.0877 19.7268C45.7587 20.2561 45.2751 20.3215 44.8473 19.8771C44.6269 19.6451 44.4361 19.3641 44.3012 19.0733C43.4293 17.1685 43.2944 15.1721 43.5609 13.13ZM41.8862 43.6734C41.873 43.693 41.85 43.7093 41.7611 43.7877C41.6756 43.2323 41.567 42.7258 41.5275 42.2161C41.3828 40.4354 41.4584 38.6677 42.0408 36.9556C42.2481 36.3446 42.5245 35.7663 43.1299 35.4298C43.528 35.2076 43.7254 35.2664 43.8998 35.6879C44.1564 36.312 44.1366 36.9589 44.0116 37.6124C43.6267 39.6349 43.0114 41.579 42.0408 43.4022C41.9915 43.4937 41.9388 43.5819 41.8862 43.6734ZM62.5748 43.363C61.3212 44.2288 59.9394 44.366 58.5114 43.9413C57.8633 43.7485 57.2513 43.4283 56.6229 43.1702C56.3827 43.0722 56.3169 42.9121 56.3103 42.6539C56.2609 40.7687 55.7049 39.0566 54.4612 37.6059C53.9282 36.9851 53.2866 36.5113 52.4246 36.4623C51.5724 36.4165 50.9736 36.9589 51.0658 37.7986C51.125 38.3541 51.3092 38.9259 51.5659 39.4258C52.3621 40.9778 53.54 42.2226 54.9515 43.2421C55.2278 43.4446 55.2871 43.6276 55.2377 43.9511C54.81 46.8231 52.4509 49.3586 49.6411 49.9108C48.5817 50.1199 47.5387 50.0513 46.5714 49.535C45.2224 48.8129 44.6795 47.6007 44.5808 46.15C44.5742 46.0618 44.6861 45.918 44.7782 45.8723C46.9432 44.8071 47.7427 42.9219 47.9631 40.6804C47.9763 40.54 47.9664 40.3929 47.9533 40.2492C47.8513 39.3212 47.2163 38.9259 46.3345 39.2461C45.6896 39.4813 45.2224 39.9322 44.8802 40.5105C44.1992 41.6541 43.903 42.9219 43.7056 44.219C43.6694 44.451 43.63 44.6862 43.63 44.9182C43.63 45.1829 43.5049 45.294 43.268 45.2254C42.9621 45.1404 42.6692 45.013 42.4652 44.9378C43.0673 43.5198 43.7155 42.2161 44.1761 40.8503C44.5874 39.6349 44.8276 38.3541 45.0743 37.0896C45.2027 36.4329 45.0612 35.7631 44.7519 35.1488C44.3439 34.3352 43.5872 34.0836 42.7679 34.4888C42.0737 34.8319 41.6262 35.3971 41.3203 36.0865C40.7379 37.4 40.5569 38.7919 40.501 40.2099C40.4451 41.5724 40.4549 42.9415 40.9419 44.2321C41.136 44.7483 41.0472 45.0489 40.7017 45.4214C39.5699 46.6336 38.2604 47.5713 36.6548 48.0386C33.8022 48.8717 31.2984 47.372 30.6765 44.4804C30.3541 42.9872 30.4429 41.4908 30.6864 40.0008C30.9957 38.1188 31.4431 36.2662 32.0946 34.4659C32.1801 34.2307 32.2953 34.1326 32.5618 34.0934C33.9799 33.8843 35.3881 33.6229 36.6712 32.9368C37.3062 32.597 37.8557 32.1559 38.1781 31.4926C38.5269 30.7705 38.5631 30.0484 38.0827 29.3753C37.5793 28.6729 36.8522 28.418 36.0099 28.5062C34.9735 28.6108 34.2332 29.2349 33.5719 29.9667C32.7658 30.8587 32.1637 31.8814 31.6504 32.9597C31.5879 33.0903 31.4399 33.2472 31.3148 33.2668C29.2289 33.5674 27.1363 33.8222 25.0405 33.3975C24.4713 33.2831 23.9054 33.0609 23.3888 32.7963C22.5366 32.3617 22.1484 31.5972 22.0661 30.6627C21.9115 28.9212 22.178 27.2254 22.6024 25.546C22.9841 24.0332 23.4743 22.5596 24.366 21.2559C25.3037 19.8869 26.4849 18.7825 28.1563 18.4395C29.446 18.1781 30.772 18.1748 32.042 18.6551C32.1538 18.6976 32.2821 18.7825 32.3348 18.8838C33.3153 20.7658 34.8254 22.21 36.3521 23.6313C37.0003 24.2358 37.7109 24.7847 38.4216 25.3173C38.698 25.5231 39.0467 25.6538 39.3823 25.7551C39.8594 25.9021 40.3266 25.8433 40.6918 25.4578C41.0603 25.069 41.1196 24.6017 40.9715 24.1084C40.7379 23.3373 40.1983 22.772 39.6094 22.2721C37.6451 20.6025 35.523 19.1583 33.1935 18.031C33.0849 17.9788 32.9632 17.8873 32.9139 17.7827C31.8018 15.3453 31.8709 12.7804 33.7594 10.6893C35.1018 9.20588 36.8094 8.8236 38.721 9.22875C40.2871 9.56202 41.5802 10.3887 42.6528 11.5551C42.7515 11.6629 42.8008 11.8819 42.7712 12.0289C42.2481 14.5056 42.3468 16.9332 43.3306 19.2922C43.4655 19.6157 43.6365 19.9327 43.8438 20.2136C44.3143 20.8508 44.9263 21.269 45.7653 21.0958C46.6076 20.9227 47.0945 20.3182 47.236 19.534C47.3413 18.9622 47.3512 18.3186 47.1965 17.7664C46.5944 15.5903 45.5218 13.6332 44.1597 11.8328C43.9853 11.6041 43.9688 11.4244 44.0708 11.163C44.7091 9.49014 45.683 8.11458 47.3972 7.38269C49.3187 6.55931 51.0954 7.01674 52.2996 8.72231C53.5762 10.5292 53.9348 12.5386 53.4084 14.6853C53.3656 14.8552 53.1978 15.0447 53.0366 15.1264C52.0758 15.6132 51.2039 16.2046 50.5591 17.0835C50.0853 17.7272 49.8484 18.4427 49.9339 19.2498C49.9767 19.6549 50.0754 20.0437 50.5031 20.2038C50.9309 20.3639 51.3158 20.181 51.5593 19.8608C52.1976 19.0178 52.803 18.1519 53.3886 17.2697C53.6387 16.8907 53.7802 16.4431 54.0105 16.051C54.1026 15.8942 54.277 15.721 54.4448 15.6753C55.9056 15.2963 57.2875 15.6034 58.6101 16.2405C60.604 17.2011 62.1701 18.6813 63.575 20.3443C64.335 21.2461 65.072 22.1675 65.5524 23.2588C66.2697 24.8827 65.9143 26.291 64.493 27.428C63.2032 26.5883 61.7917 26.2289 60.2914 26.2223C59.8538 26.2223 59.3998 26.3073 58.9786 26.4413C58.2351 26.6765 57.7448 27.196 57.6297 27.9802C57.5178 28.7611 57.8534 29.3884 58.4719 29.8524C59.2484 30.4372 60.1466 30.5124 61.0251 30.2151C62.0023 29.8851 62.9367 29.4309 63.8876 29.0225C64.0422 28.9571 64.1837 28.8591 64.3581 28.7644C64.7661 29.3165 64.845 29.9308 64.6937 30.5549C64.3219 32.0709 63.2262 32.9139 61.8312 33.4334C61.7358 33.4694 61.568 33.3746 61.4627 33.2995C59.969 32.2147 58.3502 31.3521 56.6294 30.6888C55.955 30.4274 55.2476 30.2608 54.5073 30.4144C53.6189 30.5973 53.1649 31.1887 52.9971 32.0252C52.8392 32.8159 53.1978 33.3975 53.8394 33.8222C54.6126 34.3352 55.4976 34.5411 56.3991 34.662C58.0344 34.8841 59.6729 34.956 61.3048 34.626C61.3936 34.6097 61.5219 34.6325 61.5877 34.6881C62.8117 35.7663 63.8843 36.9622 64.3943 38.5436C64.9635 40.3798 64.2824 42.1802 62.5748 43.363ZM55.2838 42.2847C53.9644 41.1967 52.8655 40.027 52.2107 38.5011C52.1186 38.2887 52.0693 38.0502 52.0528 37.8215C52.0232 37.4817 52.1943 37.3249 52.5036 37.4686C52.9115 37.6581 53.3327 37.8836 53.6453 38.194C54.5599 39.1088 55.2574 40.9026 55.2838 42.2847ZM44.6203 44.7777C44.821 43.3434 45.0678 41.9547 45.9166 40.7556C46.1963 40.3602 46.4858 40.2067 46.8807 40.1773C47.3215 41.5496 46.0581 44.1635 44.6203 44.7777ZM32.6803 33.0969C33.3218 31.8455 34.0095 30.7313 35.0952 29.9112C35.4802 29.6204 35.9079 29.4374 36.4113 29.4897C37.2536 29.5714 37.7076 30.3196 37.2799 31.0384C37.0562 31.4142 36.6976 31.7507 36.3225 31.986C35.2466 32.6591 34.0095 32.8682 32.6803 33.0969ZM33.8746 19.5177C34.0095 19.5732 34.0555 19.5863 34.0917 19.6092C35.7796 20.6711 37.4938 21.697 38.9645 23.053C39.3363 23.3928 39.6357 23.8143 39.9252 24.2325C40.0141 24.3599 39.9515 24.5887 39.9581 24.7716C39.787 24.7684 39.5765 24.8304 39.4481 24.7553C38.9316 24.4482 38.3788 24.1639 37.9511 23.7555C36.7008 22.5629 35.5032 21.3213 34.2924 20.0895C34.151 19.9457 34.0523 19.7627 33.8746 19.5177ZM52.645 16.6326C52.1055 17.4495 51.5659 18.2663 50.9901 19.1354C50.7203 18.3741 51.4606 17.2305 52.5529 16.5673C52.5858 16.5901 52.6154 16.6097 52.645 16.6326ZM63.6244 28.0521C62.5123 28.6141 61.4923 29.1891 60.3144 29.3623C59.7255 29.4472 59.1793 29.3231 58.7977 28.8199C58.4127 28.3135 58.5542 27.7253 59.1333 27.4509C59.3669 27.3398 59.6301 27.2581 59.8834 27.2352C61.1765 27.1241 62.384 27.4313 63.6244 28.0521ZM60.2947 33.7471C58.5937 33.9399 56.9256 33.8909 55.2936 33.4138C54.9482 33.3125 54.6192 33.1296 54.3066 32.9466C53.9907 32.7636 53.8821 32.463 53.971 32.1036C54.0763 31.6854 54.3526 31.4142 54.7475 31.3782C54.9811 31.3586 55.2278 31.3456 55.4516 31.3946C57.2447 31.803 58.745 32.8126 60.2947 33.7471ZM72.6691 44.8039C73.383 45.0522 74.1102 45.2613 74.8011 45.5586C75.3209 45.7841 75.6631 46.199 75.6039 46.8264C75.5644 47.2446 75.288 47.4831 74.8636 47.4635C74.3668 47.4374 73.9785 47.1825 73.7088 46.797C73.2942 46.199 72.9323 45.5652 72.5473 44.9476C72.5868 44.9019 72.6263 44.8529 72.6691 44.8039Z"
    fill="#DAA48C"/>
</svg>
