<svg width="131" height="27" viewBox="0 0 131 27" fill="none" xmlns="http://www.w3.org/2000/svg">
<rect width="131" height="27" fill="#E9D1E1"/>
<path d="M12.9823 11.4489V10.1239H13.9523C14.7457 10.1239 15.369 10.2889 15.8223 10.6189C16.2757 10.9489 16.5023 11.4355 16.5023 12.0789C16.5023 12.7155 16.2707 13.1822 15.8073 13.4789C15.3473 13.7755 14.6723 13.9239 13.7823 13.9239H11.7773V13.2889H13.7773C14.044 13.2889 14.259 13.2455 14.4223 13.1589C14.5857 13.0689 14.704 12.9522 14.7773 12.8089C14.854 12.6622 14.8923 12.5039 14.8923 12.3339C14.8923 12.0405 14.7873 11.8205 14.5773 11.6739C14.3673 11.5239 14.0857 11.4489 13.7323 11.4489H12.9823ZM12.8823 16.3889H13.8773C14.2707 16.3889 14.584 16.3072 14.8173 16.1439C15.054 15.9772 15.1723 15.7389 15.1723 15.4289C15.1723 15.2922 15.1473 15.1672 15.0973 15.0539C15.0473 14.9405 14.969 14.8422 14.8623 14.7589C14.7557 14.6722 14.6173 14.6055 14.4473 14.5589C14.2807 14.5122 14.079 14.4889 13.8423 14.4889H11.7773V13.6939H13.8423C14.3157 13.6939 14.734 13.7289 15.0973 13.7989C15.464 13.8689 15.7723 13.9805 16.0223 14.1339C16.2723 14.2872 16.4607 14.4872 16.5873 14.7339C16.7173 14.9805 16.7823 15.2789 16.7823 15.6289C16.7823 16.2922 16.5607 16.8055 16.1173 17.1689C15.674 17.5322 15.0623 17.7139 14.2823 17.7139H12.8823V16.3889ZM9.78234 11.4489V10.1239H13.2223V11.4489H12.2573V16.3889H13.2223V17.7139H9.78234V16.3889H10.6973V11.4489H9.78234ZM14.6873 13.6189H15.1673V13.9689H14.6873V13.6189ZM24.3448 13.2889V14.4939H21.1248V13.2889H24.3448ZM25.2198 15.0989H26.7798V17.7139H19.3898V16.3889H20.3048V11.4489H19.3898V10.1239H26.6898V12.7389H25.1298V11.4489H21.8648V16.3889H25.2198V15.0989ZM33.4519 17.8139C32.8085 17.8139 32.3002 17.6805 31.9269 17.4139C31.5535 17.1472 31.3319 16.7555 31.2619 16.2389H31.0319L31.2069 15.3639C31.2869 15.7072 31.5052 15.9805 31.8619 16.1839C32.2185 16.3872 32.6419 16.4889 33.1319 16.4889C33.5319 16.4889 33.8335 16.4172 34.0369 16.2739C34.2435 16.1305 34.3469 15.9155 34.3469 15.6289C34.3469 15.4355 34.2902 15.2739 34.1769 15.1439C34.0669 15.0105 33.8902 14.9022 33.6469 14.8189C33.4035 14.7355 33.0785 14.6689 32.6719 14.6189C31.9885 14.5455 31.4202 14.4022 30.9669 14.1889C30.5135 13.9755 30.1735 13.6972 29.9469 13.3539C29.7235 13.0072 29.6119 12.5922 29.6119 12.1089C29.6119 11.4555 29.8202 10.9439 30.2369 10.5739C30.6569 10.2005 31.2469 10.0139 32.0069 10.0139C32.4235 10.0139 32.7802 10.0739 33.0769 10.1939C33.3735 10.3105 33.6085 10.4872 33.7819 10.7239C33.9552 10.9605 34.0619 11.2555 34.1019 11.6089H34.3269L34.1469 12.4539C34.0769 12.1139 33.8702 11.8422 33.5269 11.6389C33.1835 11.4322 32.7735 11.3289 32.2969 11.3289C31.9535 11.3289 31.6869 11.3905 31.4969 11.5139C31.3102 11.6372 31.2169 11.8139 31.2169 12.0439C31.2169 12.2039 31.2719 12.3472 31.3819 12.4739C31.4952 12.6005 31.6752 12.7105 31.9219 12.8039C32.1685 12.8972 32.4952 12.9755 32.9019 13.0389C33.6085 13.1255 34.1852 13.2722 34.6319 13.4789C35.0819 13.6855 35.4135 13.9605 35.6269 14.3039C35.8435 14.6472 35.9519 15.0672 35.9519 15.5639C35.9519 16.2772 35.7352 16.8305 35.3019 17.2239C34.8685 17.6172 34.2519 17.8139 33.4519 17.8139ZM29.6419 17.7139V15.3639H31.2069V17.7139H29.6419ZM34.1469 12.4539V10.1239H35.7119V12.4539H34.1469ZM45.9479 10.1239V12.9439H44.5129V11.4489H42.9629V16.3889H43.8779V17.7139H40.4879V16.3889H41.4029V11.4489H39.8579V12.9439H38.4179V10.1239H45.9479ZM57.1765 17.8139C56.5332 17.8139 56.0248 17.6805 55.6515 17.4139C55.2782 17.1472 55.0565 16.7555 54.9865 16.2389H54.7565L54.9315 15.3639C55.0115 15.7072 55.2298 15.9805 55.5865 16.1839C55.9432 16.3872 56.3665 16.4889 56.8565 16.4889C57.2565 16.4889 57.5582 16.4172 57.7615 16.2739C57.9682 16.1305 58.0715 15.9155 58.0715 15.6289C58.0715 15.4355 58.0148 15.2739 57.9015 15.1439C57.7915 15.0105 57.6148 14.9022 57.3715 14.8189C57.1282 14.7355 56.8032 14.6689 56.3965 14.6189C55.7132 14.5455 55.1448 14.4022 54.6915 14.1889C54.2382 13.9755 53.8982 13.6972 53.6715 13.3539C53.4482 13.0072 53.3365 12.5922 53.3365 12.1089C53.3365 11.4555 53.5448 10.9439 53.9615 10.5739C54.3815 10.2005 54.9715 10.0139 55.7315 10.0139C56.1482 10.0139 56.5048 10.0739 56.8015 10.1939C57.0982 10.3105 57.3332 10.4872 57.5065 10.7239C57.6798 10.9605 57.7865 11.2555 57.8265 11.6089H58.0515L57.8715 12.4539C57.8015 12.1139 57.5948 11.8422 57.2515 11.6389C56.9082 11.4322 56.4982 11.3289 56.0215 11.3289C55.6782 11.3289 55.4115 11.3905 55.2215 11.5139C55.0348 11.6372 54.9415 11.8139 54.9415 12.0439C54.9415 12.2039 54.9965 12.3472 55.1065 12.4739C55.2198 12.6005 55.3998 12.7105 55.6465 12.8039C55.8932 12.8972 56.2198 12.9755 56.6265 13.0389C57.3332 13.1255 57.9098 13.2722 58.3565 13.4789C58.8065 13.6855 59.1382 13.9605 59.3515 14.3039C59.5682 14.6472 59.6765 15.0672 59.6765 15.5639C59.6765 16.2772 59.4598 16.8305 59.0265 17.2239C58.5932 17.6172 57.9765 17.8139 57.1765 17.8139ZM53.3665 17.7139V15.3639H54.9315V17.7139H53.3665ZM57.8715 12.4539V10.1239H59.4365V12.4539H57.8715ZM67.1475 13.2889V14.4939H63.9275V13.2889H67.1475ZM68.0225 15.0989H69.5825V17.7139H62.1925V16.3889H63.1075V11.4489H62.1925V10.1239H69.4925V12.7389H67.9325V11.4489H64.6675V16.3889H68.0225V15.0989ZM72.3175 11.4489V10.1239H75.7425V11.4489H74.7925V16.3889H77.8875V17.7139H72.3175V16.3889H73.2325V11.4489H72.3175ZM78.8825 14.8139V17.7139H77.3225V14.8139H78.8825ZM81.3097 11.4489V10.1239H84.7347V11.4489H83.7847V16.3889H86.8797V17.7139H81.3097V16.3889H82.2247V11.4489H81.3097ZM87.8747 14.8139V17.7139H86.3147V14.8139H87.8747ZM95.2569 13.2889V14.4939H92.0369V13.2889H95.2569ZM96.1319 15.0989H97.6919V17.7139H90.3019V16.3889H91.2169V11.4489H90.3019V10.1239H97.6019V12.7389H96.0419V11.4489H92.7769V16.3889H96.1319V15.0989ZM105.107 13.5239C105.38 13.5872 105.617 13.6955 105.817 13.8489C106.017 14.0022 106.154 14.1755 106.227 14.3689L106.997 16.3889H107.657V17.7139H105.752L104.867 15.0389C104.797 14.8355 104.714 14.6955 104.617 14.6189C104.524 14.5422 104.382 14.5039 104.192 14.5039H103.617L105.107 13.5239ZM103.182 11.4489V10.1239H104.532C105.472 10.1239 106.179 10.3055 106.652 10.6689C107.129 11.0322 107.367 11.5389 107.367 12.1889C107.367 12.4889 107.314 12.7589 107.207 12.9989C107.104 13.2389 106.954 13.4455 106.757 13.6189C106.56 13.7889 106.322 13.9205 106.042 14.0139V14.1839L104.607 14.5039H102.512V13.2989H104.482C104.759 13.2989 104.992 13.2639 105.182 13.1939C105.375 13.1239 105.52 13.0189 105.617 12.8789C105.714 12.7389 105.762 12.5622 105.762 12.3489C105.762 12.0322 105.645 11.8039 105.412 11.6639C105.182 11.5205 104.875 11.4489 104.492 11.4489H103.182ZM100.427 11.4489V10.1239H103.822V11.4489H102.902V16.3889H103.837V17.7139H100.427V16.3889H101.342V11.4489H100.427Z" fill="#4667A6"/>
<path d="M119.533 7.99902C119.624 7.99902 119.717 7.99902 119.808 7.99902C120.335 8.19155 120.606 8.58088 120.735 9.08145C120.885 9.66617 120.85 10.2537 120.752 10.8384C120.687 11.2221 120.596 11.6014 120.512 12.0036C120.609 12.0036 120.692 12.0036 120.776 12.0036C121.587 12.0036 122.399 12.0036 123.211 12.0036C123.687 12.0036 123.828 12.0949 124 12.5141C124 12.6168 124 12.7181 124 12.8208C123.979 12.9263 123.963 13.0332 123.937 13.1374C123.618 14.4052 123.308 15.6744 122.968 16.9366C122.89 17.2261 122.718 17.497 122.57 17.7666C122.478 17.932 122.315 17.999 122.108 17.999C120.782 17.9933 119.453 18.0076 118.126 17.9876C117.863 17.9833 117.59 17.8864 117.341 17.7851C117.109 17.691 117 17.487 117 17.2346C117.003 15.539 117 13.8433 117.006 12.1491C117.006 12.0763 117.055 11.9865 117.111 11.9323C117.389 11.6613 117.699 11.4174 117.958 11.1308C118.585 10.4377 119.053 9.6733 119.079 8.72064C119.086 8.40832 119.145 8.10313 119.533 7.99902Z" fill="#FEFBF4"/>
<path d="M116.155 15.0116C116.155 15.9181 116.155 16.8247 116.155 17.7313C116.155 17.9985 116.09 18.078 115.858 18.081C115.464 18.0855 115.07 18.0855 114.676 18.081C114.416 18.078 114.321 17.973 114.305 17.6848C114.203 15.8536 114.101 14.0209 114.001 12.1882C113.987 11.9286 114.088 11.789 114.316 11.7845C114.805 11.7755 115.293 11.774 115.782 11.786C116.048 11.7935 116.155 11.9361 116.155 12.2423C116.156 13.1669 116.155 14.0885 116.155 15.0116Z" fill="#FEFBF4"/>
</svg>
