<svg width="24" height="24" viewBox="0 0 24 24" fill="none" xmlns="http://www.w3.org/2000/svg">
<path d="M11.2686 9.21474C11.2686 10.1699 11.2686 11.0947 11.2686 11.9506C10.725 11.9831 10.1951 11.9388 9.70716 12.0597C8.50257 12.3595 7.74285 13.4965 7.82205 14.7593C7.89636 15.9395 8.81447 16.9498 9.99365 17.1483C11.1904 17.3497 12.3833 16.6874 12.8242 15.5415C12.9328 15.2605 12.9836 14.9391 12.9846 14.6354C12.9954 10.9522 12.9914 7.26797 12.9914 3.58472C12.9914 3.39112 12.9914 3.19753 12.9914 3C13.9369 3 14.8394 3 15.736 3C15.958 5.74769 17.1987 7.24733 20 7.32005C20 8.27526 20 9.23145 20 10.2397C18.5021 10.3046 17.1391 9.90166 15.8093 9.14005C15.7908 9.30318 15.7653 9.42111 15.7663 9.53904C15.781 11.1753 15.782 12.8125 15.8191 14.4477C15.8846 17.3664 13.5996 19.8331 10.6595 19.9923C7.76632 20.1485 5.275 17.9207 5.01882 14.9479C4.77732 12.1393 6.88829 9.541 9.70423 9.19214C10.0259 9.15184 10.3535 9.14398 10.6781 9.143C10.8687 9.143 11.0604 9.18821 11.2686 9.21474Z" fill="black"/>
</svg>
